  0
SECTION
  2
HEADER
  9
$ACADVER
  1
AC1014
  9
$HANDSEED
  5
FFFF
  9
$MEASUREMENT
 70
     1
  0
ENDSEC
  0
SECTION
  2
TABLES
  0
TABLE
  2
VPORT
  5
8
330
0
100
AcDbSymbolTable
 70
     4
  0
VPORT
  5
2E
330
8
100
AcDbSymbolTableRecord
100
AcDbViewportTableRecord
  2
*ACTIVE
 70
     0
 10
0.0
 20
0.0
 11
1.0
 21
1.0
 12
210.0
 22
148.5
 13
0.0
 23
0.0
 14
10.0
 24
10.0
 15
10.0
 25
10.0
 16
0.0
 26
0.0
 36
1.0
 17
0.0
 27
0.0
 37
0.0
 40
341.0
 41
1.24
 42
50.0
 43
0.0
 44
0.0
 50
0.0
 51
0.0
 71
     0
 72
   100
 73
     1
 74
     3
 75
     0
 76
     0
 77
     0
 78
     0
  0
ENDTAB
  0
TABLE
  2
LTYPE
  5
5
330
0
100
AcDbSymbolTable
 70
     1
  0
LTYPE
  5
14
330
5
100
AcDbSymbolTableRecord
100
AcDbLinetypeTableRecord
  2
BYBLOCK
 70
     0
  3

 72
    65
 73
     0
 40
0.0
  0
LTYPE
  5
15
330
5
100
AcDbSymbolTableRecord
100
AcDbLinetypeTableRecord
  2
BYLAYER
 70
     0
  3

 72
    65
 73
     0
 40
0.0
  0
LTYPE
  5
16
330
5
100
AcDbSymbolTableRecord
100
AcDbLinetypeTableRecord
  2
CONTINUOUS
 70
     0
  3
Solid line
 72
    65
 73
     0
 40
0.0
  0
ENDTAB
  0
TABLE
  2
LAYER
  5
2
100
AcDbSymbolTable
 70
2
  0
LAYER
  5
50
100
AcDbSymbolTableRecord
100
AcDbLayerTableRecord
  2
0
 70
0
  6
CONTINUOUS
  0
LAYER
  5
51
100
AcDbSymbolTableRecord
100
AcDbLayerTableRecord
  2
Layer_1
 70
0
  6
CONTINUOUS
  0
ENDTAB
  0
TABLE
  2
STYLE
  5
3
330
0
100
AcDbSymbolTable
 70
     1
  0
STYLE
  5
11
330
3
100
AcDbSymbolTableRecord
100
AcDbTextStyleTableRecord
  2
STANDARD
 70
     0
 40
0.0
 41
1.0
 50
0.0
 71
     0
 42
2.5
  3
txt
  4

  0
ENDTAB
  0
TABLE
  2
VIEW
  5
6
330
0
100
AcDbSymbolTable
 70
     0
  0
ENDTAB
  0
TABLE
  2
UCS
  5
7
330
0
100
AcDbSymbolTable
 70
     0
  0
ENDTAB
  0
TABLE
  2
APPID
  5
9
330
0
100
AcDbSymbolTable
 70
     2
  0
APPID
  5
12
330
9
100
AcDbSymbolTableRecord
100
AcDbRegAppTableRecord
  2
ACAD
 70
     0
  0
ENDTAB
  0
TABLE
  2
DIMSTYLE
  5
A
330
0
100
AcDbSymbolTable
 70
     1
  0
DIMSTYLE
105
27
330
A
100
AcDbSymbolTableRecord
100
AcDbDimStyleTableRecord
  2
ISO-25
 70
     0
  3

  4

  5

  6

  7

 40
1.0
 41
2.5
 42
0.625
 43
3.75
 44
1.25
 45
0.0
 46
0.0
 47
0.0
 48
0.0
140
2.5
141
2.5
142
0.0
143
0.03937007874016
144
1.0
145
0.0
146
1.0
147
0.625
 71
     0
 72
     0
 73
     0
 74
     0
 75
     0
 76
     0
 77
     1
 78
     8
170
     0
171
     3
172
     1
173
     0
174
     0
175
     0
176
     0
177
     0
178
     0
270
     2
271
     2
272
     2
273
     2
274
     3
340
11
275
     0
280
     0
281
     0
282
     0
283
     0
284
     8
285
     0
286
     0
287
     3
288
     0
  0
ENDTAB
  0
TABLE
  2
BLOCK_RECORD
  5
1
330
0
100
AcDbSymbolTable
 70
     1
  0
BLOCK_RECORD
  5
1F
330
1
100
AcDbSymbolTableRecord
100
AcDbBlockTableRecord
  2
*MODEL_SPACE
  0
BLOCK_RECORD
  5
1B
330
1
100
AcDbSymbolTableRecord
100
AcDbBlockTableRecord
  2
*PAPER_SPACE
  0
ENDTAB
  0
ENDSEC
  0
SECTION
  2
BLOCKS
  0
BLOCK
  5
20
330
1F
100
AcDbEntity
  8
0
100
AcDbBlockBegin
  2
*MODEL_SPACE
 70
     0
 10
0.0
 20
0.0
 30
0.0
  3
*MODEL_SPACE
  1

  0
ENDBLK
  5
21
330
1F
100
AcDbEntity
  8
0
100
AcDbBlockEnd
  0
BLOCK
  5
1C
330
1B
100
AcDbEntity
 67
     1
  8
0
100
AcDbBlockBegin
  2
*PAPER_SPACE
  1

  0
ENDBLK
  5
1D
330
1B
100
AcDbEntity
 67
     1
  8
0
100
AcDbBlockEnd
  0
ENDSEC
  0
SECTION
  2
ENTITIES
  0
LINE
  5
100
100
AcDbEntity
  8
Layer_1
 62
7
100
AcDbLine
 10
3.958655
 20
25.967831
 30
0.0
 11
3.958655
 21
15.675248
 31
0.0
  0
LINE
  5
101
100
AcDbEntity
  8
Layer_1
 62
7
100
AcDbLine
 10
3.958655
 20
15.675248
 30
0.0
 11
9.765708
 21
15.675248
 31
0.0
  0
SPLINE
  5
102
100
AcDbEntity
  8
Layer_1
 62
7
100
AcDbSpline
 70
8
 71
3
 72
8
 73
4
 74
0
 40
0
 40
0
 40
0
 40
0
 40
1
 40
1
 40
1
 40
1
 10
9.765708
 20
15.675248
 30
0.0
 10
10.228729
 20
15.675248
 30
0.0
 10
10.582425
 20
15.562712
 30
0.0
 10
10.826797
 20
15.337640
 30
0.0
  0
SPLINE
  5
103
100
AcDbEntity
  8
Layer_1
 62
7
100
AcDbSpline
 70
8
 71
3
 72
8
 73
4
 74
0
 40
0
 40
0
 40
0
 40
0
 40
1
 40
1
 40
1
 40
1
 10
10.826797
 20
15.337640
 30
0.0
 10
11.077600
 20
15.112550
 30
0.0
 10
11.203002
 20
14.829587
 30
0.0
 10
11.203002
 20
14.488751
 30
0.0
  0
SPLINE
  5
104
100
AcDbEntity
  8
Layer_1
 62
7
100
AcDbSpline
 70
8
 71
3
 72
8
 73
4
 74
0
 40
0
 40
0
 40
0
 40
0
 40
1
 40
1
 40
1
 40
1
 10
11.203002
 20
14.488751
 30
0.0
 10
11.203002
 20
14.141494
 30
0.0
 10
11.080816
 20
13.858540
 30
0.0
 10
10.836444
 20
13.639888
 30
0.0
  0
SPLINE
  5
105
100
AcDbEntity
  8
Layer_1
 62
7
100
AcDbSpline
 70
8
 71
3
 72
8
 73
4
 74
0
 40
0
 40
0
 40
0
 40
0
 40
1
 40
1
 40
1
 40
1
 10
10.836444
 20
13.639888
 30
0.0
 10
10.592071
 20
13.427674
 30
0.0
 10
10.235159
 20
13.321568
 30
0.0
 10
9.765708
 20
13.321568
 30
0.0
  0
LINE
  5
106
100
AcDbEntity
  8
Layer_1
 62
7
100
AcDbLine
 10
9.765708
 20
13.321568
 30
0.0
 11
2.849334
 21
13.321568
 31
0.0
  0
SPLINE
  5
107
100
AcDbEntity
  8
Layer_1
 62
7
100
AcDbSpline
 70
8
 71
3
 72
8
 73
4
 74
0
 40
0
 40
0
 40
0
 40
0
 40
1
 40
1
 40
1
 40
1
 10
2.849334
 20
13.321568
 30
0.0
 10
2.225542
 20
13.321568
 30
0.0
 10
1.775383
 20
13.459830
 30
0.0
 10
1.498857
 20
13.736355
 30
0.0
  0
SPLINE
  5
108
100
AcDbEntity
  8
Layer_1
 62
7
100
AcDbSpline
 70
8
 71
3
 72
8
 73
4
 74
0
 40
0
 40
0
 40
0
 40
0
 40
1
 40
1
 40
1
 40
1
 10
1.498857
 20
13.736355
 30
0.0
 10
1.228762
 20
14.012880
 30
0.0
 10
1.093714
 20
14.459823
 30
0.0
 10
1.093714
 20
15.077184
 30
0.0
  0
LINE
  5
109
100
AcDbEntity
  8
Layer_1
 62
7
100
AcDbLine
 10
1.093714
 20
15.077184
 30
0.0
 11
1.093714
 21
25.967831
 31
0.0
  0
SPLINE
  5
10a
100
AcDbEntity
  8
Layer_1
 62
7
100
AcDbSpline
 70
8
 71
3
 72
8
 73
4
 74
0
 40
0
 40
0
 40
0
 40
0
 40
1
 40
1
 40
1
 40
1
 10
1.093714
 20
25.967831
 30
0.0
 10
1.093714
 20
26.546598
 30
0.0
 10
1.222331
 20
26.980673
 30
0.0
 10
1.479564
 20
27.270057
 30
0.0
  0
SPLINE
  5
10b
100
AcDbEntity
  8
Layer_1
 62
7
100
AcDbSpline
 70
8
 71
3
 72
8
 73
4
 74
0
 40
0
 40
0
 40
0
 40
0
 40
1
 40
1
 40
1
 40
1
 10
1.479564
 20
27.270057
 30
0.0
 10
1.743229
 20
27.559458
 30
0.0
 10
2.087279
 20
27.704159
 30
0.0
 10
2.511715
 20
27.704159
 30
0.0
  0
SPLINE
  5
10c
100
AcDbEntity
  8
Layer_1
 62
7
100
AcDbSpline
 70
8
 71
3
 72
8
 73
4
 74
0
 40
0
 40
0
 40
0
 40
0
 40
1
 40
1
 40
1
 40
1
 10
2.511715
 20
27.704159
 30
0.0
 10
2.942582
 20
27.704159
 30
0.0
 10
3.289847
 20
27.559458
 30
0.0
 10
3.553512
 20
27.270057
 30
0.0
  0
SPLINE
  5
10d
100
AcDbEntity
  8
Layer_1
 62
7
100
AcDbSpline
 70
8
 71
3
 72
8
 73
4
 74
0
 40
0
 40
0
 40
0
 40
0
 40
1
 40
1
 40
1
 40
1
 10
3.553512
 20
27.270057
 30
0.0
 10
3.823607
 20
26.987112
 30
0.0
 10
3.958655
 20
26.553036
 30
0.0
 10
3.958655
 20
25.967831
 30
0.0
  0
LINE
  5
10e
100
AcDbEntity
  8
Layer_1
 62
7
100
AcDbLine
 10
3.958655
 20
25.967831
 30
0.0
 11
3.958655
 21
25.967831
 31
0.0
  0
SPLINE
  5
10f
100
AcDbEntity
  8
Layer_1
 62
7
100
AcDbSpline
 70
8
 71
3
 72
8
 73
4
 74
0
 40
0
 40
0
 40
0
 40
0
 40
1
 40
1
 40
1
 40
1
 10
18.350886
 20
27.704159
 30
0.0
 10
19.817118
 20
27.704159
 30
0.0
 10
21.074348
 20
27.405118
 30
0.0
 10
22.122576
 20
26.807036
 30
0.0
  0
SPLINE
  5
110
100
AcDbEntity
  8
Layer_1
 62
7
100
AcDbSpline
 70
8
 71
3
 72
8
 73
4
 74
0
 40
0
 40
0
 40
0
 40
0
 40
1
 40
1
 40
1
 40
1
 10
22.122576
 20
26.807036
 30
0.0
 10
23.177235
 20
26.215410
 30
0.0
 10
23.974659
 20
25.369758
 30
0.0
 10
24.514850
 20
24.270079
 30
0.0
  0
SPLINE
  5
111
100
AcDbEntity
  8
Layer_1
 62
7
100
AcDbSpline
 70
8
 71
3
 72
8
 73
4
 74
0
 40
0
 40
0
 40
0
 40
0
 40
1
 40
1
 40
1
 40
1
 10
24.514850
 20
24.270079
 30
0.0
 10
25.055041
 20
23.176838
 30
0.0
 10
25.325137
 20
21.890672
 30
0.0
 10
25.325137
 20
20.411581
 30
0.0
  0
SPLINE
  5
112
100
AcDbEntity
  8
Layer_1
 62
7
100
AcDbSpline
 70
8
 71
3
 72
8
 73
4
 74
0
 40
0
 40
0
 40
0
 40
0
 40
1
 40
1
 40
1
 40
1
 10
25.325137
 20
20.411581
 30
0.0
 10
25.325137
 20
19.318323
 30
0.0
 10
25.177227
 20
18.324750
 30
0.0
 10
24.881408
 20
17.430864
 30
0.0
  0
SPLINE
  5
113
100
AcDbEntity
  8
Layer_1
 62
7
100
AcDbSpline
 70
8
 71
3
 72
8
 73
4
 74
0
 40
0
 40
0
 40
0
 40
0
 40
1
 40
1
 40
1
 40
1
 10
24.881408
 20
17.430864
 30
0.0
 10
24.585589
 20
16.536978
 30
0.0
 10
24.141861
 20
15.762067
 30
0.0
 10
23.550224
 20
15.106129
 30
0.0
  0
SPLINE
  5
114
100
AcDbEntity
  8
Layer_1
 62
7
100
AcDbSpline
 70
8
 71
3
 72
8
 73
4
 74
0
 40
0
 40
0
 40
0
 40
0
 40
1
 40
1
 40
1
 40
1
 10
23.550224
 20
15.106129
 30
0.0
 10
22.958586
 20
14.450174
 30
0.0
 10
22.231900
 20
13.948568
 30
0.0
 10
21.370167
 20
13.601312
 30
0.0
  0
SPLINE
  5
115
100
AcDbEntity
  8
Layer_1
 62
7
100
AcDbSpline
 70
8
 71
3
 72
8
 73
4
 74
0
 40
0
 40
0
 40
0
 40
0
 40
1
 40
1
 40
1
 40
1
 10
21.370167
 20
13.601312
 30
0.0
 10
20.508434
 20
13.254037
 30
0.0
 10
19.521299
 20
13.080400
 30
0.0
 10
18.408763
 20
13.080400
 30
0.0
  0
SPLINE
  5
116
100
AcDbEntity
  8
Layer_1
 62
7
100
AcDbSpline
 70
8
 71
3
 72
8
 73
4
 74
0
 40
0
 40
0
 40
0
 40
0
 40
1
 40
1
 40
1
 40
1
 10
18.408763
 20
13.080400
 30
0.0
 10
17.302658
 20
13.080400
 30
0.0
 10
16.312308
 20
13.257248
 30
0.0
 10
15.437713
 20
13.610943
 30
0.0
  0
SPLINE
  5
117
100
AcDbEntity
  8
Layer_1
 62
7
100
AcDbSpline
 70
8
 71
3
 72
8
 73
4
 74
0
 40
0
 40
0
 40
0
 40
0
 40
1
 40
1
 40
1
 40
1
 10
15.437713
 20
13.610943
 30
0.0
 10
14.563118
 20
13.971076
 30
0.0
 10
13.833217
 20
14.475901
 30
0.0
 10
13.248010
 20
15.125418
 30
0.0
  0
SPLINE
  5
118
100
AcDbEntity
  8
Layer_1
 62
7
100
AcDbSpline
 70
8
 71
3
 72
8
 73
4
 74
0
 40
0
 40
0
 40
0
 40
0
 40
1
 40
1
 40
1
 40
1
 10
13.248010
 20
15.125418
 30
0.0
 10
12.662803
 20
15.774934
 30
0.0
 10
12.219075
 20
16.556284
 30
0.0
 10
11.916825
 20
17.469467
 30
0.0
  0
SPLINE
  5
119
100
AcDbEntity
  8
Layer_1
 62
7
100
AcDbSpline
 70
8
 71
3
 72
8
 73
4
 74
0
 40
0
 40
0
 40
0
 40
0
 40
1
 40
1
 40
1
 40
1
 10
11.916825
 20
17.469467
 30
0.0
 10
11.621007
 20
18.382650
 30
0.0
 10
11.473097
 20
19.369784
 30
0.0
 10
11.473097
 20
20.430869
 30
0.0
  0
SPLINE
  5
11a
100
AcDbEntity
  8
Layer_1
 62
7
100
AcDbSpline
 70
8
 71
3
 72
8
 73
4
 74
0
 40
0
 40
0
 40
0
 40
0
 40
1
 40
1
 40
1
 40
1
 10
11.473097
 20
20.430869
 30
0.0
 10
11.473097
 20
21.517671
 30
0.0
 10
11.627437
 20
22.514454
 30
0.0
 10
11.936118
 20
23.421216
 30
0.0
  0
SPLINE
  5
11b
100
AcDbEntity
  8
Layer_1
 62
7
100
AcDbSpline
 70
8
 71
3
 72
8
 73
4
 74
0
 40
0
 40
0
 40
0
 40
0
 40
1
 40
1
 40
1
 40
1
 10
11.936118
 20
23.421216
 30
0.0
 10
12.251229
 20
24.327961
 30
0.0
 10
12.704604
 20
25.099662
 30
0.0
 10
13.296242
 20
25.736320
 30
0.0
  0
SPLINE
  5
11c
100
AcDbEntity
  8
Layer_1
 62
7
100
AcDbSpline
 70
8
 71
3
 72
8
 73
4
 74
0
 40
0
 40
0
 40
0
 40
0
 40
1
 40
1
 40
1
 40
1
 10
13.296242
 20
25.736320
 30
0.0
 10
13.887879
 20
26.372961
 30
0.0
 10
14.608134
 20
26.858489
 30
0.0
 10
15.457005
 20
27.192905
 30
0.0
  0
SPLINE
  5
11d
100
AcDbEntity
  8
Layer_1
 62
7
100
AcDbSpline
 70
8
 71
3
 72
8
 73
4
 74
0
 40
0
 40
0
 40
0
 40
0
 40
1
 40
1
 40
1
 40
1
 10
15.457005
 20
27.192905
 30
0.0
 10
16.305877
 20
27.533741
 30
0.0
 10
17.270504
 20
27.704159
 30
0.0
 10
18.350886
 20
27.704159
 30
0.0
  0
LINE
  5
11e
100
AcDbEntity
  8
Layer_1
 62
7
100
AcDbLine
 10
18.350886
 20
27.704159
 30
0.0
 11
18.350886
 21
27.704159
 31
0.0
  0
SPLINE
  5
11f
100
AcDbEntity
  8
Layer_1
 62
7
100
AcDbSpline
 70
8
 71
3
 72
8
 73
4
 74
0
 40
0
 40
0
 40
0
 40
0
 40
1
 40
1
 40
1
 40
1
 10
22.421610
 20
20.430869
 30
0.0
 10
22.421610
 20
21.466236
 30
0.0
 10
22.254408
 20
22.363342
 30
0.0
 10
21.920004
 20
23.122184
 30
0.0
  0
SPLINE
  5
120
100
AcDbEntity
  8
Layer_1
 62
7
100
AcDbSpline
 70
8
 71
3
 72
8
 73
4
 74
0
 40
0
 40
0
 40
0
 40
0
 40
1
 40
1
 40
1
 40
1
 10
21.920004
 20
23.122184
 30
0.0
 10
21.585600
 20
23.881009
 30
0.0
 10
21.106502
 20
24.453347
 30
0.0
 10
20.482711
 20
24.839198
 30
0.0
  0
SPLINE
  5
121
100
AcDbEntity
  8
Layer_1
 62
7
100
AcDbSpline
 70
8
 71
3
 72
8
 73
4
 74
0
 40
0
 40
0
 40
0
 40
0
 40
1
 40
1
 40
1
 40
1
 10
20.482711
 20
24.839198
 30
0.0
 10
19.865349
 20
25.231487
 30
0.0
 10
19.154741
 20
25.427631
 30
0.0
 10
18.350886
 20
25.427631
 30
0.0
  0
SPLINE
  5
122
100
AcDbEntity
  8
Layer_1
 62
7
100
AcDbSpline
 70
8
 71
3
 72
8
 73
4
 74
0
 40
0
 40
0
 40
0
 40
0
 40
1
 40
1
 40
1
 40
1
 10
18.350886
 20
25.427631
 30
0.0
 10
17.778540
 20
25.427631
 30
0.0
 10
17.247996
 20
25.318305
 30
0.0
 10
16.759252
 20
25.099654
 30
0.0
  0
SPLINE
  5
123
100
AcDbEntity
  8
Layer_1
 62
7
100
AcDbSpline
 70
8
 71
3
 72
8
 73
4
 74
0
 40
0
 40
0
 40
0
 40
0
 40
1
 40
1
 40
1
 40
1
 10
16.759252
 20
25.099654
 30
0.0
 10
16.276938
 20
24.887440
 30
0.0
 10
15.858933
 20
24.575549
 30
0.0
 10
15.505237
 20
24.163981
 30
0.0
  0
SPLINE
  5
124
100
AcDbEntity
  8
Layer_1
 62
7
100
AcDbSpline
 70
8
 71
3
 72
8
 73
4
 74
0
 40
0
 40
0
 40
0
 40
0
 40
1
 40
1
 40
1
 40
1
 10
15.505237
 20
24.163981
 30
0.0
 10
15.157971
 20
23.752395
 30
0.0
 10
14.881445
 20
23.225063
 30
0.0
 10
14.675658
 20
22.581984
 30
0.0
  0
SPLINE
  5
125
100
AcDbEntity
  8
Layer_1
 62
7
100
AcDbSpline
 70
8
 71
3
 72
8
 73
4
 74
0
 40
0
 40
0
 40
0
 40
0
 40
1
 40
1
 40
1
 40
1
 10
14.675658
 20
22.581984
 30
0.0
 10
14.476302
 20
21.945326
 30
0.0
 10
14.376624
 20
21.228288
 30
0.0
 10
14.376624
 20
20.430869
 30
0.0
  0
SPLINE
  5
126
100
AcDbEntity
  8
Layer_1
 62
7
100
AcDbSpline
 70
8
 71
3
 72
8
 73
4
 74
0
 40
0
 40
0
 40
0
 40
0
 40
1
 40
1
 40
1
 40
1
 10
14.376624
 20
20.430869
 30
0.0
 10
14.376624
 20
19.627012
 30
0.0
 10
14.476302
 20
18.900325
 30
0.0
 10
14.675658
 20
18.250808
 30
0.0
  0
SPLINE
  5
127
100
AcDbEntity
  8
Layer_1
 62
7
100
AcDbSpline
 70
8
 71
3
 72
8
 73
4
 74
0
 40
0
 40
0
 40
0
 40
0
 40
1
 40
1
 40
1
 40
1
 10
14.675658
 20
18.250808
 30
0.0
 10
14.881445
 20
17.601291
 30
0.0
 10
15.167617
 20
17.061100
 30
0.0
 10
15.534176
 20
16.630235
 30
0.0
  0
SPLINE
  5
128
100
AcDbEntity
  8
Layer_1
 62
7
100
AcDbSpline
 70
8
 71
3
 72
8
 73
4
 74
0
 40
0
 40
0
 40
0
 40
0
 40
1
 40
1
 40
1
 40
1
 10
15.534176
 20
16.630235
 30
0.0
 10
15.907165
 20
16.205791
 30
0.0
 10
16.331600
 20
15.887462
 30
0.0
 10
16.807483
 20
15.675248
 30
0.0
  0
SPLINE
  5
129
100
AcDbEntity
  8
Layer_1
 62
7
100
AcDbSpline
 70
8
 71
3
 72
8
 73
4
 74
0
 40
0
 40
0
 40
0
 40
0
 40
1
 40
1
 40
1
 40
1
 10
16.807483
 20
15.675248
 30
0.0
 10
17.289796
 20
15.463035
 30
0.0
 10
17.817126
 20
15.356928
 30
0.0
 10
18.389471
 20
15.356928
 30
0.0
  0
SPLINE
  5
12a
100
AcDbEntity
  8
Layer_1
 62
7
100
AcDbSpline
 70
8
 71
3
 72
8
 73
4
 74
0
 40
0
 40
0
 40
0
 40
0
 40
1
 40
1
 40
1
 40
1
 10
18.389471
 20
15.356928
 30
0.0
 10
19.122587
 20
15.356928
 30
0.0
 10
19.794610
 20
15.540205
 30
0.0
 10
20.405540
 20
15.906759
 30
0.0
  0
SPLINE
  5
12b
100
AcDbEntity
  8
Layer_1
 62
7
100
AcDbSpline
 70
8
 71
3
 72
8
 73
4
 74
0
 40
0
 40
0
 40
0
 40
0
 40
1
 40
1
 40
1
 40
1
 10
20.405540
 20
15.906759
 30
0.0
 10
21.022901
 20
16.273312
 30
0.0
 10
21.511646
 20
16.839230
 30
0.0
 10
21.871773
 20
17.604510
 30
0.0
  0
SPLINE
  5
12c
100
AcDbEntity
  8
Layer_1
 62
7
100
AcDbSpline
 70
8
 71
3
 72
8
 73
4
 74
0
 40
0
 40
0
 40
0
 40
0
 40
1
 40
1
 40
1
 40
1
 10
21.871773
 20
17.604510
 30
0.0
 10
22.238331
 20
18.369774
 30
0.0
 10
22.421610
 20
19.311893
 30
0.0
 10
22.421610
 20
20.430869
 30
0.0
  0
LINE
  5
12d
100
AcDbEntity
  8
Layer_1
 62
7
100
AcDbLine
 10
22.421610
 20
20.430869
 30
0.0
 11
22.421610
 21
20.430869
 31
0.0
  0
LINE
  5
12e
100
AcDbEntity
  8
Layer_1
 62
7
100
AcDbLine
 10
33.852437
 20
13.321568
 30
0.0
 11
29.530908
 21
13.321568
 31
0.0
  0
SPLINE
  5
12f
100
AcDbEntity
  8
Layer_1
 62
7
100
AcDbSpline
 70
8
 71
3
 72
8
 73
4
 74
0
 40
0
 40
0
 40
0
 40
0
 40
1
 40
1
 40
1
 40
1
 10
29.530908
 20
13.321568
 30
0.0
 10
28.907116
 20
13.321568
 30
0.0
 10
28.460172
 20
13.459830
 30
0.0
 10
28.190076
 20
13.736355
 30
0.0
  0
SPLINE
  5
130
100
AcDbEntity
  8
Layer_1
 62
7
100
AcDbSpline
 70
8
 71
3
 72
8
 73
4
 74
0
 40
0
 40
0
 40
0
 40
0
 40
1
 40
1
 40
1
 40
1
 10
28.190076
 20
13.736355
 30
0.0
 10
27.926412
 20
14.019318
 30
0.0
 10
27.794580
 20
14.466261
 30
0.0
 10
27.794580
 20
15.077184
 30
0.0
  0
LINE
  5
131
100
AcDbEntity
  8
Layer_1
 62
7
100
AcDbLine
 10
27.794580
 20
15.077184
 30
0.0
 11
27.794580
 21
25.707375
 31
0.0
  0
SPLINE
  5
132
100
AcDbEntity
  8
Layer_1
 62
7
100
AcDbSpline
 70
8
 71
3
 72
8
 73
4
 74
0
 40
0
 40
0
 40
0
 40
0
 40
1
 40
1
 40
1
 40
1
 10
27.794580
 20
25.707375
 30
0.0
 10
27.794580
 20
26.331157
 30
0.0
 10
27.929627
 20
26.778100
 30
0.0
 10
28.199723
 20
27.048204
 30
0.0
  0
SPLINE
  5
133
100
AcDbEntity
  8
Layer_1
 62
7
100
AcDbSpline
 70
8
 71
3
 72
8
 73
4
 74
0
 40
0
 40
0
 40
0
 40
0
 40
1
 40
1
 40
1
 40
1
 10
28.199723
 20
27.048204
 30
0.0
 10
28.476250
 20
27.324729
 30
0.0
 10
28.919978
 20
27.462991
 30
0.0
 10
29.530908
 20
27.462991
 30
0.0
  0
LINE
  5
134
100
AcDbEntity
  8
Layer_1
 62
7
100
AcDbLine
 10
29.530908
 20
27.462991
 30
0.0
 11
34.112885
 21
27.462991
 31
0.0
  0
SPLINE
  5
135
100
AcDbEntity
  8
Layer_1
 62
7
100
AcDbSpline
 70
8
 71
3
 72
8
 73
4
 74
0
 40
0
 40
0
 40
0
 40
0
 40
1
 40
1
 40
1
 40
1
 10
34.112885
 20
27.462991
 30
0.0
 10
34.788125
 20
27.462991
 30
0.0
 10
35.373332
 20
27.421187
 30
0.0
 10
35.868507
 20
27.337579
 30
0.0
  0
SPLINE
  5
136
100
AcDbEntity
  8
Layer_1
 62
7
100
AcDbSpline
 70
8
 71
3
 72
8
 73
4
 74
0
 40
0
 40
0
 40
0
 40
0
 40
1
 40
1
 40
1
 40
1
 10
35.868507
 20
27.337579
 30
0.0
 10
36.363682
 20
27.253988
 30
0.0
 10
36.807410
 20
27.093218
 30
0.0
 10
37.199692
 20
26.855270
 30
0.0
  0
SPLINE
  5
137
100
AcDbEntity
  8
Layer_1
 62
7
100
AcDbSpline
 70
8
 71
3
 72
8
 73
4
 74
0
 40
0
 40
0
 40
0
 40
0
 40
1
 40
1
 40
1
 40
1
 10
37.199692
 20
26.855270
 30
0.0
 10
37.534095
 20
26.655915
 30
0.0
 10
37.829913
 20
26.401897
 30
0.0
 10
38.087147
 20
26.093217
 30
0.0
  0
SPLINE
  5
138
100
AcDbEntity
  8
Layer_1
 62
7
100
AcDbSpline
 70
8
 71
3
 72
8
 73
4
 74
0
 40
0
 40
0
 40
0
 40
0
 40
1
 40
1
 40
1
 40
1
 10
38.087147
 20
26.093217
 30
0.0
 10
38.344382
 20
25.790975
 30
0.0
 10
38.540522
 20
25.453357
 30
0.0
 10
38.675569
 20
25.080365
 30
0.0
  0
SPLINE
  5
139
100
AcDbEntity
  8
Layer_1
 62
7
100
AcDbSpline
 70
8
 71
3
 72
8
 73
4
 74
0
 40
0
 40
0
 40
0
 40
0
 40
1
 40
1
 40
1
 40
1
 10
38.675569
 20
25.080365
 30
0.0
 10
38.810618
 20
24.713812
 30
0.0
 10
38.878142
 20
24.324742
 30
0.0
 10
38.878142
 20
23.913156
 30
0.0
  0
SPLINE
  5
13a
100
AcDbEntity
  8
Layer_1
 62
7
100
AcDbSpline
 70
8
 71
3
 72
8
 73
4
 74
0
 40
0
 40
0
 40
0
 40
0
 40
1
 40
1
 40
1
 40
1
 10
38.878142
 20
23.913156
 30
0.0
 10
38.878142
 20
22.498376
 30
0.0
 10
38.170749
 20
21.463017
 30
0.0
 10
36.755962
 20
20.807080
 30
0.0
  0
SPLINE
  5
13b
100
AcDbEntity
  8
Layer_1
 62
7
100
AcDbSpline
 70
8
 71
3
 72
8
 73
4
 74
0
 40
0
 40
0
 40
0
 40
0
 40
1
 40
1
 40
1
 40
1
 10
36.755962
 20
20.807080
 30
0.0
 10
38.614476
 20
20.215436
 30
0.0
 10
39.543733
 20
19.064314
 30
0.0
 10
39.543733
 20
17.353712
 30
0.0
  0
SPLINE
  5
13c
100
AcDbEntity
  8
Layer_1
 62
7
100
AcDbSpline
 70
8
 71
3
 72
8
 73
4
 74
0
 40
0
 40
0
 40
0
 40
0
 40
1
 40
1
 40
1
 40
1
 10
39.543733
 20
17.353712
 30
0.0
 10
39.543733
 20
16.562714
 30
0.0
 10
39.341162
 20
15.848885
 30
0.0
 10
38.936020
 20
15.212227
 30
0.0
  0
SPLINE
  5
13d
100
AcDbEntity
  8
Layer_1
 62
7
100
AcDbSpline
 70
8
 71
3
 72
8
 73
4
 74
0
 40
0
 40
0
 40
0
 40
0
 40
1
 40
1
 40
1
 40
1
 10
38.936020
 20
15.212227
 30
0.0
 10
38.530876
 20
14.582007
 30
0.0
 10
37.984254
 20
14.115776
 30
0.0
 10
37.296154
 20
13.813534
 30
0.0
  0
SPLINE
  5
13e
100
AcDbEntity
  8
Layer_1
 62
7
100
AcDbSpline
 70
8
 71
3
 72
8
 73
4
 74
0
 40
0
 40
0
 40
0
 40
0
 40
1
 40
1
 40
1
 40
1
 10
37.296154
 20
13.813534
 30
0.0
 10
36.865287
 20
13.633459
 30
0.0
 10
36.370112
 20
13.504836
 30
0.0
 10
35.810629
 20
13.427666
 30
0.0
  0
SPLINE
  5
13f
100
AcDbEntity
  8
Layer_1
 62
7
100
AcDbSpline
 70
8
 71
3
 72
8
 73
4
 74
0
 40
0
 40
0
 40
0
 40
0
 40
1
 40
1
 40
1
 40
1
 10
35.810629
 20
13.427666
 30
0.0
 10
35.251145
 20
13.356934
 30
0.0
 10
34.598414
 20
13.321568
 30
0.0
 10
33.852437
 20
13.321568
 30
0.0
  0
LINE
  5
140
100
AcDbEntity
  8
Layer_1
 62
7
100
AcDbLine
 10
33.852437
 20
13.321568
 30
0.0
 11
33.852437
 21
13.321568
 31
0.0
  0
LINE
  5
141
100
AcDbEntity
  8
Layer_1
 62
7
100
AcDbLine
 10
33.640218
 20
19.601294
 30
0.0
 11
30.659522
 21
19.601294
 31
0.0
  0
LINE
  5
142
100
AcDbEntity
  8
Layer_1
 62
7
100
AcDbLine
 10
30.659522
 20
19.601294
 30
0.0
 11
30.659522
 21
15.472683
 31
0.0
  0
LINE
  5
143
100
AcDbEntity
  8
Layer_1
 62
7
100
AcDbLine
 10
30.659522
 20
15.472683
 30
0.0
 11
33.736682
 21
15.472683
 31
0.0
  0
SPLINE
  5
144
100
AcDbEntity
  8
Layer_1
 62
7
100
AcDbSpline
 70
8
 71
3
 72
8
 73
4
 74
0
 40
0
 40
0
 40
0
 40
0
 40
1
 40
1
 40
1
 40
1
 10
33.736682
 20
15.472683
 30
0.0
 10
35.672365
 20
15.472683
 30
0.0
 10
36.640206
 20
16.170433
 30
0.0
 10
36.640206
 20
17.565934
 30
0.0
  0
SPLINE
  5
145
100
AcDbEntity
  8
Layer_1
 62
7
100
AcDbSpline
 70
8
 71
3
 72
8
 73
4
 74
0
 40
0
 40
0
 40
0
 40
0
 40
1
 40
1
 40
1
 40
1
 10
36.640206
 20
17.565934
 30
0.0
 10
36.640206
 20
18.279745
 30
0.0
 10
36.389403
 20
18.797420
 30
0.0
 10
35.887798
 20
19.118959
 30
0.0
  0
SPLINE
  5
146
100
AcDbEntity
  8
Layer_1
 62
7
100
AcDbSpline
 70
8
 71
3
 72
8
 73
4
 74
0
 40
0
 40
0
 40
0
 40
0
 40
1
 40
1
 40
1
 40
1
 10
35.887798
 20
19.118959
 30
0.0
 10
35.386192
 20
19.440516
 30
0.0
 10
34.636998
 20
19.601294
 30
0.0
 10
33.640218
 20
19.601294
 30
0.0
  0
LINE
  5
147
100
AcDbEntity
  8
Layer_1
 62
7
100
AcDbLine
 10
33.640218
 20
19.601294
 30
0.0
 11
33.640218
 21
19.601294
 31
0.0
  0
LINE
  5
148
100
AcDbEntity
  8
Layer_1
 62
7
100
AcDbLine
 10
30.659522
 20
25.311876
 30
0.0
 11
30.659522
 21
21.655943
 31
0.0
  0
LINE
  5
149
100
AcDbEntity
  8
Layer_1
 62
7
100
AcDbLine
 10
30.659522
 20
21.655943
 30
0.0
 11
33.283305
 21
21.655943
 31
0.0
  0
SPLINE
  5
14a
100
AcDbEntity
  8
Layer_1
 62
7
100
AcDbSpline
 70
8
 71
3
 72
8
 73
4
 74
0
 40
0
 40
0
 40
0
 40
0
 40
1
 40
1
 40
1
 40
1
 10
33.283305
 20
21.655943
 30
0.0
 10
33.997130
 20
21.655943
 30
0.0
 10
34.546968
 20
21.723464
 30
0.0
 10
34.932818
 20
21.858508
 30
0.0
  0
SPLINE
  5
14b
100
AcDbEntity
  8
Layer_1
 62
7
100
AcDbSpline
 70
8
 71
3
 72
8
 73
4
 74
0
 40
0
 40
0
 40
0
 40
0
 40
1
 40
1
 40
1
 40
1
 10
34.932818
 20
21.858508
 30
0.0
 10
35.325100
 20
21.993551
 30
0.0
 10
35.624134
 20
22.250788
 30
0.0
 10
35.829920
 20
22.630218
 30
0.0
  0
SPLINE
  5
14c
100
AcDbEntity
  8
Layer_1
 62
7
100
AcDbSpline
 70
8
 71
3
 72
8
 73
4
 74
0
 40
0
 40
0
 40
0
 40
0
 40
1
 40
1
 40
1
 40
1
 10
35.829920
 20
22.630218
 30
0.0
 10
35.990691
 20
22.900305
 30
0.0
 10
36.071077
 20
23.202556
 30
0.0
 10
36.071077
 20
23.536971
 30
0.0
  0
SPLINE
  5
14d
100
AcDbEntity
  8
Layer_1
 62
7
100
AcDbSpline
 70
8
 71
3
 72
8
 73
4
 74
0
 40
0
 40
0
 40
0
 40
0
 40
1
 40
1
 40
1
 40
1
 10
36.071077
 20
23.536971
 30
0.0
 10
36.071077
 20
24.250782
 30
0.0
 10
35.817059
 20
24.723443
 30
0.0
 10
35.309022
 20
24.954953
 30
0.0
  0
SPLINE
  5
14e
100
AcDbEntity
  8
Layer_1
 62
7
100
AcDbSpline
 70
8
 71
3
 72
8
 73
4
 74
0
 40
0
 40
0
 40
0
 40
0
 40
1
 40
1
 40
1
 40
1
 10
35.309022
 20
24.954953
 30
0.0
 10
34.800986
 20
25.192902
 30
0.0
 10
34.026070
 20
25.311876
 30
0.0
 10
32.984273
 20
25.311876
 30
0.0
  0
LINE
  5
14f
100
AcDbEntity
  8
Layer_1
 62
7
100
AcDbLine
 10
32.984273
 20
25.311876
 30
0.0
 11
30.659522
 21
25.311876
 31
0.0
  0
ENDSEC
  0
SECTION
  2
OBJECTS
  0
DICTIONARY
  5
C
330
0
100
AcDbDictionary
  3
ACAD_GROUP
350
D
  3
ACAD_MLINESTYLE
350
17
  0
DICTIONARY
  5
D
330
C
100
AcDbDictionary
  0
DICTIONARY
  5
1A
330
C
100
AcDbDictionary
  0
DICTIONARY
  5
17
330
C
100
AcDbDictionary
  3
STANDARD
350
18
  0
DICTIONARY
  5
19
330
C
100
AcDbDictionary
  0
ENDSEC
  0
EOF
