  0
SECTION
  2
HEADER
  9
$ACADVER
  1
AC1014
  9
$HANDSEED
  5
FFFF
  9
$MEASUREMENT
 70
     1
  0
ENDSEC
  0
SECTION
  2
TABLES
  0
TABLE
  2
VPORT
  5
8
330
0
100
AcDbSymbolTable
 70
     4
  0
VPORT
  5
2E
330
8
100
AcDbSymbolTableRecord
100
AcDbViewportTableRecord
  2
*ACTIVE
 70
     0
 10
0.0
 20
0.0
 11
1.0
 21
1.0
 12
210.0
 22
148.5
 13
0.0
 23
0.0
 14
10.0
 24
10.0
 15
10.0
 25
10.0
 16
0.0
 26
0.0
 36
1.0
 17
0.0
 27
0.0
 37
0.0
 40
341.0
 41
1.24
 42
50.0
 43
0.0
 44
0.0
 50
0.0
 51
0.0
 71
     0
 72
   100
 73
     1
 74
     3
 75
     0
 76
     0
 77
     0
 78
     0
  0
ENDTAB
  0
TABLE
  2
LTYPE
  5
5
330
0
100
AcDbSymbolTable
 70
     1
  0
LTYPE
  5
14
330
5
100
AcDbSymbolTableRecord
100
AcDbLinetypeTableRecord
  2
BYBLOCK
 70
     0
  3

 72
    65
 73
     0
 40
0.0
  0
LTYPE
  5
15
330
5
100
AcDbSymbolTableRecord
100
AcDbLinetypeTableRecord
  2
BYLAYER
 70
     0
  3

 72
    65
 73
     0
 40
0.0
  0
LTYPE
  5
16
330
5
100
AcDbSymbolTableRecord
100
AcDbLinetypeTableRecord
  2
CONTINUOUS
 70
     0
  3
Solid line
 72
    65
 73
     0
 40
0.0
  0
ENDTAB
  0
TABLE
  2
LAYER
  5
2
100
AcDbSymbolTable
 70
2
  0
LAYER
  5
50
100
AcDbSymbolTableRecord
100
AcDbLayerTableRecord
  2
0
 70
0
  6
CONTINUOUS
  0
LAYER
  5
51
100
AcDbSymbolTableRecord
100
AcDbLayerTableRecord
  2
Layer_1
 70
0
  6
CONTINUOUS
  0
ENDTAB
  0
TABLE
  2
STYLE
  5
3
330
0
100
AcDbSymbolTable
 70
     1
  0
STYLE
  5
11
330
3
100
AcDbSymbolTableRecord
100
AcDbTextStyleTableRecord
  2
STANDARD
 70
     0
 40
0.0
 41
1.0
 50
0.0
 71
     0
 42
2.5
  3
txt
  4

  0
ENDTAB
  0
TABLE
  2
VIEW
  5
6
330
0
100
AcDbSymbolTable
 70
     0
  0
ENDTAB
  0
TABLE
  2
UCS
  5
7
330
0
100
AcDbSymbolTable
 70
     0
  0
ENDTAB
  0
TABLE
  2
APPID
  5
9
330
0
100
AcDbSymbolTable
 70
     2
  0
APPID
  5
12
330
9
100
AcDbSymbolTableRecord
100
AcDbRegAppTableRecord
  2
ACAD
 70
     0
  0
ENDTAB
  0
TABLE
  2
DIMSTYLE
  5
A
330
0
100
AcDbSymbolTable
 70
     1
  0
DIMSTYLE
105
27
330
A
100
AcDbSymbolTableRecord
100
AcDbDimStyleTableRecord
  2
ISO-25
 70
     0
  3

  4

  5

  6

  7

 40
1.0
 41
2.5
 42
0.625
 43
3.75
 44
1.25
 45
0.0
 46
0.0
 47
0.0
 48
0.0
140
2.5
141
2.5
142
0.0
143
0.03937007874016
144
1.0
145
0.0
146
1.0
147
0.625
 71
     0
 72
     0
 73
     0
 74
     0
 75
     0
 76
     0
 77
     1
 78
     8
170
     0
171
     3
172
     1
173
     0
174
     0
175
     0
176
     0
177
     0
178
     0
270
     2
271
     2
272
     2
273
     2
274
     3
340
11
275
     0
280
     0
281
     0
282
     0
283
     0
284
     8
285
     0
286
     0
287
     3
288
     0
  0
ENDTAB
  0
TABLE
  2
BLOCK_RECORD
  5
1
330
0
100
AcDbSymbolTable
 70
     1
  0
BLOCK_RECORD
  5
1F
330
1
100
AcDbSymbolTableRecord
100
AcDbBlockTableRecord
  2
*MODEL_SPACE
  0
BLOCK_RECORD
  5
1B
330
1
100
AcDbSymbolTableRecord
100
AcDbBlockTableRecord
  2
*PAPER_SPACE
  0
ENDTAB
  0
ENDSEC
  0
SECTION
  2
BLOCKS
  0
BLOCK
  5
20
330
1F
100
AcDbEntity
  8
0
100
AcDbBlockBegin
  2
*MODEL_SPACE
 70
     0
 10
0.0
 20
0.0
 30
0.0
  3
*MODEL_SPACE
  1

  0
ENDBLK
  5
21
330
1F
100
AcDbEntity
  8
0
100
AcDbBlockEnd
  0
BLOCK
  5
1C
330
1B
100
AcDbEntity
 67
     1
  8
0
100
AcDbBlockBegin
  2
*PAPER_SPACE
  1

  0
ENDBLK
  5
1D
330
1B
100
AcDbEntity
 67
     1
  8
0
100
AcDbBlockEnd
  0
ENDSEC
  0
SECTION
  2
ENTITIES
  0
SPLINE
  5
100
100
AcDbEntity
  8
Layer_1
 62
7
100
AcDbSpline
 70
8
 71
3
 72
8
 73
4
 74
0
 40
0
 40
0
 40
0
 40
0
 40
1
 40
1
 40
1
 40
1
 10
1.284924
 20
1.412849
 30
0.0
 10
1.339964
 20
1.463752
 30
0.0
 10
2.784136
 20
2.070166
 30
0.0
 10
3.056222
 20
2.156624
 30
0.0
  0
SPLINE
  5
101
100
AcDbEntity
  8
Layer_1
 62
7
100
AcDbSpline
 70
8
 71
3
 72
8
 73
4
 74
0
 40
0
 40
0
 40
0
 40
0
 40
1
 40
1
 40
1
 40
1
 10
3.056222
 20
2.156624
 30
0.0
 10
3.205843
 20
2.204170
 30
0.0
 10
3.438628
 20
2.317967
 30
0.0
 10
3.573522
 20
2.409508
 30
0.0
  0
SPLINE
  5
102
100
AcDbEntity
  8
Layer_1
 62
7
100
AcDbSpline
 70
8
 71
3
 72
8
 73
4
 74
0
 40
0
 40
0
 40
0
 40
0
 40
1
 40
1
 40
1
 40
1
 10
3.573522
 20
2.409508
 30
0.0
 10
3.708416
 20
2.501051
 30
0.0
 10
3.856759
 20
2.575949
 30
0.0
 10
3.903172
 20
2.575949
 30
0.0
  0
SPLINE
  5
103
100
AcDbEntity
  8
Layer_1
 62
7
100
AcDbSpline
 70
8
 71
3
 72
8
 73
4
 74
0
 40
0
 40
0
 40
0
 40
0
 40
1
 40
1
 40
1
 40
1
 10
3.903172
 20
2.575949
 30
0.0
 10
4.057901
 20
2.575949
 30
0.0
 10
4.219276
 20
2.829139
 30
0.0
 10
4.219011
 20
3.071490
 30
0.0
  0
SPLINE
  5
104
100
AcDbEntity
  8
Layer_1
 62
7
100
AcDbSpline
 70
8
 71
3
 72
8
 73
4
 74
0
 40
0
 40
0
 40
0
 40
0
 40
1
 40
1
 40
1
 40
1
 10
4.219011
 20
3.071490
 30
0.0
 10
4.218867
 20
3.203218
 30
0.0
 10
4.150606
 20
3.421250
 30
0.0
 10
4.067321
 20
3.556008
 30
0.0
  0
SPLINE
  5
105
100
AcDbEntity
  8
Layer_1
 62
7
100
AcDbSpline
 70
8
 71
3
 72
8
 73
4
 74
0
 40
0
 40
0
 40
0
 40
0
 40
1
 40
1
 40
1
 40
1
 10
4.067321
 20
3.556008
 30
0.0
 10
3.984035
 20
3.690768
 30
0.0
 10
3.859618
 20
3.942784
 30
0.0
 10
3.790839
 20
4.116044
 30
0.0
  0
SPLINE
  5
106
100
AcDbEntity
  8
Layer_1
 62
7
100
AcDbSpline
 70
8
 71
3
 72
8
 73
4
 74
0
 40
0
 40
0
 40
0
 40
0
 40
1
 40
1
 40
1
 40
1
 10
3.790839
 20
4.116044
 30
0.0
 10
3.682413
 20
4.389181
 30
0.0
 10
3.665351
 20
4.405469
 30
0.0
 10
3.662512
 20
4.238551
 30
0.0
  0
SPLINE
  5
107
100
AcDbEntity
  8
Layer_1
 62
7
100
AcDbSpline
 70
8
 71
3
 72
8
 73
4
 74
0
 40
0
 40
0
 40
0
 40
0
 40
1
 40
1
 40
1
 40
1
 10
3.662512
 20
4.238551
 30
0.0
 10
3.660713
 20
4.132670
 30
0.0
 10
3.635612
 20
4.046037
 30
0.0
 10
3.606735
 20
4.046035
 30
0.0
  0
SPLINE
  5
108
100
AcDbEntity
  8
Layer_1
 62
7
100
AcDbSpline
 70
8
 71
3
 72
8
 73
4
 74
0
 40
0
 40
0
 40
0
 40
0
 40
1
 40
1
 40
1
 40
1
 10
3.606735
 20
4.046035
 30
0.0
 10
3.577858
 20
4.046032
 30
0.0
 10
3.557033
 20
4.140682
 30
0.0
 10
3.560458
 20
4.256371
 30
0.0
  0
SPLINE
  5
109
100
AcDbEntity
  8
Layer_1
 62
7
100
AcDbSpline
 70
8
 71
3
 72
8
 73
4
 74
0
 40
0
 40
0
 40
0
 40
0
 40
1
 40
1
 40
1
 40
1
 10
3.560458
 20
4.256371
 30
0.0
 10
3.563882
 20
4.372060
 30
0.0
 10
3.591863
 20
4.463878
 30
0.0
 10
3.622636
 20
4.460409
 30
0.0
  0
SPLINE
  5
10a
100
AcDbEntity
  8
Layer_1
 62
7
100
AcDbSpline
 70
8
 71
3
 72
8
 73
4
 74
0
 40
0
 40
0
 40
0
 40
0
 40
1
 40
1
 40
1
 40
1
 10
3.622636
 20
4.460409
 30
0.0
 10
3.653409
 20
4.456943
 30
0.0
 10
3.704040
 20
4.495292
 30
0.0
 10
3.735151
 20
4.545629
 30
0.0
  0
SPLINE
  5
10b
100
AcDbEntity
  8
Layer_1
 62
7
100
AcDbSpline
 70
8
 71
3
 72
8
 73
4
 74
0
 40
0
 40
0
 40
0
 40
0
 40
1
 40
1
 40
1
 40
1
 10
3.735151
 20
4.545629
 30
0.0
 10
3.777696
 20
4.614468
 30
0.0
 10
3.802090
 20
4.602938
 30
0.0
 10
3.833577
 20
4.499105
 30
0.0
  0
SPLINE
  5
10c
100
AcDbEntity
  8
Layer_1
 62
7
100
AcDbSpline
 70
8
 71
3
 72
8
 73
4
 74
0
 40
0
 40
0
 40
0
 40
0
 40
1
 40
1
 40
1
 40
1
 10
3.833577
 20
4.499105
 30
0.0
 10
3.969317
 20
4.051480
 30
0.0
 10
4.341336
 20
3.452003
 30
0.0
 10
4.664809
 20
3.159649
 30
0.0
  0
SPLINE
  5
10d
100
AcDbEntity
  8
Layer_1
 62
7
100
AcDbSpline
 70
8
 71
3
 72
8
 73
4
 74
0
 40
0
 40
0
 40
0
 40
0
 40
1
 40
1
 40
1
 40
1
 10
4.664809
 20
3.159649
 30
0.0
 10
4.862541
 20
2.980936
 30
0.0
 10
4.945568
 20
2.874939
 30
0.0
 10
4.849312
 20
2.924096
 30
0.0
  0
SPLINE
  5
10e
100
AcDbEntity
  8
Layer_1
 62
7
100
AcDbSpline
 70
8
 71
3
 72
8
 73
4
 74
0
 40
0
 40
0
 40
0
 40
0
 40
1
 40
1
 40
1
 40
1
 10
4.849312
 20
2.924096
 30
0.0
 10
4.753056
 20
2.973250
 30
0.0
 10
4.603421
 20
3.078028
 30
0.0
 10
4.516791
 20
3.156934
 30
0.0
  0
LINE
  5
10f
100
AcDbEntity
  8
Layer_1
 62
7
100
AcDbLine
 10
4.516791
 20
3.156934
 30
0.0
 11
4.359281
 21
3.300397
 31
0.0
  0
LINE
  5
110
100
AcDbEntity
  8
Layer_1
 62
7
100
AcDbLine
 10
4.359281
 20
3.300397
 30
0.0
 11
4.348325
 21
3.025677
 31
0.0
  0
SPLINE
  5
111
100
AcDbEntity
  8
Layer_1
 62
7
100
AcDbSpline
 70
8
 71
3
 72
8
 73
4
 74
0
 40
0
 40
0
 40
0
 40
0
 40
1
 40
1
 40
1
 40
1
 10
4.348325
 20
3.025677
 30
0.0
 10
4.342298
 20
2.874581
 30
0.0
 10
4.328164
 20
2.656454
 30
0.0
 10
4.316916
 20
2.540945
 30
0.0
  0
SPLINE
  5
112
100
AcDbEntity
  8
Layer_1
 62
7
100
AcDbSpline
 70
8
 71
3
 72
8
 73
4
 74
0
 40
0
 40
0
 40
0
 40
0
 40
1
 40
1
 40
1
 40
1
 10
4.316916
 20
2.540945
 30
0.0
 10
4.280535
 20
2.167358
 30
0.0
 10
4.368349
 20
1.805869
 30
0.0
 10
4.547080
 20
1.593458
 30
0.0
  0
SPLINE
  5
113
100
AcDbEntity
  8
Layer_1
 62
7
100
AcDbSpline
 70
8
 71
3
 72
8
 73
4
 74
0
 40
0
 40
0
 40
0
 40
0
 40
1
 40
1
 40
1
 40
1
 10
4.547080
 20
1.593458
 30
0.0
 10
4.669700
 20
1.447731
 30
0.0
 10
4.691838
 20
1.385874
 30
0.0
 10
4.621370
 20
1.385874
 30
0.0
  0
SPLINE
  5
114
100
AcDbEntity
  8
Layer_1
 62
7
100
AcDbSpline
 70
8
 71
3
 72
8
 73
4
 74
0
 40
0
 40
0
 40
0
 40
0
 40
1
 40
1
 40
1
 40
1
 10
4.621370
 20
1.385874
 30
0.0
 10
4.566161
 20
1.385874
 30
0.0
 10
4.471922
 20
1.441003
 30
0.0
 10
4.411950
 20
1.508382
 30
0.0
  0
SPLINE
  5
115
100
AcDbEntity
  8
Layer_1
 62
7
100
AcDbSpline
 70
8
 71
3
 72
8
 73
4
 74
0
 40
0
 40
0
 40
0
 40
0
 40
1
 40
1
 40
1
 40
1
 10
4.411950
 20
1.508382
 30
0.0
 10
4.275029
 20
1.662213
 30
0.0
 10
4.066702
 20
2.356406
 30
0.0
 10
4.125745
 20
2.462080
 30
0.0
  0
SPLINE
  5
116
100
AcDbEntity
  8
Layer_1
 62
7
100
AcDbSpline
 70
8
 71
3
 72
8
 73
4
 74
0
 40
0
 40
0
 40
0
 40
0
 40
1
 40
1
 40
1
 40
1
 10
4.125745
 20
2.462080
 30
0.0
 10
4.150684
 20
2.506718
 30
0.0
 10
4.128893
 20
2.502969
 30
0.0
 10
4.075534
 20
2.453455
 30
0.0
  0
SPLINE
  5
117
100
AcDbEntity
  8
Layer_1
 62
7
100
AcDbSpline
 70
8
 71
3
 72
8
 73
4
 74
0
 40
0
 40
0
 40
0
 40
0
 40
1
 40
1
 40
1
 40
1
 10
4.075534
 20
2.453455
 30
0.0
 10
4.023683
 20
2.405324
 30
0.0
 10
3.938205
 20
2.365949
 30
0.0
 10
3.885582
 20
2.365949
 30
0.0
  0
SPLINE
  5
118
100
AcDbEntity
  8
Layer_1
 62
7
100
AcDbSpline
 70
8
 71
3
 72
8
 73
4
 74
0
 40
0
 40
0
 40
0
 40
0
 40
1
 40
1
 40
1
 40
1
 10
3.885582
 20
2.365949
 30
0.0
 10
3.832961
 20
2.365949
 30
0.0
 10
3.689626
 20
2.292982
 30
0.0
 10
3.567063
 20
2.203799
 30
0.0
  0
SPLINE
  5
119
100
AcDbEntity
  8
Layer_1
 62
7
100
AcDbSpline
 70
8
 71
3
 72
8
 73
4
 74
0
 40
0
 40
0
 40
0
 40
0
 40
1
 40
1
 40
1
 40
1
 10
3.567063
 20
2.203799
 30
0.0
 10
3.444499
 20
2.114619
 30
0.0
 10
3.155208
 20
1.984917
 30
0.0
 10
2.924194
 20
1.915575
 30
0.0
  0
SPLINE
  5
11a
100
AcDbEntity
  8
Layer_1
 62
7
100
AcDbSpline
 70
8
 71
3
 72
8
 73
4
 74
0
 40
0
 40
0
 40
0
 40
0
 40
1
 40
1
 40
1
 40
1
 10
2.924194
 20
1.915575
 30
0.0
 10
2.693179
 20
1.846231
 30
0.0
 10
2.302923
 20
1.698683
 30
0.0
 10
2.056958
 20
1.587690
 30
0.0
  0
SPLINE
  5
11b
100
AcDbEntity
  8
Layer_1
 62
7
100
AcDbSpline
 70
8
 71
3
 72
8
 73
4
 74
0
 40
0
 40
0
 40
0
 40
0
 40
1
 40
1
 40
1
 40
1
 10
2.056958
 20
1.587690
 30
0.0
 10
1.810992
 20
1.476698
 30
0.0
 10
1.530100
 20
1.385887
 30
0.0
 10
1.432752
 20
1.385887
 30
0.0
  0
SPLINE
  5
11c
100
AcDbEntity
  8
Layer_1
 62
7
100
AcDbSpline
 70
8
 71
3
 72
8
 73
4
 74
0
 40
0
 40
0
 40
0
 40
0
 40
1
 40
1
 40
1
 40
1
 10
1.432752
 20
1.385887
 30
0.0
 10
1.335405
 20
1.385887
 30
0.0
 10
1.268883
 20
1.398032
 30
0.0
 10
1.284925
 20
1.412862
 30
0.0
  0
LINE
  5
11d
100
AcDbEntity
  8
Layer_1
 62
7
100
AcDbLine
 10
1.284925
 20
1.412862
 30
0.0
 11
1.284924
 21
1.412849
 31
0.0
  0
SPLINE
  5
11e
100
AcDbEntity
  8
Layer_1
 62
7
100
AcDbSpline
 70
8
 71
3
 72
8
 73
4
 74
0
 40
0
 40
0
 40
0
 40
0
 40
1
 40
1
 40
1
 40
1
 10
7.283350
 20
1.567820
 30
0.0
 10
7.504574
 20
1.742165
 30
0.0
 10
7.719489
 20
2.066779
 30
0.0
 10
7.719489
 20
2.226583
 30
0.0
  0
SPLINE
  5
11f
100
AcDbEntity
  8
Layer_1
 62
7
100
AcDbSpline
 70
8
 71
3
 72
8
 73
4
 74
0
 40
0
 40
0
 40
0
 40
0
 40
1
 40
1
 40
1
 40
1
 10
7.719489
 20
2.226583
 30
0.0
 10
7.719489
 20
2.269268
 30
0.0
 10
7.690164
 20
2.286069
 30
0.0
 10
7.654323
 20
2.263918
 30
0.0
  0
SPLINE
  5
120
100
AcDbEntity
  8
Layer_1
 62
7
100
AcDbSpline
 70
8
 71
3
 72
8
 73
4
 74
0
 40
0
 40
0
 40
0
 40
0
 40
1
 40
1
 40
1
 40
1
 10
7.654323
 20
2.263918
 30
0.0
 10
7.618480
 20
2.241772
 30
0.0
 10
7.566360
 20
2.260531
 30
0.0
 10
7.538500
 20
2.305606
 30
0.0
  0
SPLINE
  5
121
100
AcDbEntity
  8
Layer_1
 62
7
100
AcDbSpline
 70
8
 71
3
 72
8
 73
4
 74
0
 40
0
 40
0
 40
0
 40
0
 40
1
 40
1
 40
1
 40
1
 10
7.538500
 20
2.305606
 30
0.0
 10
7.508014
 20
2.354932
 30
0.0
 10
7.518100
 20
2.368867
 30
0.0
 10
7.563828
 20
2.340607
 30
0.0
  0
SPLINE
  5
122
100
AcDbEntity
  8
Layer_1
 62
7
100
AcDbSpline
 70
8
 71
3
 72
8
 73
4
 74
0
 40
0
 40
0
 40
0
 40
0
 40
1
 40
1
 40
1
 40
1
 10
7.563828
 20
2.340607
 30
0.0
 10
7.605619
 20
2.314784
 30
0.0
 10
7.658338
 20
2.323621
 30
0.0
 10
7.680981
 20
2.360266
 30
0.0
  0
SPLINE
  5
123
100
AcDbEntity
  8
Layer_1
 62
7
100
AcDbSpline
 70
8
 71
3
 72
8
 73
4
 74
0
 40
0
 40
0
 40
0
 40
0
 40
1
 40
1
 40
1
 40
1
 10
7.680981
 20
2.360266
 30
0.0
 10
7.703624
 20
2.396903
 30
0.0
 10
7.619169
 20
2.436794
 30
0.0
 10
7.493305
 20
2.448915
 30
0.0
  0
SPLINE
  5
124
100
AcDbEntity
  8
Layer_1
 62
7
100
AcDbSpline
 70
8
 71
3
 72
8
 73
4
 74
0
 40
0
 40
0
 40
0
 40
0
 40
1
 40
1
 40
1
 40
1
 10
7.493305
 20
2.448915
 30
0.0
 10
7.311903
 20
2.466377
 30
0.0
 10
7.239089
 20
2.521741
 30
0.0
 10
7.142064
 20
2.715964
 30
0.0
  0
SPLINE
  5
125
100
AcDbEntity
  8
Layer_1
 62
7
100
AcDbSpline
 70
8
 71
3
 72
8
 73
4
 74
0
 40
0
 40
0
 40
0
 40
0
 40
1
 40
1
 40
1
 40
1
 10
7.142064
 20
2.715964
 30
0.0
 10
6.991744
 20
3.016869
 30
0.0
 10
6.979786
 20
3.910637
 30
0.0
 10
7.121926
 20
4.221057
 30
0.0
  0
SPLINE
  5
126
100
AcDbEntity
  8
Layer_1
 62
7
100
AcDbSpline
 70
8
 71
3
 72
8
 73
4
 74
0
 40
0
 40
0
 40
0
 40
0
 40
1
 40
1
 40
1
 40
1
 10
7.121926
 20
4.221057
 30
0.0
 10
7.184647
 20
4.358037
 30
0.0
 10
7.220067
 20
4.388466
 30
0.0
 10
7.223775
 20
4.308562
 30
0.0
  0
SPLINE
  5
127
100
AcDbEntity
  8
Layer_1
 62
7
100
AcDbSpline
 70
8
 71
3
 72
8
 73
4
 74
0
 40
0
 40
0
 40
0
 40
0
 40
1
 40
1
 40
1
 40
1
 10
7.223775
 20
4.308562
 30
0.0
 10
7.226902
 20
4.241184
 30
0.0
 10
7.280571
 20
4.186055
 30
0.0
 10
7.343039
 20
4.186055
 30
0.0
  0
SPLINE
  5
128
100
AcDbEntity
  8
Layer_1
 62
7
100
AcDbSpline
 70
8
 71
3
 72
8
 73
4
 74
0
 40
0
 40
0
 40
0
 40
0
 40
1
 40
1
 40
1
 40
1
 10
7.343039
 20
4.186055
 30
0.0
 10
7.436060
 20
4.186055
 30
0.0
 10
7.440844
 20
4.205052
 30
0.0
 10
7.369471
 20
4.291063
 30
0.0
  0
SPLINE
  5
129
100
AcDbEntity
  8
Layer_1
 62
7
100
AcDbSpline
 70
8
 71
3
 72
8
 73
4
 74
0
 40
0
 40
0
 40
0
 40
0
 40
1
 40
1
 40
1
 40
1
 10
7.369471
 20
4.291063
 30
0.0
 10
7.306683
 20
4.366718
 30
0.0
 10
7.304901
 20
4.396068
 30
0.0
 10
7.363094
 20
4.396068
 30
0.0
  0
SPLINE
  5
12a
100
AcDbEntity
  8
Layer_1
 62
7
100
AcDbSpline
 70
8
 71
3
 72
8
 73
4
 74
0
 40
0
 40
0
 40
0
 40
0
 40
1
 40
1
 40
1
 40
1
 10
7.363094
 20
4.396068
 30
0.0
 10
7.407520
 20
4.396068
 30
0.0
 10
7.463508
 20
4.340939
 30
0.0
 10
7.487514
 20
4.273561
 30
0.0
  0
SPLINE
  5
12b
100
AcDbEntity
  8
Layer_1
 62
7
100
AcDbSpline
 70
8
 71
3
 72
8
 73
4
 74
0
 40
0
 40
0
 40
0
 40
0
 40
1
 40
1
 40
1
 40
1
 10
7.487514
 20
4.273561
 30
0.0
 10
7.511520
 20
4.206182
 30
0.0
 10
7.612912
 20
4.080211
 30
0.0
 10
7.712831
 20
3.993623
 30
0.0
  0
SPLINE
  5
12c
100
AcDbEntity
  8
Layer_1
 62
7
100
AcDbSpline
 70
8
 71
3
 72
8
 73
4
 74
0
 40
0
 40
0
 40
0
 40
0
 40
1
 40
1
 40
1
 40
1
 10
7.712831
 20
3.993623
 30
0.0
 10
7.860386
 20
3.865756
 30
0.0
 10
7.868210
 20
3.844779
 30
0.0
 10
7.754493
 20
3.881916
 30
0.0
  0
SPLINE
  5
12d
100
AcDbEntity
  8
Layer_1
 62
7
100
AcDbSpline
 70
8
 71
3
 72
8
 73
4
 74
0
 40
0
 40
0
 40
0
 40
0
 40
1
 40
1
 40
1
 40
1
 10
7.754493
 20
3.881916
 30
0.0
 10
7.641064
 20
3.918958
 30
0.0
 10
7.654354
 20
3.883768
 30
0.0
 10
7.824497
 20
3.695999
 30
0.0
  0
SPLINE
  5
12e
100
AcDbEntity
  8
Layer_1
 62
7
100
AcDbSpline
 70
8
 71
3
 72
8
 73
4
 74
0
 40
0
 40
0
 40
0
 40
0
 40
1
 40
1
 40
1
 40
1
 10
7.824497
 20
3.695999
 30
0.0
 10
7.940004
 20
3.568597
 30
0.0
 10
7.995133
 20
3.486841
 30
0.0
 10
7.947005
 20
3.514320
 30
0.0
  0
SPLINE
  5
12f
100
AcDbEntity
  8
Layer_1
 62
7
100
AcDbSpline
 70
8
 71
3
 72
8
 73
4
 74
0
 40
0
 40
0
 40
0
 40
0
 40
1
 40
1
 40
1
 40
1
 10
7.947005
 20
3.514320
 30
0.0
 10
7.823839
 20
3.584639
 30
0.0
 10
7.837710
 20
3.451236
 30
0.0
 10
7.964507
 20
3.346003
 30
0.0
  0
SPLINE
  5
130
100
AcDbEntity
  8
Layer_1
 62
7
100
AcDbSpline
 70
8
 71
3
 72
8
 73
4
 74
0
 40
0
 40
0
 40
0
 40
0
 40
1
 40
1
 40
1
 40
1
 10
7.964507
 20
3.346003
 30
0.0
 10
8.083132
 20
3.247554
 30
0.0
 10
8.105827
 20
3.065986
 30
0.0
 10
7.999509
 20
3.065986
 30
0.0
  0
SPLINE
  5
131
100
AcDbEntity
  8
Layer_1
 62
7
100
AcDbSpline
 70
8
 71
3
 72
8
 73
4
 74
0
 40
0
 40
0
 40
0
 40
0
 40
1
 40
1
 40
1
 40
1
 10
7.999509
 20
3.065986
 30
0.0
 10
7.961006
 20
3.065986
 30
0.0
 10
7.929505
 20
3.018734
 30
0.0
 10
7.929505
 20
2.960979
 30
0.0
  0
SPLINE
  5
132
100
AcDbEntity
  8
Layer_1
 62
7
100
AcDbSpline
 70
8
 71
3
 72
8
 73
4
 74
0
 40
0
 40
0
 40
0
 40
0
 40
1
 40
1
 40
1
 40
1
 10
7.929505
 20
2.960979
 30
0.0
 10
7.929505
 20
2.903225
 30
0.0
 10
7.975769
 20
2.855973
 30
0.0
 10
8.032314
 20
2.855973
 30
0.0
  0
SPLINE
  5
133
100
AcDbEntity
  8
Layer_1
 62
7
100
AcDbSpline
 70
8
 71
3
 72
8
 73
4
 74
0
 40
0
 40
0
 40
0
 40
0
 40
1
 40
1
 40
1
 40
1
 10
8.032314
 20
2.855973
 30
0.0
 10
8.095324
 20
2.855973
 30
0.0
 10
8.119392
 20
2.814979
 30
0.0
 10
8.094487
 20
2.750077
 30
0.0
  0
SPLINE
  5
134
100
AcDbEntity
  8
Layer_1
 62
7
100
AcDbSpline
 70
8
 71
3
 72
8
 73
4
 74
0
 40
0
 40
0
 40
0
 40
0
 40
1
 40
1
 40
1
 40
1
 10
8.094487
 20
2.750077
 30
0.0
 10
8.072137
 20
2.691831
 30
0.0
 10
8.083985
 20
2.605201
 30
0.0
 10
8.120818
 20
2.557563
 30
0.0
  0
SPLINE
  5
135
100
AcDbEntity
  8
Layer_1
 62
7
100
AcDbSpline
 70
8
 71
3
 72
8
 73
4
 74
0
 40
0
 40
0
 40
0
 40
0
 40
1
 40
1
 40
1
 40
1
 10
8.120818
 20
2.557563
 30
0.0
 10
8.199809
 20
2.455402
 30
0.0
 10
8.287316
 20
2.225934
 30
0.0
 10
8.247286
 20
2.225934
 30
0.0
  0
SPLINE
  5
136
100
AcDbEntity
  8
Layer_1
 62
7
100
AcDbSpline
 70
8
 71
3
 72
8
 73
4
 74
0
 40
0
 40
0
 40
0
 40
0
 40
1
 40
1
 40
1
 40
1
 10
8.247286
 20
2.225934
 30
0.0
 10
8.231971
 20
2.225934
 30
0.0
 10
8.128027
 20
2.361382
 30
0.0
 10
8.016299
 20
2.526932
 30
0.0
  0
SPLINE
  5
137
100
AcDbEntity
  8
Layer_1
 62
7
100
AcDbSpline
 70
8
 71
3
 72
8
 73
4
 74
0
 40
0
 40
0
 40
0
 40
0
 40
1
 40
1
 40
1
 40
1
 10
8.016299
 20
2.526932
 30
0.0
 10
7.775939
 20
2.883077
 30
0.0
 10
7.682524
 20
3.165155
 30
0.0
 10
7.822761
 20
3.111341
 30
0.0
  0
SPLINE
  5
138
100
AcDbEntity
  8
Layer_1
 62
7
100
AcDbSpline
 70
8
 71
3
 72
8
 73
4
 74
0
 40
0
 40
0
 40
0
 40
0
 40
1
 40
1
 40
1
 40
1
 10
7.822761
 20
3.111341
 30
0.0
 10
7.873941
 20
3.091709
 30
0.0
 10
7.933756
 20
3.093588
 30
0.0
 10
7.955684
 20
3.115495
 30
0.0
  0
SPLINE
  5
139
100
AcDbEntity
  8
Layer_1
 62
7
100
AcDbSpline
 70
8
 71
3
 72
8
 73
4
 74
0
 40
0
 40
0
 40
0
 40
0
 40
1
 40
1
 40
1
 40
1
 10
7.955684
 20
3.115495
 30
0.0
 10
8.003598
 20
3.163411
 30
0.0
 10
7.712162
 20
3.483078
 30
0.0
 10
7.618996
 20
3.484798
 30
0.0
  0
SPLINE
  5
13a
100
AcDbEntity
  8
Layer_1
 62
7
100
AcDbSpline
 70
8
 71
3
 72
8
 73
4
 74
0
 40
0
 40
0
 40
0
 40
0
 40
1
 40
1
 40
1
 40
1
 10
7.618996
 20
3.484798
 30
0.0
 10
7.582975
 20
3.485592
 30
0.0
 10
7.483572
 20
3.551706
 30
0.0
 10
7.398100
 20
3.632002
 30
0.0
  0
LINE
  5
13b
100
AcDbEntity
  8
Layer_1
 62
7
100
AcDbLine
 10
7.398100
 20
3.632002
 30
0.0
 11
7.242695
 21
3.777996
 31
0.0
  0
LINE
  5
13c
100
AcDbEntity
  8
Layer_1
 62
7
100
AcDbLine
 10
7.242695
 20
3.777996
 30
0.0
 11
7.194426
 21
3.625916
 31
0.0
  0
SPLINE
  5
13d
100
AcDbEntity
  8
Layer_1
 62
7
100
AcDbSpline
 70
8
 71
3
 72
8
 73
4
 74
0
 40
0
 40
0
 40
0
 40
0
 40
1
 40
1
 40
1
 40
1
 10
7.194426
 20
3.625916
 30
0.0
 10
7.149977
 20
3.485867
 30
0.0
 10
7.184700
 20
3.138617
 30
0.0
 10
7.273290
 20
2.837278
 30
0.0
  0
SPLINE
  5
13e
100
AcDbEntity
  8
Layer_1
 62
7
100
AcDbSpline
 70
8
 71
3
 72
8
 73
4
 74
0
 40
0
 40
0
 40
0
 40
0
 40
1
 40
1
 40
1
 40
1
 10
7.273290
 20
2.837278
 30
0.0
 10
7.308727
 20
2.716736
 30
0.0
 10
7.777662
 20
2.470777
 30
0.0
 10
7.844539
 20
2.537656
 30
0.0
  0
SPLINE
  5
13f
100
AcDbEntity
  8
Layer_1
 62
7
100
AcDbSpline
 70
8
 71
3
 72
8
 73
4
 74
0
 40
0
 40
0
 40
0
 40
0
 40
1
 40
1
 40
1
 40
1
 10
7.844539
 20
2.537656
 30
0.0
 10
7.862989
 20
2.556097
 30
0.0
 10
7.937276
 20
2.495955
 30
0.0
 10
8.009620
 20
2.403983
 30
0.0
  0
SPLINE
  5
140
100
AcDbEntity
  8
Layer_1
 62
7
100
AcDbSpline
 70
8
 71
3
 72
8
 73
4
 74
0
 40
0
 40
0
 40
0
 40
0
 40
1
 40
1
 40
1
 40
1
 10
8.009620
 20
2.403983
 30
0.0
 10
8.081964
 20
2.312014
 30
0.0
 10
8.396776
 20
2.107480
 30
0.0
 10
8.709204
 20
1.949463
 30
0.0
  0
SPLINE
  5
141
100
AcDbEntity
  8
Layer_1
 62
7
100
AcDbSpline
 70
8
 71
3
 72
8
 73
4
 74
0
 40
0
 40
0
 40
0
 40
0
 40
1
 40
1
 40
1
 40
1
 10
8.709204
 20
1.949463
 30
0.0
 10
9.372277
 20
1.614099
 30
0.0
 10
9.695482
 20
1.385877
 30
0.0
 10
9.507348
 20
1.385877
 30
0.0
  0
SPLINE
  5
142
100
AcDbEntity
  8
Layer_1
 62
7
100
AcDbSpline
 70
8
 71
3
 72
8
 73
4
 74
0
 40
0
 40
0
 40
0
 40
0
 40
1
 40
1
 40
1
 40
1
 10
9.507348
 20
1.385877
 30
0.0
 10
9.440720
 20
1.385877
 30
0.0
 10
9.300771
 20
1.446710
 30
0.0
 10
9.196351
 20
1.521066
 30
0.0
  0
SPLINE
  5
143
100
AcDbEntity
  8
Layer_1
 62
7
100
AcDbSpline
 70
8
 71
3
 72
8
 73
4
 74
0
 40
0
 40
0
 40
0
 40
0
 40
1
 40
1
 40
1
 40
1
 10
9.196351
 20
1.521066
 30
0.0
 10
9.091931
 20
1.595419
 30
0.0
 10
8.866555
 20
1.711344
 30
0.0
 10
8.695514
 20
1.778672
 30
0.0
  0
SPLINE
  5
144
100
AcDbEntity
  8
Layer_1
 62
7
100
AcDbSpline
 70
8
 71
3
 72
8
 73
4
 74
0
 40
0
 40
0
 40
0
 40
0
 40
1
 40
1
 40
1
 40
1
 10
8.695514
 20
1.778672
 30
0.0
 10
8.524474
 20
1.846006
 30
0.0
 10
8.269433
 20
1.972662
 30
0.0
 10
8.128757
 20
2.060133
 30
0.0
  0
LINE
  5
145
100
AcDbEntity
  8
Layer_1
 62
7
100
AcDbLine
 10
8.128757
 20
2.060133
 30
0.0
 11
7.872982
 21
2.219174
 31
0.0
  0
LINE
  5
146
100
AcDbEntity
  8
Layer_1
 62
7
100
AcDbLine
 10
7.872982
 20
2.219174
 30
0.0
 11
7.831126
 21
2.052405
 31
0.0
  0
SPLINE
  5
147
100
AcDbEntity
  8
Layer_1
 62
7
100
AcDbSpline
 70
8
 71
3
 72
8
 73
4
 74
0
 40
0
 40
0
 40
0
 40
0
 40
1
 40
1
 40
1
 40
1
 10
7.831126
 20
2.052405
 30
0.0
 10
7.774102
 20
1.825202
 30
0.0
 10
7.348340
 20
1.385697
 30
0.0
 10
7.186192
 20
1.386652
 30
0.0
  0
SPLINE
  5
148
100
AcDbEntity
  8
Layer_1
 62
7
100
AcDbSpline
 70
8
 71
3
 72
8
 73
4
 74
0
 40
0
 40
0
 40
0
 40
0
 40
1
 40
1
 40
1
 40
1
 10
7.186192
 20
1.386652
 30
0.0
 10
7.082007
 20
1.387181
 30
0.0
 10
7.102331
 20
1.425165
 30
0.0
 10
7.283351
 20
1.567823
 30
0.0
  0
LINE
  5
149
100
AcDbEntity
  8
Layer_1
 62
7
100
AcDbLine
 10
7.283351
 20
1.567823
 30
0.0
 11
7.283350
 21
1.567820
 31
0.0
  0
SPLINE
  5
14a
100
AcDbEntity
  8
Layer_1
 62
7
100
AcDbSpline
 70
8
 71
3
 72
8
 73
4
 74
0
 40
0
 40
0
 40
0
 40
0
 40
1
 40
1
 40
1
 40
1
 10
7.789494
 20
3.626014
 30
0.0
 10
7.789494
 20
3.664516
 30
0.0
 10
7.756133
 20
3.696017
 30
0.0
 10
7.715358
 20
3.696017
 30
0.0
  0
SPLINE
  5
14b
100
AcDbEntity
  8
Layer_1
 62
7
100
AcDbSpline
 70
8
 71
3
 72
8
 73
4
 74
0
 40
0
 40
0
 40
0
 40
0
 40
1
 40
1
 40
1
 40
1
 10
7.715358
 20
3.696017
 30
0.0
 10
7.674583
 20
3.696017
 30
0.0
 10
7.660692
 20
3.664516
 30
0.0
 10
7.684487
 20
3.626014
 30
0.0
  0
SPLINE
  5
14c
100
AcDbEntity
  8
Layer_1
 62
7
100
AcDbSpline
 70
8
 71
3
 72
8
 73
4
 74
0
 40
0
 40
0
 40
0
 40
0
 40
1
 40
1
 40
1
 40
1
 10
7.684487
 20
3.626014
 30
0.0
 10
7.708284
 20
3.587512
 30
0.0
 10
7.741645
 20
3.556008
 30
0.0
 10
7.758623
 20
3.556008
 30
0.0
  0
SPLINE
  5
14d
100
AcDbEntity
  8
Layer_1
 62
7
100
AcDbSpline
 70
8
 71
3
 72
8
 73
4
 74
0
 40
0
 40
0
 40
0
 40
0
 40
1
 40
1
 40
1
 40
1
 10
7.758623
 20
3.556008
 30
0.0
 10
7.775602
 20
3.556008
 30
0.0
 10
7.789494
 20
3.587512
 30
0.0
 10
7.789494
 20
3.626014
 30
0.0
  0
LINE
  5
14e
100
AcDbEntity
  8
Layer_1
 62
7
100
AcDbLine
 10
7.789494
 20
3.626014
 30
0.0
 11
7.789494
 21
3.626014
 31
0.0
  0
SPLINE
  5
14f
100
AcDbEntity
  8
Layer_1
 62
7
100
AcDbSpline
 70
8
 71
3
 72
8
 73
4
 74
0
 40
0
 40
0
 40
0
 40
0
 40
1
 40
1
 40
1
 40
1
 10
7.579481
 20
3.696017
 30
0.0
 10
7.579481
 20
3.734520
 30
0.0
 10
7.546120
 20
3.766021
 30
0.0
 10
7.505345
 20
3.766021
 30
0.0
  0
SPLINE
  5
150
100
AcDbEntity
  8
Layer_1
 62
7
100
AcDbSpline
 70
8
 71
3
 72
8
 73
4
 74
0
 40
0
 40
0
 40
0
 40
0
 40
1
 40
1
 40
1
 40
1
 10
7.505345
 20
3.766021
 30
0.0
 10
7.464570
 20
3.766021
 30
0.0
 10
7.450679
 20
3.734520
 30
0.0
 10
7.474474
 20
3.696017
 30
0.0
  0
SPLINE
  5
151
100
AcDbEntity
  8
Layer_1
 62
7
100
AcDbSpline
 70
8
 71
3
 72
8
 73
4
 74
0
 40
0
 40
0
 40
0
 40
0
 40
1
 40
1
 40
1
 40
1
 10
7.474474
 20
3.696017
 30
0.0
 10
7.498271
 20
3.657515
 30
0.0
 10
7.531632
 20
3.626014
 30
0.0
 10
7.548610
 20
3.626014
 30
0.0
  0
SPLINE
  5
152
100
AcDbEntity
  8
Layer_1
 62
7
100
AcDbSpline
 70
8
 71
3
 72
8
 73
4
 74
0
 40
0
 40
0
 40
0
 40
0
 40
1
 40
1
 40
1
 40
1
 10
7.548610
 20
3.626014
 30
0.0
 10
7.565589
 20
3.626014
 30
0.0
 10
7.579481
 20
3.657515
 30
0.0
 10
7.579481
 20
3.696017
 30
0.0
  0
LINE
  5
153
100
AcDbEntity
  8
Layer_1
 62
7
100
AcDbLine
 10
7.579481
 20
3.696017
 30
0.0
 11
7.579481
 21
3.696017
 31
0.0
  0
SPLINE
  5
154
100
AcDbEntity
  8
Layer_1
 62
7
100
AcDbSpline
 70
8
 71
3
 72
8
 73
4
 74
0
 40
0
 40
0
 40
0
 40
0
 40
1
 40
1
 40
1
 40
1
 10
3.660642
 20
2.822654
 30
0.0
 10
3.709345
 20
2.881339
 30
0.0
 10
3.763610
 20
2.914936
 30
0.0
 10
3.781230
 20
2.897317
 30
0.0
  0
SPLINE
  5
155
100
AcDbEntity
  8
Layer_1
 62
7
100
AcDbSpline
 70
8
 71
3
 72
8
 73
4
 74
0
 40
0
 40
0
 40
0
 40
0
 40
1
 40
1
 40
1
 40
1
 10
3.781230
 20
2.897317
 30
0.0
 10
3.829778
 20
2.848769
 30
0.0
 10
3.731139
 20
2.715956
 30
0.0
 10
3.646535
 20
2.715956
 30
0.0
  0
SPLINE
  5
156
100
AcDbEntity
  8
Layer_1
 62
7
100
AcDbSpline
 70
8
 71
3
 72
8
 73
4
 74
0
 40
0
 40
0
 40
0
 40
0
 40
1
 40
1
 40
1
 40
1
 10
3.646535
 20
2.715956
 30
0.0
 10
3.600115
 20
2.715956
 30
0.0
 10
3.605426
 20
2.756125
 30
0.0
 10
3.660642
 20
2.822654
 30
0.0
  0
LINE
  5
157
100
AcDbEntity
  8
Layer_1
 62
7
100
AcDbLine
 10
3.660642
 20
2.822654
 30
0.0
 11
3.660642
 21
2.822654
 31
0.0
  0
SPLINE
  5
158
100
AcDbEntity
  8
Layer_1
 62
7
100
AcDbSpline
 70
8
 71
3
 72
8
 73
4
 74
0
 40
0
 40
0
 40
0
 40
0
 40
1
 40
1
 40
1
 40
1
 10
5.846671
 20
2.887141
 30
0.0
 10
5.952442
 20
2.942317
 30
0.0
 10
6.078450
 20
3.007527
 30
0.0
 10
6.126689
 20
3.032054
 30
0.0
  0
SPLINE
  5
159
100
AcDbEntity
  8
Layer_1
 62
7
100
AcDbSpline
 70
8
 71
3
 72
8
 73
4
 74
0
 40
0
 40
0
 40
0
 40
0
 40
1
 40
1
 40
1
 40
1
 10
6.126689
 20
3.032054
 30
0.0
 10
6.174928
 20
3.056580
 30
0.0
 10
6.140027
 20
3.011231
 30
0.0
 10
6.049131
 20
2.931303
 30
0.0
  0
SPLINE
  5
15a
100
AcDbEntity
  8
Layer_1
 62
7
100
AcDbSpline
 70
8
 71
3
 72
8
 73
4
 74
0
 40
0
 40
0
 40
0
 40
0
 40
1
 40
1
 40
1
 40
1
 10
6.049131
 20
2.931303
 30
0.0
 10
5.958235
 20
2.851364
 30
0.0
 10
5.832228
 20
2.786155
 30
0.0
 10
5.769114
 20
2.786393
 30
0.0
  0
SPLINE
  5
15b
100
AcDbEntity
  8
Layer_1
 62
7
100
AcDbSpline
 70
8
 71
3
 72
8
 73
4
 74
0
 40
0
 40
0
 40
0
 40
0
 40
1
 40
1
 40
1
 40
1
 10
5.769114
 20
2.786393
 30
0.0
 10
5.698468
 20
2.786658
 30
0.0
 10
5.728279
 20
2.825382
 30
0.0
 10
5.846671
 20
2.887141
 30
0.0
  0
LINE
  5
15c
100
AcDbEntity
  8
Layer_1
 62
7
100
AcDbLine
 10
5.846671
 20
2.887141
 30
0.0
 11
5.846671
 21
2.887141
 31
0.0
  0
SPLINE
  5
15d
100
AcDbEntity
  8
Layer_1
 62
7
100
AcDbSpline
 70
8
 71
3
 72
8
 73
4
 74
0
 40
0
 40
0
 40
0
 40
0
 40
1
 40
1
 40
1
 40
1
 10
3.694240
 20
3.205988
 30
0.0
 10
3.670443
 20
3.244490
 30
0.0
 10
3.684337
 20
3.275991
 30
0.0
 10
3.725111
 20
3.275991
 30
0.0
  0
SPLINE
  5
15e
100
AcDbEntity
  8
Layer_1
 62
7
100
AcDbSpline
 70
8
 71
3
 72
8
 73
4
 74
0
 40
0
 40
0
 40
0
 40
0
 40
1
 40
1
 40
1
 40
1
 10
3.725111
 20
3.275991
 30
0.0
 10
3.765885
 20
3.275991
 30
0.0
 10
3.799247
 20
3.244490
 30
0.0
 10
3.799247
 20
3.205988
 30
0.0
  0
SPLINE
  5
15f
100
AcDbEntity
  8
Layer_1
 62
7
100
AcDbSpline
 70
8
 71
3
 72
8
 73
4
 74
0
 40
0
 40
0
 40
0
 40
0
 40
1
 40
1
 40
1
 40
1
 10
3.799247
 20
3.205988
 30
0.0
 10
3.799247
 20
3.167486
 30
0.0
 10
3.785356
 20
3.135982
 30
0.0
 10
3.768376
 20
3.135982
 30
0.0
  0
SPLINE
  5
160
100
AcDbEntity
  8
Layer_1
 62
7
100
AcDbSpline
 70
8
 71
3
 72
8
 73
4
 74
0
 40
0
 40
0
 40
0
 40
0
 40
1
 40
1
 40
1
 40
1
 10
3.768376
 20
3.135982
 30
0.0
 10
3.751397
 20
3.135982
 30
0.0
 10
3.718036
 20
3.167486
 30
0.0
 10
3.694240
 20
3.205988
 30
0.0
  0
LINE
  5
161
100
AcDbEntity
  8
Layer_1
 62
7
100
AcDbLine
 10
3.694240
 20
3.205988
 30
0.0
 11
3.694240
 21
3.205988
 31
0.0
  0
SPLINE
  5
162
100
AcDbEntity
  8
Layer_1
 62
7
100
AcDbSpline
 70
8
 71
3
 72
8
 73
4
 74
0
 40
0
 40
0
 40
0
 40
0
 40
1
 40
1
 40
1
 40
1
 10
3.423909
 20
3.591010
 30
0.0
 10
3.446730
 20
3.650477
 30
0.0
 10
3.425523
 20
3.696017
 30
0.0
 10
3.375043
 20
3.696017
 30
0.0
  0
SPLINE
  5
163
100
AcDbEntity
  8
Layer_1
 62
7
100
AcDbSpline
 70
8
 71
3
 72
8
 73
4
 74
0
 40
0
 40
0
 40
0
 40
0
 40
1
 40
1
 40
1
 40
1
 10
3.375043
 20
3.696017
 30
0.0
 10
3.326004
 20
3.696017
 30
0.0
 10
3.304846
 20
3.714988
 30
0.0
 10
3.328024
 20
3.738160
 30
0.0
  0
SPLINE
  5
164
100
AcDbEntity
  8
Layer_1
 62
7
100
AcDbSpline
 70
8
 71
3
 72
8
 73
4
 74
0
 40
0
 40
0
 40
0
 40
0
 40
1
 40
1
 40
1
 40
1
 10
3.328024
 20
3.738160
 30
0.0
 10
3.351201
 20
3.761338
 30
0.0
 10
3.435007
 20
3.734880
 30
0.0
 10
3.514257
 20
3.679378
 30
0.0
  0
SPLINE
  5
165
100
AcDbEntity
  8
Layer_1
 62
7
100
AcDbSpline
 70
8
 71
3
 72
8
 73
4
 74
0
 40
0
 40
0
 40
0
 40
0
 40
1
 40
1
 40
1
 40
1
 10
3.514257
 20
3.679378
 30
0.0
 10
3.660135
 20
3.577201
 30
0.0
 10
3.641506
 20
3.486004
 30
0.0
 10
3.474757
 20
3.486004
 30
0.0
  0
SPLINE
  5
166
100
AcDbEntity
  8
Layer_1
 62
7
100
AcDbSpline
 70
8
 71
3
 72
8
 73
4
 74
0
 40
0
 40
0
 40
0
 40
0
 40
1
 40
1
 40
1
 40
1
 10
3.474757
 20
3.486004
 30
0.0
 10
3.422502
 20
3.486004
 30
0.0
 10
3.400807
 20
3.530806
 30
0.0
 10
3.423909
 20
3.591010
 30
0.0
  0
LINE
  5
167
100
AcDbEntity
  8
Layer_1
 62
7
100
AcDbLine
 10
3.423909
 20
3.591010
 30
0.0
 11
3.423909
 21
3.591010
 31
0.0
  0
SPLINE
  5
168
100
AcDbEntity
  8
Layer_1
 62
7
100
AcDbSpline
 70
8
 71
3
 72
8
 73
4
 74
0
 40
0
 40
0
 40
0
 40
0
 40
1
 40
1
 40
1
 40
1
 10
3.310288
 20
4.199416
 30
0.0
 10
3.309706
 20
4.264525
 30
0.0
 10
3.340718
 20
4.337262
 30
0.0
 10
3.379220
 20
4.361058
 30
0.0
  0
SPLINE
  5
169
100
AcDbEntity
  8
Layer_1
 62
7
100
AcDbSpline
 70
8
 71
3
 72
8
 73
4
 74
0
 40
0
 40
0
 40
0
 40
0
 40
1
 40
1
 40
1
 40
1
 10
3.379220
 20
4.361058
 30
0.0
 10
3.467818
 20
4.415814
 30
0.0
 10
3.467818
 20
4.323143
 30
0.0
 10
3.379220
 20
4.186047
 30
0.0
  0
SPLINE
  5
16a
100
AcDbEntity
  8
Layer_1
 62
7
100
AcDbSpline
 70
8
 71
3
 72
8
 73
4
 74
0
 40
0
 40
0
 40
0
 40
0
 40
1
 40
1
 40
1
 40
1
 10
3.379220
 20
4.186047
 30
0.0
 10
3.320739
 20
4.095554
 30
0.0
 10
3.311212
 20
4.097401
 30
0.0
 10
3.310288
 20
4.199408
 30
0.0
  0
LINE
  5
16b
100
AcDbEntity
  8
Layer_1
 62
7
100
AcDbLine
 10
3.310288
 20
4.199408
 30
0.0
 11
3.310288
 21
4.199416
 31
0.0
  0
SPLINE
  5
16c
100
AcDbEntity
  8
Layer_1
 62
7
100
AcDbSpline
 70
8
 71
3
 72
8
 73
4
 74
0
 40
0
 40
0
 40
0
 40
0
 40
1
 40
1
 40
1
 40
1
 10
4.919316
 20
4.158189
 30
0.0
 10
4.919316
 20
4.175995
 30
0.0
 10
4.990195
 20
4.221202
 30
0.0
 10
5.076826
 20
4.258654
 30
0.0
  0
SPLINE
  5
16d
100
AcDbEntity
  8
Layer_1
 62
7
100
AcDbSpline
 70
8
 71
3
 72
8
 73
4
 74
0
 40
0
 40
0
 40
0
 40
0
 40
1
 40
1
 40
1
 40
1
 10
5.076826
 20
4.258654
 30
0.0
 10
5.204987
 20
4.314058
 30
0.0
 10
5.190311
 20
4.318765
 30
0.0
 10
4.998064
 20
4.283922
 30
0.0
  0
SPLINE
  5
16e
100
AcDbEntity
  8
Layer_1
 62
7
100
AcDbSpline
 70
8
 71
3
 72
8
 73
4
 74
0
 40
0
 40
0
 40
0
 40
0
 40
1
 40
1
 40
1
 40
1
 10
4.998064
 20
4.283922
 30
0.0
 10
4.848153
 20
4.256744
 30
0.0
 10
4.777626
 20
4.266724
 30
0.0
 10
4.805113
 20
4.311184
 30
0.0
  0
SPLINE
  5
16f
100
AcDbEntity
  8
Layer_1
 62
7
100
AcDbSpline
 70
8
 71
3
 72
8
 73
4
 74
0
 40
0
 40
0
 40
0
 40
0
 40
1
 40
1
 40
1
 40
1
 10
4.805113
 20
4.311184
 30
0.0
 10
4.828938
 20
4.349737
 30
0.0
 10
4.966764
 20
4.395258
 30
0.0
 10
5.111389
 20
4.412348
 30
0.0
  0
SPLINE
  5
170
100
AcDbEntity
  8
Layer_1
 62
7
100
AcDbSpline
 70
8
 71
3
 72
8
 73
4
 74
0
 40
0
 40
0
 40
0
 40
0
 40
1
 40
1
 40
1
 40
1
 10
5.111389
 20
4.412348
 30
0.0
 10
5.256014
 20
4.429440
 30
0.0
 10
5.434640
 20
4.469617
 30
0.0
 10
5.508336
 20
4.501642
 30
0.0
  0
SPLINE
  5
171
100
AcDbEntity
  8
Layer_1
 62
7
100
AcDbSpline
 70
8
 71
3
 72
8
 73
4
 74
0
 40
0
 40
0
 40
0
 40
0
 40
1
 40
1
 40
1
 40
1
 10
5.508336
 20
4.501642
 30
0.0
 10
5.603594
 20
4.543039
 30
0.0
 10
5.627695
 20
4.536194
 30
0.0
 10
5.591710
 20
4.477962
 30
0.0
  0
SPLINE
  5
172
100
AcDbEntity
  8
Layer_1
 62
7
100
AcDbSpline
 70
8
 71
3
 72
8
 73
4
 74
0
 40
0
 40
0
 40
0
 40
0
 40
1
 40
1
 40
1
 40
1
 10
5.591710
 20
4.477962
 30
0.0
 10
5.556759
 20
4.421410
 30
0.0
 10
5.623625
 20
4.393110
 30
0.0
 10
5.807740
 20
4.386527
 30
0.0
  0
SPLINE
  5
173
100
AcDbEntity
  8
Layer_1
 62
7
100
AcDbSpline
 70
8
 71
3
 72
8
 73
4
 74
0
 40
0
 40
0
 40
0
 40
0
 40
1
 40
1
 40
1
 40
1
 10
5.807740
 20
4.386527
 30
0.0
 10
5.969932
 20
4.380733
 30
0.0
 10
6.012686
 20
4.365096
 30
0.0
 10
5.916878
 20
4.346657
 30
0.0
  0
SPLINE
  5
174
100
AcDbEntity
  8
Layer_1
 62
7
100
AcDbSpline
 70
8
 71
3
 72
8
 73
4
 74
0
 40
0
 40
0
 40
0
 40
0
 40
1
 40
1
 40
1
 40
1
 10
5.916878
 20
4.346657
 30
0.0
 10
5.830247
 20
4.329962
 30
0.0
 10
5.759368
 20
4.286560
 30
0.0
 10
5.759368
 20
4.250185
 30
0.0
  0
SPLINE
  5
175
100
AcDbEntity
  8
Layer_1
 62
7
100
AcDbSpline
 70
8
 71
3
 72
8
 73
4
 74
0
 40
0
 40
0
 40
0
 40
0
 40
1
 40
1
 40
1
 40
1
 10
5.759368
 20
4.250185
 30
0.0
 10
5.759368
 20
4.213812
 30
0.0
 10
5.670583
 20
4.199692
 30
0.0
 10
5.562067
 20
4.218810
 30
0.0
  0
SPLINE
  5
176
100
AcDbEntity
  8
Layer_1
 62
7
100
AcDbSpline
 70
8
 71
3
 72
8
 73
4
 74
0
 40
0
 40
0
 40
0
 40
0
 40
1
 40
1
 40
1
 40
1
 10
5.562067
 20
4.218810
 30
0.0
 10
5.453551
 20
4.237940
 30
0.0
 10
5.264539
 20
4.224816
 30
0.0
 10
5.142041
 20
4.189693
 30
0.0
  0
SPLINE
  5
177
100
AcDbEntity
  8
Layer_1
 62
7
100
AcDbSpline
 70
8
 71
3
 72
8
 73
4
 74
0
 40
0
 40
0
 40
0
 40
0
 40
1
 40
1
 40
1
 40
1
 10
5.142041
 20
4.189693
 30
0.0
 10
5.019542
 20
4.154562
 30
0.0
 10
4.919316
 20
4.140385
 30
0.0
 10
4.919316
 20
4.158189
 30
0.0
  0
LINE
  5
178
100
AcDbEntity
  8
Layer_1
 62
7
100
AcDbLine
 10
4.919316
 20
4.158189
 30
0.0
 11
4.919316
 21
4.158189
 31
0.0
  0
SPLINE
  5
179
100
AcDbEntity
  8
Layer_1
 62
7
100
AcDbSpline
 70
8
 71
3
 72
8
 73
4
 74
0
 40
0
 40
0
 40
0
 40
0
 40
1
 40
1
 40
1
 40
1
 10
4.431619
 20
4.281720
 30
0.0
 10
4.329950
 20
4.383389
 30
0.0
 10
4.341289
 20
4.676537
 30
0.0
 10
4.446788
 20
4.673851
 30
0.0
  0
SPLINE
  5
17a
100
AcDbEntity
  8
Layer_1
 62
7
100
AcDbSpline
 70
8
 71
3
 72
8
 73
4
 74
0
 40
0
 40
0
 40
0
 40
0
 40
1
 40
1
 40
1
 40
1
 10
4.446788
 20
4.673851
 30
0.0
 10
4.619361
 20
4.669459
 30
0.0
 10
4.793051
 20
4.479637
 30
0.0
 10
4.749641
 20
4.342866
 30
0.0
  0
SPLINE
  5
17b
100
AcDbEntity
  8
Layer_1
 62
7
100
AcDbSpline
 70
8
 71
3
 72
8
 73
4
 74
0
 40
0
 40
0
 40
0
 40
0
 40
1
 40
1
 40
1
 40
1
 10
4.749641
 20
4.342866
 30
0.0
 10
4.703454
 20
4.197342
 30
0.0
 10
4.546227
 20
4.167113
 30
0.0
 10
4.431620
 20
4.281720
 30
0.0
  0
LINE
  5
17c
100
AcDbEntity
  8
Layer_1
 62
7
100
AcDbLine
 10
4.431620
 20
4.281720
 30
0.0
 11
4.431619
 21
4.281720
 31
0.0
  0
SPLINE
  5
17d
100
AcDbEntity
  8
Layer_1
 62
7
100
AcDbSpline
 70
8
 71
3
 72
8
 73
4
 74
0
 40
0
 40
0
 40
0
 40
0
 40
1
 40
1
 40
1
 40
1
 10
6.266899
 20
4.237196
 30
0.0
 10
6.218771
 20
4.253997
 30
0.0
 10
6.179394
 20
4.310351
 30
0.0
 10
6.179394
 20
4.362458
 30
0.0
  0
SPLINE
  5
17e
100
AcDbEntity
  8
Layer_1
 62
7
100
AcDbSpline
 70
8
 71
3
 72
8
 73
4
 74
0
 40
0
 40
0
 40
0
 40
0
 40
1
 40
1
 40
1
 40
1
 10
6.179394
 20
4.362458
 30
0.0
 10
6.179394
 20
4.416880
 30
0.0
 10
6.082576
 20
4.469209
 30
0.0
 10
5.951880
 20
4.485428
 30
0.0
  0
SPLINE
  5
17f
100
AcDbEntity
  8
Layer_1
 62
7
100
AcDbSpline
 70
8
 71
3
 72
8
 73
4
 74
0
 40
0
 40
0
 40
0
 40
0
 40
1
 40
1
 40
1
 40
1
 10
5.951880
 20
4.485428
 30
0.0
 10
5.724924
 20
4.513593
 30
0.0
 10
5.725001
 20
4.513691
 30
0.0
 10
5.983404
 20
4.524867
 30
0.0
  0
SPLINE
  5
180
100
AcDbEntity
  8
Layer_1
 62
7
100
AcDbSpline
 70
8
 71
3
 72
8
 73
4
 74
0
 40
0
 40
0
 40
0
 40
0
 40
1
 40
1
 40
1
 40
1
 10
5.983404
 20
4.524867
 30
0.0
 10
6.141643
 20
4.531720
 30
0.0
 10
6.267448
 20
4.580755
 30
0.0
 10
6.306706
 20
4.650904
 30
0.0
  0
SPLINE
  5
181
100
AcDbEntity
  8
Layer_1
 62
7
100
AcDbSpline
 70
8
 71
3
 72
8
 73
4
 74
0
 40
0
 40
0
 40
0
 40
0
 40
1
 40
1
 40
1
 40
1
 10
6.306706
 20
4.650904
 30
0.0
 10
6.397374
 20
4.812919
 30
0.0
 10
6.529416
 20
4.705321
 30
0.0
 10
6.529416
 20
4.469424
 30
0.0
  0
SPLINE
  5
182
100
AcDbEntity
  8
Layer_1
 62
7
100
AcDbSpline
 70
8
 71
3
 72
8
 73
4
 74
0
 40
0
 40
0
 40
0
 40
0
 40
1
 40
1
 40
1
 40
1
 10
6.529416
 20
4.469424
 30
0.0
 10
6.529416
 20
4.269706
 30
0.0
 10
6.428818
 20
4.180716
 30
0.0
 10
6.266899
 20
4.237196
 30
0.0
  0
LINE
  5
183
100
AcDbEntity
  8
Layer_1
 62
7
100
AcDbLine
 10
6.266899
 20
4.237196
 30
0.0
 11
6.266899
 21
4.237196
 31
0.0
  0
SPLINE
  5
184
100
AcDbEntity
  8
Layer_1
 62
7
100
AcDbSpline
 70
8
 71
3
 72
8
 73
4
 74
0
 40
0
 40
0
 40
0
 40
0
 40
1
 40
1
 40
1
 40
1
 10
7.574125
 20
4.903592
 30
0.0
 10
7.523874
 20
5.067787
 30
0.0
 10
7.533683
 20
5.215932
 30
0.0
 10
7.600104
 20
5.295966
 30
0.0
  0
SPLINE
  5
185
100
AcDbEntity
  8
Layer_1
 62
7
100
AcDbSpline
 70
8
 71
3
 72
8
 73
4
 74
0
 40
0
 40
0
 40
0
 40
0
 40
1
 40
1
 40
1
 40
1
 10
7.600104
 20
5.295966
 30
0.0
 10
7.645577
 20
5.350756
 30
0.0
 10
7.673564
 20
5.465929
 30
0.0
 10
7.662298
 20
5.551903
 30
0.0
  0
SPLINE
  5
186
100
AcDbEntity
  8
Layer_1
 62
7
100
AcDbSpline
 70
8
 71
3
 72
8
 73
4
 74
0
 40
0
 40
0
 40
0
 40
0
 40
1
 40
1
 40
1
 40
1
 10
7.662298
 20
5.551903
 30
0.0
 10
7.636483
 20
5.748906
 30
0.0
 10
7.828671
 20
5.834409
 30
0.0
 10
7.929393
 20
5.670733
 30
0.0
  0
SPLINE
  5
187
100
AcDbEntity
  8
Layer_1
 62
7
100
AcDbSpline
 70
8
 71
3
 72
8
 73
4
 74
0
 40
0
 40
0
 40
0
 40
0
 40
1
 40
1
 40
1
 40
1
 10
7.929393
 20
5.670733
 30
0.0
 10
7.985744
 20
5.579160
 30
0.0
 10
7.999996
 20
5.575739
 30
0.0
 10
7.990208
 20
5.656128
 30
0.0
  0
SPLINE
  5
188
100
AcDbEntity
  8
Layer_1
 62
7
100
AcDbSpline
 70
8
 71
3
 72
8
 73
4
 74
0
 40
0
 40
0
 40
0
 40
0
 40
1
 40
1
 40
1
 40
1
 10
7.990208
 20
5.656128
 30
0.0
 10
7.970502
 20
5.817984
 30
0.0
 10
8.073610
 20
6.006150
 30
0.0
 10
8.182007
 20
6.006150
 30
0.0
  0
SPLINE
  5
189
100
AcDbEntity
  8
Layer_1
 62
7
100
AcDbSpline
 70
8
 71
3
 72
8
 73
4
 74
0
 40
0
 40
0
 40
0
 40
0
 40
1
 40
1
 40
1
 40
1
 10
8.182007
 20
6.006150
 30
0.0
 10
8.235641
 20
6.006150
 30
0.0
 10
8.279524
 20
5.974649
 30
0.0
 10
8.279524
 20
5.936147
 30
0.0
  0
SPLINE
  5
18a
100
AcDbEntity
  8
Layer_1
 62
7
100
AcDbSpline
 70
8
 71
3
 72
8
 73
4
 74
0
 40
0
 40
0
 40
0
 40
0
 40
1
 40
1
 40
1
 40
1
 10
8.279524
 20
5.936147
 30
0.0
 10
8.279524
 20
5.897645
 30
0.0
 10
8.350403
 20
5.867257
 30
0.0
 10
8.437034
 20
5.868622
 30
0.0
  0
SPLINE
  5
18b
100
AcDbEntity
  8
Layer_1
 62
7
100
AcDbSpline
 70
8
 71
3
 72
8
 73
4
 74
0
 40
0
 40
0
 40
0
 40
0
 40
1
 40
1
 40
1
 40
1
 10
8.437034
 20
5.868622
 30
0.0
 10
8.592899
 20
5.871004
 30
0.0
 10
8.592731
 20
5.872115
 30
0.0
 10
8.420944
 20
5.967201
 30
0.0
  0
SPLINE
  5
18c
100
AcDbEntity
  8
Layer_1
 62
7
100
AcDbSpline
 70
8
 71
3
 72
8
 73
4
 74
0
 40
0
 40
0
 40
0
 40
0
 40
1
 40
1
 40
1
 40
1
 10
8.420944
 20
5.967201
 30
0.0
 10
8.256087
 20
6.058461
 30
0.0
 10
8.247273
 20
6.095389
 30
0.0
 10
8.245933
 20
6.700449
 30
0.0
  0
SPLINE
  5
18d
100
AcDbEntity
  8
Layer_1
 62
7
100
AcDbSpline
 70
8
 71
3
 72
8
 73
4
 74
0
 40
0
 40
0
 40
0
 40
0
 40
1
 40
1
 40
1
 40
1
 10
8.245933
 20
6.700449
 30
0.0
 10
8.244796
 20
7.209560
 30
0.0
 10
8.263674
 20
7.330268
 30
0.0
 10
8.339822
 20
7.301119
 30
0.0
  0
SPLINE
  5
18e
100
AcDbEntity
  8
Layer_1
 62
7
100
AcDbSpline
 70
8
 71
3
 72
8
 73
4
 74
0
 40
0
 40
0
 40
0
 40
0
 40
1
 40
1
 40
1
 40
1
 10
8.339822
 20
7.301119
 30
0.0
 10
8.404323
 20
7.276433
 30
0.0
 10
8.421291
 20
7.300590
 30
0.0
 10
8.392325
 20
7.376165
 30
0.0
  0
SPLINE
  5
18f
100
AcDbEntity
  8
Layer_1
 62
7
100
AcDbSpline
 70
8
 71
3
 72
8
 73
4
 74
0
 40
0
 40
0
 40
0
 40
0
 40
1
 40
1
 40
1
 40
1
 10
8.392325
 20
7.376165
 30
0.0
 10
8.368788
 20
7.437506
 30
0.0
 10
8.349528
 20
7.502726
 30
0.0
 10
8.349528
 20
7.521101
 30
0.0
  0
SPLINE
  5
190
100
AcDbEntity
  8
Layer_1
 62
7
100
AcDbSpline
 70
8
 71
3
 72
8
 73
4
 74
0
 40
0
 40
0
 40
0
 40
0
 40
1
 40
1
 40
1
 40
1
 10
8.349528
 20
7.521101
 30
0.0
 10
8.349528
 20
7.539463
 30
0.0
 10
8.318027
 20
7.535045
 30
0.0
 10
8.279524
 20
7.511232
 30
0.0
  0
SPLINE
  5
191
100
AcDbEntity
  8
Layer_1
 62
7
100
AcDbSpline
 70
8
 71
3
 72
8
 73
4
 74
0
 40
0
 40
0
 40
0
 40
0
 40
1
 40
1
 40
1
 40
1
 10
8.279524
 20
7.511232
 30
0.0
 10
8.241022
 20
7.487446
 30
0.0
 10
8.209520
 20
7.514831
 30
0.0
 10
8.209520
 20
7.572105
 30
0.0
  0
SPLINE
  5
192
100
AcDbEntity
  8
Layer_1
 62
7
100
AcDbSpline
 70
8
 71
3
 72
8
 73
4
 74
0
 40
0
 40
0
 40
0
 40
0
 40
1
 40
1
 40
1
 40
1
 10
8.209520
 20
7.572105
 30
0.0
 10
8.209520
 20
7.629382
 30
0.0
 10
8.167191
 20
7.718573
 30
0.0
 10
8.115456
 20
7.770307
 30
0.0
  0
SPLINE
  5
193
100
AcDbEntity
  8
Layer_1
 62
7
100
AcDbSpline
 70
8
 71
3
 72
8
 73
4
 74
0
 40
0
 40
0
 40
0
 40
0
 40
1
 40
1
 40
1
 40
1
 10
8.115456
 20
7.770307
 30
0.0
 10
8.063721
 20
7.822044
 30
0.0
 10
7.932407
 20
8.005331
 30
0.0
 10
7.823648
 20
8.177617
 30
0.0
  0
SPLINE
  5
194
100
AcDbEntity
  8
Layer_1
 62
7
100
AcDbSpline
 70
8
 71
3
 72
8
 73
4
 74
0
 40
0
 40
0
 40
0
 40
0
 40
1
 40
1
 40
1
 40
1
 10
7.823648
 20
8.177617
 30
0.0
 10
7.270671
 20
9.053589
 30
0.0
 10
6.588790
 20
9.411107
 30
0.0
 10
5.549355
 20
9.370055
 30
0.0
  0
SPLINE
  5
195
100
AcDbEntity
  8
Layer_1
 62
7
100
AcDbSpline
 70
8
 71
3
 72
8
 73
4
 74
0
 40
0
 40
0
 40
0
 40
0
 40
1
 40
1
 40
1
 40
1
 10
5.549355
 20
9.370055
 30
0.0
 10
5.107075
 20
9.352592
 30
0.0
 10
4.526585
 20
9.045062
 30
0.0
 10
4.134055
 20
8.620271
 30
0.0
  0
SPLINE
  5
196
100
AcDbEntity
  8
Layer_1
 62
7
100
AcDbSpline
 70
8
 71
3
 72
8
 73
4
 74
0
 40
0
 40
0
 40
0
 40
0
 40
1
 40
1
 40
1
 40
1
 10
4.134055
 20
8.620271
 30
0.0
 10
4.007664
 20
8.483494
 30
0.0
 10
3.824135
 20
8.284475
 30
0.0
 10
3.726213
 20
8.178009
 30
0.0
  0
SPLINE
  5
197
100
AcDbEntity
  8
Layer_1
 62
7
100
AcDbSpline
 70
8
 71
3
 72
8
 73
4
 74
0
 40
0
 40
0
 40
0
 40
0
 40
1
 40
1
 40
1
 40
1
 10
3.726213
 20
8.178009
 30
0.0
 10
3.628291
 20
8.071543
 30
0.0
 10
3.560044
 20
7.948824
 30
0.0
 10
3.574552
 20
7.905300
 30
0.0
  0
SPLINE
  5
198
100
AcDbEntity
  8
Layer_1
 62
7
100
AcDbSpline
 70
8
 71
3
 72
8
 73
4
 74
0
 40
0
 40
0
 40
0
 40
0
 40
1
 40
1
 40
1
 40
1
 10
3.574552
 20
7.905300
 30
0.0
 10
3.608752
 20
7.802700
 30
0.0
 10
3.433516
 20
7.406227
 30
0.0
 10
3.353967
 20
7.406227
 30
0.0
  0
SPLINE
  5
199
100
AcDbEntity
  8
Layer_1
 62
7
100
AcDbSpline
 70
8
 71
3
 72
8
 73
4
 74
0
 40
0
 40
0
 40
0
 40
0
 40
1
 40
1
 40
1
 40
1
 10
3.353967
 20
7.406227
 30
0.0
 10
3.320373
 20
7.406227
 30
0.0
 10
3.309363
 20
7.469230
 30
0.0
 10
3.329501
 20
7.546234
 30
0.0
  0
SPLINE
  5
19a
100
AcDbEntity
  8
Layer_1
 62
7
100
AcDbSpline
 70
8
 71
3
 72
8
 73
4
 74
0
 40
0
 40
0
 40
0
 40
0
 40
1
 40
1
 40
1
 40
1
 10
3.329501
 20
7.546234
 30
0.0
 10
3.374453
 20
7.718134
 30
0.0
 10
3.250203
 20
7.734382
 30
0.0
 10
3.195666
 20
7.563723
 30
0.0
  0
SPLINE
  5
19b
100
AcDbEntity
  8
Layer_1
 62
7
100
AcDbSpline
 70
8
 71
3
 72
8
 73
4
 74
0
 40
0
 40
0
 40
0
 40
0
 40
1
 40
1
 40
1
 40
1
 10
3.195666
 20
7.563723
 30
0.0
 10
3.106152
 20
7.283640
 30
0.0
 10
2.999168
 20
7.126195
 30
0.0
 10
2.898363
 20
7.126195
 30
0.0
  0
SPLINE
  5
19c
100
AcDbEntity
  8
Layer_1
 62
7
100
AcDbSpline
 70
8
 71
3
 72
8
 73
4
 74
0
 40
0
 40
0
 40
0
 40
0
 40
1
 40
1
 40
1
 40
1
 10
2.898363
 20
7.126195
 30
0.0
 10
2.819150
 20
7.126195
 30
0.0
 10
2.811677
 20
7.146674
 30
0.0
 10
2.869720
 20
7.204731
 30
0.0
  0
SPLINE
  5
19d
100
AcDbEntity
  8
Layer_1
 62
7
100
AcDbSpline
 70
8
 71
3
 72
8
 73
4
 74
0
 40
0
 40
0
 40
0
 40
0
 40
1
 40
1
 40
1
 40
1
 10
2.869720
 20
7.204731
 30
0.0
 10
2.912914
 20
7.247924
 30
0.0
 10
2.940128
 20
7.318804
 30
0.0
 10
2.930196
 20
7.362240
 30
0.0
  0
SPLINE
  5
19e
100
AcDbEntity
  8
Layer_1
 62
7
100
AcDbSpline
 70
8
 71
3
 72
8
 73
4
 74
0
 40
0
 40
0
 40
0
 40
0
 40
1
 40
1
 40
1
 40
1
 10
2.930196
 20
7.362240
 30
0.0
 10
2.920264
 20
7.405677
 30
0.0
 10
2.925352
 20
7.417588
 30
0.0
 10
2.941499
 20
7.388712
 30
0.0
  0
SPLINE
  5
19f
100
AcDbEntity
  8
Layer_1
 62
7
100
AcDbSpline
 70
8
 71
3
 72
8
 73
4
 74
0
 40
0
 40
0
 40
0
 40
0
 40
1
 40
1
 40
1
 40
1
 10
2.941499
 20
7.388712
 30
0.0
 10
3.010965
 20
7.264501
 30
0.0
 10
3.099203
 20
7.352631
 30
0.0
 10
3.099203
 20
7.546221
 30
0.0
  0
SPLINE
  5
1a0
100
AcDbEntity
  8
Layer_1
 62
7
100
AcDbSpline
 70
8
 71
3
 72
8
 73
4
 74
0
 40
0
 40
0
 40
0
 40
0
 40
1
 40
1
 40
1
 40
1
 10
3.099203
 20
7.546221
 30
0.0
 10
3.099203
 20
7.661730
 30
0.0
 10
3.127623
 20
7.756234
 30
0.0
 10
3.162359
 20
7.756234
 30
0.0
  0
SPLINE
  5
1a1
100
AcDbEntity
  8
Layer_1
 62
7
100
AcDbSpline
 70
8
 71
3
 72
8
 73
4
 74
0
 40
0
 40
0
 40
0
 40
0
 40
1
 40
1
 40
1
 40
1
 10
3.162359
 20
7.756234
 30
0.0
 10
3.239571
 20
7.756234
 30
0.0
 10
3.383773
 20
8.148373
 30
0.0
 10
3.327321
 20
8.204824
 30
0.0
  0
SPLINE
  5
1a2
100
AcDbEntity
  8
Layer_1
 62
7
100
AcDbSpline
 70
8
 71
3
 72
8
 73
4
 74
0
 40
0
 40
0
 40
0
 40
0
 40
1
 40
1
 40
1
 40
1
 10
3.327321
 20
8.204824
 30
0.0
 10
3.305064
 20
8.227076
 30
0.0
 10
3.386391
 20
8.265200
 30
0.0
 10
3.508048
 20
8.289531
 30
0.0
  0
SPLINE
  5
1a3
100
AcDbEntity
  8
Layer_1
 62
7
100
AcDbSpline
 70
8
 71
3
 72
8
 73
4
 74
0
 40
0
 40
0
 40
0
 40
0
 40
1
 40
1
 40
1
 40
1
 10
3.508048
 20
8.289531
 30
0.0
 10
3.629705
 20
8.313872
 30
0.0
 10
3.729377
 20
8.369210
 30
0.0
 10
3.729542
 20
8.412525
 30
0.0
  0
SPLINE
  5
1a4
100
AcDbEntity
  8
Layer_1
 62
7
100
AcDbSpline
 70
8
 71
3
 72
8
 73
4
 74
0
 40
0
 40
0
 40
0
 40
0
 40
1
 40
1
 40
1
 40
1
 10
3.729542
 20
8.412525
 30
0.0
 10
3.729710
 20
8.455840
 30
0.0
 10
3.827623
 20
8.633039
 30
0.0
 10
3.947133
 20
8.806299
 30
0.0
  0
SPLINE
  5
1a5
100
AcDbEntity
  8
Layer_1
 62
7
100
AcDbSpline
 70
8
 71
3
 72
8
 73
4
 74
0
 40
0
 40
0
 40
0
 40
0
 40
1
 40
1
 40
1
 40
1
 10
3.947133
 20
8.806299
 30
0.0
 10
4.066643
 20
8.979561
 30
0.0
 10
4.145201
 20
9.058315
 30
0.0
 10
4.121706
 20
8.981310
 30
0.0
  0
SPLINE
  5
1a6
100
AcDbEntity
  8
Layer_1
 62
7
100
AcDbSpline
 70
8
 71
3
 72
8
 73
4
 74
0
 40
0
 40
0
 40
0
 40
0
 40
1
 40
1
 40
1
 40
1
 10
4.121706
 20
8.981310
 30
0.0
 10
4.082594
 20
8.853120
 30
0.0
 10
4.090222
 20
8.854517
 30
0.0
 10
4.212089
 20
8.997873
 30
0.0
  0
SPLINE
  5
1a7
100
AcDbEntity
  8
Layer_1
 62
7
100
AcDbSpline
 70
8
 71
3
 72
8
 73
4
 74
0
 40
0
 40
0
 40
0
 40
0
 40
1
 40
1
 40
1
 40
1
 10
4.212089
 20
8.997873
 30
0.0
 10
4.285294
 20
9.083985
 30
0.0
 10
4.419239
 20
9.187984
 30
0.0
 10
4.509745
 20
9.228989
 30
0.0
  0
SPLINE
  5
1a8
100
AcDbEntity
  8
Layer_1
 62
7
100
AcDbSpline
 70
8
 71
3
 72
8
 73
4
 74
0
 40
0
 40
0
 40
0
 40
0
 40
1
 40
1
 40
1
 40
1
 10
4.509745
 20
9.228989
 30
0.0
 10
4.600251
 20
9.269992
 30
0.0
 10
4.800309
 20
9.377299
 30
0.0
 10
4.954318
 20
9.467448
 30
0.0
  0
SPLINE
  5
1a9
100
AcDbEntity
  8
Layer_1
 62
7
100
AcDbSpline
 70
8
 71
3
 72
8
 73
4
 74
0
 40
0
 40
0
 40
0
 40
0
 40
1
 40
1
 40
1
 40
1
 10
4.954318
 20
9.467448
 30
0.0
 10
5.110637
 20
9.558951
 30
0.0
 10
5.300314
 20
9.616760
 30
0.0
 10
5.383690
 20
9.598313
 30
0.0
  0
SPLINE
  5
1aa
100
AcDbEntity
  8
Layer_1
 62
7
100
AcDbSpline
 70
8
 71
3
 72
8
 73
4
 74
0
 40
0
 40
0
 40
0
 40
0
 40
1
 40
1
 40
1
 40
1
 10
5.383690
 20
9.598313
 30
0.0
 10
5.465835
 20
9.580137
 30
0.0
 10
5.639797
 20
9.594742
 30
0.0
 10
5.770272
 20
9.630772
 30
0.0
  0
SPLINE
  5
1ab
100
AcDbEntity
  8
Layer_1
 62
7
100
AcDbSpline
 70
8
 71
3
 72
8
 73
4
 74
0
 40
0
 40
0
 40
0
 40
0
 40
1
 40
1
 40
1
 40
1
 10
5.770272
 20
9.630772
 30
0.0
 10
5.947727
 20
9.679771
 30
0.0
 10
6.029850
 20
9.672346
 30
0.0
 10
6.096207
 20
9.601314
 30
0.0
  0
SPLINE
  5
1ac
100
AcDbEntity
  8
Layer_1
 62
7
100
AcDbSpline
 70
8
 71
3
 72
8
 73
4
 74
0
 40
0
 40
0
 40
0
 40
0
 40
1
 40
1
 40
1
 40
1
 10
6.096207
 20
9.601314
 30
0.0
 10
6.144996
 20
9.549085
 30
0.0
 10
6.319491
 20
9.506352
 30
0.0
 10
6.483974
 20
9.506352
 30
0.0
  0
SPLINE
  5
1ad
100
AcDbEntity
  8
Layer_1
 62
7
100
AcDbSpline
 70
8
 71
3
 72
8
 73
4
 74
0
 40
0
 40
0
 40
0
 40
0
 40
1
 40
1
 40
1
 40
1
 10
6.483974
 20
9.506352
 30
0.0
 10
6.683175
 20
9.506352
 30
0.0
 10
6.831702
 20
9.461008
 30
0.0
 10
6.928790
 20
9.370557
 30
0.0
  0
SPLINE
  5
1ae
100
AcDbEntity
  8
Layer_1
 62
7
100
AcDbSpline
 70
8
 71
3
 72
8
 73
4
 74
0
 40
0
 40
0
 40
0
 40
0
 40
1
 40
1
 40
1
 40
1
 10
6.928790
 20
9.370557
 30
0.0
 10
7.008956
 20
9.295871
 30
0.0
 10
7.096227
 20
9.256445
 30
0.0
 10
7.122724
 20
9.282943
 30
0.0
  0
SPLINE
  5
1af
100
AcDbEntity
  8
Layer_1
 62
7
100
AcDbSpline
 70
8
 71
3
 72
8
 73
4
 74
0
 40
0
 40
0
 40
0
 40
0
 40
1
 40
1
 40
1
 40
1
 10
7.122724
 20
9.282943
 30
0.0
 10
7.149222
 20
9.309441
 30
0.0
 10
7.207825
 20
9.280562
 30
0.0
 10
7.252953
 20
9.218909
 30
0.0
  0
SPLINE
  5
1b0
100
AcDbEntity
  8
Layer_1
 62
7
100
AcDbSpline
 70
8
 71
3
 72
8
 73
4
 74
0
 40
0
 40
0
 40
0
 40
0
 40
1
 40
1
 40
1
 40
1
 10
7.252953
 20
9.218909
 30
0.0
 10
7.298080
 20
9.157195
 30
0.0
 10
7.408135
 20
9.083487
 30
0.0
 10
7.497520
 20
9.055119
 30
0.0
  0
SPLINE
  5
1b1
100
AcDbEntity
  8
Layer_1
 62
7
100
AcDbSpline
 70
8
 71
3
 72
8
 73
4
 74
0
 40
0
 40
0
 40
0
 40
0
 40
1
 40
1
 40
1
 40
1
 10
7.497520
 20
9.055119
 30
0.0
 10
7.586904
 20
9.026750
 30
0.0
 10
7.641657
 20
8.985157
 30
0.0
 10
7.619194
 20
8.962694
 30
0.0
  0
SPLINE
  5
1b2
100
AcDbEntity
  8
Layer_1
 62
7
100
AcDbSpline
 70
8
 71
3
 72
8
 73
4
 74
0
 40
0
 40
0
 40
0
 40
0
 40
1
 40
1
 40
1
 40
1
 10
7.619194
 20
8.962694
 30
0.0
 10
7.596731
 20
8.940231
 30
0.0
 10
7.665237
 20
8.864560
 30
0.0
 10
7.771428
 20
8.794538
 30
0.0
  0
SPLINE
  5
1b3
100
AcDbEntity
  8
Layer_1
 62
7
100
AcDbSpline
 70
8
 71
3
 72
8
 73
4
 74
0
 40
0
 40
0
 40
0
 40
0
 40
1
 40
1
 40
1
 40
1
 10
7.771428
 20
8.794538
 30
0.0
 10
7.877620
 20
8.724514
 30
0.0
 10
7.924019
 20
8.667014
 30
0.0
 10
7.874537
 20
8.666760
 30
0.0
  0
SPLINE
  5
1b4
100
AcDbEntity
  8
Layer_1
 62
7
100
AcDbSpline
 70
8
 71
3
 72
8
 73
4
 74
0
 40
0
 40
0
 40
0
 40
0
 40
1
 40
1
 40
1
 40
1
 10
7.874537
 20
8.666760
 30
0.0
 10
7.727271
 20
8.665967
 30
0.0
 10
7.910975
 20
8.389861
 30
0.0
 10
8.108770
 20
8.314658
 30
0.0
  0
SPLINE
  5
1b5
100
AcDbEntity
  8
Layer_1
 62
7
100
AcDbSpline
 70
8
 71
3
 72
8
 73
4
 74
0
 40
0
 40
0
 40
0
 40
0
 40
1
 40
1
 40
1
 40
1
 10
8.108770
 20
8.314658
 30
0.0
 10
8.202685
 20
8.278953
 30
0.0
 10
8.279524
 20
8.229838
 30
0.0
 10
8.279524
 20
8.205515
 30
0.0
  0
SPLINE
  5
1b6
100
AcDbEntity
  8
Layer_1
 62
7
100
AcDbSpline
 70
8
 71
3
 72
8
 73
4
 74
0
 40
0
 40
0
 40
0
 40
0
 40
1
 40
1
 40
1
 40
1
 10
8.279524
 20
8.205515
 30
0.0
 10
8.279524
 20
8.181200
 30
0.0
 10
8.232271
 20
8.179427
 30
0.0
 10
8.174518
 20
8.201573
 30
0.0
  0
SPLINE
  5
1b7
100
AcDbEntity
  8
Layer_1
 62
7
100
AcDbSpline
 70
8
 71
3
 72
8
 73
4
 74
0
 40
0
 40
0
 40
0
 40
0
 40
1
 40
1
 40
1
 40
1
 10
8.174518
 20
8.201573
 30
0.0
 10
8.116764
 20
8.223745
 30
0.0
 10
8.069511
 20
8.213479
 30
0.0
 10
8.069511
 20
8.178792
 30
0.0
  0
SPLINE
  5
1b8
100
AcDbEntity
  8
Layer_1
 62
7
100
AcDbSpline
 70
8
 71
3
 72
8
 73
4
 74
0
 40
0
 40
0
 40
0
 40
0
 40
1
 40
1
 40
1
 40
1
 10
8.069511
 20
8.178792
 30
0.0
 10
8.069511
 20
8.144092
 30
0.0
 10
8.126962
 20
8.097467
 30
0.0
 10
8.197179
 20
8.075181
 30
0.0
  0
SPLINE
  5
1b9
100
AcDbEntity
  8
Layer_1
 62
7
100
AcDbSpline
 70
8
 71
3
 72
8
 73
4
 74
0
 40
0
 40
0
 40
0
 40
0
 40
1
 40
1
 40
1
 40
1
 10
8.197179
 20
8.075181
 30
0.0
 10
8.360058
 20
8.023487
 30
0.0
 10
8.629546
 20
7.774022
 30
0.0
 10
8.629546
 20
7.674943
 30
0.0
  0
SPLINE
  5
1ba
100
AcDbEntity
  8
Layer_1
 62
7
100
AcDbSpline
 70
8
 71
3
 72
8
 73
4
 74
0
 40
0
 40
0
 40
0
 40
0
 40
1
 40
1
 40
1
 40
1
 10
8.629546
 20
7.674943
 30
0.0
 10
8.629546
 20
7.626035
 30
0.0
 10
8.591645
 20
7.630549
 30
0.0
 10
8.522847
 20
7.687643
 30
0.0
  0
SPLINE
  5
1bb
100
AcDbEntity
  8
Layer_1
 62
7
100
AcDbSpline
 70
8
 71
3
 72
8
 73
4
 74
0
 40
0
 40
0
 40
0
 40
0
 40
1
 40
1
 40
1
 40
1
 10
8.522847
 20
7.687643
 30
0.0
 10
8.384779
 20
7.802229
 30
0.0
 10
8.302957
 20
7.721698
 30
0.0
 10
8.417375
 20
7.583831
 30
0.0
  0
SPLINE
  5
1bc
100
AcDbEntity
  8
Layer_1
 62
7
100
AcDbSpline
 70
8
 71
3
 72
8
 73
4
 74
0
 40
0
 40
0
 40
0
 40
0
 40
1
 40
1
 40
1
 40
1
 10
8.417375
 20
7.583831
 30
0.0
 10
8.469761
 20
7.520710
 30
0.0
 10
8.486613
 20
7.404100
 30
0.0
 10
8.459158
 20
7.294711
 30
0.0
  0
SPLINE
  5
1bd
100
AcDbEntity
  8
Layer_1
 62
7
100
AcDbSpline
 70
8
 71
3
 72
8
 73
4
 74
0
 40
0
 40
0
 40
0
 40
0
 40
1
 40
1
 40
1
 40
1
 10
8.459158
 20
7.294711
 30
0.0
 10
8.431415
 20
7.184176
 30
0.0
 10
8.451237
 20
7.051778
 30
0.0
 10
8.509078
 20
6.961280
 30
0.0
  0
SPLINE
  5
1be
100
AcDbEntity
  8
Layer_1
 62
7
100
AcDbSpline
 70
8
 71
3
 72
8
 73
4
 74
0
 40
0
 40
0
 40
0
 40
0
 40
1
 40
1
 40
1
 40
1
 10
8.509078
 20
6.961280
 30
0.0
 10
8.658902
 20
6.726865
 30
0.0
 10
8.699608
 20
6.574467
 30
0.0
 10
8.624754
 20
6.528205
 30
0.0
  0
SPLINE
  5
1bf
100
AcDbEntity
  8
Layer_1
 62
7
100
AcDbSpline
 70
8
 71
3
 72
8
 73
4
 74
0
 40
0
 40
0
 40
0
 40
0
 40
1
 40
1
 40
1
 40
1
 10
8.624754
 20
6.528205
 30
0.0
 10
8.586979
 20
6.504869
 30
0.0
 10
8.560584
 20
6.511721
 30
0.0
 10
8.566097
 20
6.543471
 30
0.0
  0
SPLINE
  5
1c0
100
AcDbEntity
  8
Layer_1
 62
7
100
AcDbSpline
 70
8
 71
3
 72
8
 73
4
 74
0
 40
0
 40
0
 40
0
 40
0
 40
1
 40
1
 40
1
 40
1
 10
8.566097
 20
6.543471
 30
0.0
 10
8.590719
 20
6.685203
 30
0.0
 10
8.553688
 20
6.780834
 30
0.0
 10
8.489537
 20
6.741186
 30
0.0
  0
SPLINE
  5
1c1
100
AcDbEntity
  8
Layer_1
 62
7
100
AcDbSpline
 70
8
 71
3
 72
8
 73
4
 74
0
 40
0
 40
0
 40
0
 40
0
 40
1
 40
1
 40
1
 40
1
 10
8.489537
 20
6.741186
 30
0.0
 10
8.395533
 20
6.683089
 30
0.0
 10
8.399779
 20
6.356165
 30
0.0
 10
8.494535
 20
6.356165
 30
0.0
  0
SPLINE
  5
1c2
100
AcDbEntity
  8
Layer_1
 62
7
100
AcDbSpline
 70
8
 71
3
 72
8
 73
4
 74
0
 40
0
 40
0
 40
0
 40
0
 40
1
 40
1
 40
1
 40
1
 10
8.494535
 20
6.356165
 30
0.0
 10
8.535787
 20
6.356165
 30
0.0
 10
8.516908
 20
6.303531
 30
0.0
 10
8.452579
 20
6.239203
 30
0.0
  0
SPLINE
  5
1c3
100
AcDbEntity
  8
Layer_1
 62
7
100
AcDbSpline
 70
8
 71
3
 72
8
 73
4
 74
0
 40
0
 40
0
 40
0
 40
0
 40
1
 40
1
 40
1
 40
1
 10
8.452579
 20
6.239203
 30
0.0
 10
8.343301
 20
6.129925
 30
0.0
 10
8.346022
 20
6.114394
 30
0.0
 10
8.494010
 20
6.002766
 30
0.0
  0
SPLINE
  5
1c4
100
AcDbEntity
  8
Layer_1
 62
7
100
AcDbSpline
 70
8
 71
3
 72
8
 73
4
 74
0
 40
0
 40
0
 40
0
 40
0
 40
1
 40
1
 40
1
 40
1
 10
8.494010
 20
6.002766
 30
0.0
 10
8.651315
 20
5.884111
 30
0.0
 10
8.651425
 20
5.882770
 30
0.0
 10
8.510168
 20
5.807170
 30
0.0
  0
SPLINE
  5
1c5
100
AcDbEntity
  8
Layer_1
 62
7
100
AcDbSpline
 70
8
 71
3
 72
8
 73
4
 74
0
 40
0
 40
0
 40
0
 40
0
 40
1
 40
1
 40
1
 40
1
 10
8.510168
 20
5.807170
 30
0.0
 10
8.431939
 20
5.765305
 30
0.0
 10
8.346376
 20
5.752608
 30
0.0
 10
8.320028
 20
5.778958
 30
0.0
  0
SPLINE
  5
1c6
100
AcDbEntity
  8
Layer_1
 62
7
100
AcDbSpline
 70
8
 71
3
 72
8
 73
4
 74
0
 40
0
 40
0
 40
0
 40
0
 40
1
 40
1
 40
1
 40
1
 10
8.320028
 20
5.778958
 30
0.0
 10
8.293681
 20
5.805310
 30
0.0
 10
8.292109
 20
5.764829
 30
0.0
 10
8.316536
 20
5.688989
 30
0.0
  0
SPLINE
  5
1c7
100
AcDbEntity
  8
Layer_1
 62
7
100
AcDbSpline
 70
8
 71
3
 72
8
 73
4
 74
0
 40
0
 40
0
 40
0
 40
0
 40
1
 40
1
 40
1
 40
1
 10
8.316536
 20
5.688989
 30
0.0
 10
8.358921
 20
5.557422
 30
0.0
 10
8.356195
 20
5.556911
 30
0.0
 10
8.256952
 20
5.677823
 30
0.0
  0
SPLINE
  5
1c8
100
AcDbEntity
  8
Layer_1
 62
7
100
AcDbSpline
 70
8
 71
3
 72
8
 73
4
 74
0
 40
0
 40
0
 40
0
 40
0
 40
1
 40
1
 40
1
 40
1
 10
8.256952
 20
5.677823
 30
0.0
 10
8.184611
 20
5.765951
 30
0.0
 10
8.137845
 20
5.780077
 30
0.0
 10
8.103327
 20
5.724229
 30
0.0
  0
SPLINE
  5
1c9
100
AcDbEntity
  8
Layer_1
 62
7
100
AcDbSpline
 70
8
 71
3
 72
8
 73
4
 74
0
 40
0
 40
0
 40
0
 40
0
 40
1
 40
1
 40
1
 40
1
 10
8.103327
 20
5.724229
 30
0.0
 10
8.076035
 20
5.680067
 30
0.0
 10
8.088762
 20
5.608876
 30
0.0
 10
8.131609
 20
5.566029
 30
0.0
  0
SPLINE
  5
1ca
100
AcDbEntity
  8
Layer_1
 62
7
100
AcDbSpline
 70
8
 71
3
 72
8
 73
4
 74
0
 40
0
 40
0
 40
0
 40
0
 40
1
 40
1
 40
1
 40
1
 10
8.131609
 20
5.566029
 30
0.0
 10
8.279452
 20
5.418185
 30
0.0
 10
8.208897
 20
5.372841
 30
0.0
 10
7.999502
 20
5.481122
 30
0.0
  0
SPLINE
  5
1cb
100
AcDbEntity
  8
Layer_1
 62
7
100
AcDbSpline
 70
8
 71
3
 72
8
 73
4
 74
0
 40
0
 40
0
 40
0
 40
0
 40
1
 40
1
 40
1
 40
1
 10
7.999502
 20
5.481122
 30
0.0
 10
7.805995
 20
5.581190
 30
0.0
 10
7.789489
 20
5.580388
 30
0.0
 10
7.789489
 20
5.470935
 30
0.0
  0
SPLINE
  5
1cc
100
AcDbEntity
  8
Layer_1
 62
7
100
AcDbSpline
 70
8
 71
3
 72
8
 73
4
 74
0
 40
0
 40
0
 40
0
 40
0
 40
1
 40
1
 40
1
 40
1
 10
7.789489
 20
5.470935
 30
0.0
 10
7.789489
 20
5.405599
 30
0.0
 10
7.737354
 20
5.294532
 30
0.0
 10
7.673632
 20
5.224121
 30
0.0
  0
SPLINE
  5
1cd
100
AcDbEntity
  8
Layer_1
 62
7
100
AcDbSpline
 70
8
 71
3
 72
8
 73
4
 74
0
 40
0
 40
0
 40
0
 40
0
 40
1
 40
1
 40
1
 40
1
 10
7.673632
 20
5.224121
 30
0.0
 10
7.604319
 20
5.147527
 30
0.0
 10
7.590260
 20
5.096103
 30
0.0
 10
7.638635
 20
5.096103
 30
0.0
  0
SPLINE
  5
1ce
100
AcDbEntity
  8
Layer_1
 62
7
100
AcDbSpline
 70
8
 71
3
 72
8
 73
4
 74
0
 40
0
 40
0
 40
0
 40
0
 40
1
 40
1
 40
1
 40
1
 10
7.638635
 20
5.096103
 30
0.0
 10
7.683106
 20
5.096103
 30
0.0
 10
7.719490
 20
5.048848
 30
0.0
 10
7.719490
 20
4.991095
 30
0.0
  0
SPLINE
  5
1cf
100
AcDbEntity
  8
Layer_1
 62
7
100
AcDbSpline
 70
8
 71
3
 72
8
 73
4
 74
0
 40
0
 40
0
 40
0
 40
0
 40
1
 40
1
 40
1
 40
1
 10
7.719490
 20
4.991095
 30
0.0
 10
7.719490
 20
4.907624
 30
0.0
 10
7.595697
 20
4.833104
 30
0.0
 10
7.574125
 20
4.903589
 30
0.0
  0
LINE
  5
1d0
100
AcDbEntity
  8
Layer_1
 62
7
100
AcDbLine
 10
7.574125
 20
4.903589
 30
0.0
 11
7.574125
 21
4.903592
 31
0.0
  0
SPLINE
  5
1d1
100
AcDbEntity
  8
Layer_1
 62
7
100
AcDbSpline
 70
8
 71
3
 72
8
 73
4
 74
0
 40
0
 40
0
 40
0
 40
0
 40
1
 40
1
 40
1
 40
1
 10
4.849312
 20
5.093049
 30
0.0
 10
4.849312
 20
5.221645
 30
0.0
 10
4.883432
 20
5.241613
 30
0.0
 10
5.071435
 20
5.223047
 30
0.0
  0
SPLINE
  5
1d2
100
AcDbEntity
  8
Layer_1
 62
7
100
AcDbSpline
 70
8
 71
3
 72
8
 73
4
 74
0
 40
0
 40
0
 40
0
 40
0
 40
1
 40
1
 40
1
 40
1
 10
5.071435
 20
5.223047
 30
0.0
 10
5.307072
 20
5.199764
 30
0.0
 10
5.426467
 20
5.059484
 30
0.0
 10
5.217668
 20
5.051221
 30
0.0
  0
SPLINE
  5
1d3
100
AcDbEntity
  8
Layer_1
 62
7
100
AcDbSpline
 70
8
 71
3
 72
8
 73
4
 74
0
 40
0
 40
0
 40
0
 40
0
 40
1
 40
1
 40
1
 40
1
 10
5.217668
 20
5.051221
 30
0.0
 10
5.149830
 20
5.048523
 30
0.0
 10
5.039198
 20
5.022662
 30
0.0
 10
4.971819
 20
4.993727
 30
0.0
  0
SPLINE
  5
1d4
100
AcDbEntity
  8
Layer_1
 62
7
100
AcDbSpline
 70
8
 71
3
 72
8
 73
4
 74
0
 40
0
 40
0
 40
0
 40
0
 40
1
 40
1
 40
1
 40
1
 10
4.971819
 20
4.993727
 30
0.0
 10
4.876616
 20
4.952841
 30
0.0
 10
4.849312
 20
4.974968
 30
0.0
 10
4.849312
 20
5.093049
 30
0.0
  0
LINE
  5
1d5
100
AcDbEntity
  8
Layer_1
 62
7
100
AcDbLine
 10
4.849312
 20
5.093049
 30
0.0
 11
4.849312
 21
5.093049
 31
0.0
  0
SPLINE
  5
1d6
100
AcDbEntity
  8
Layer_1
 62
7
100
AcDbSpline
 70
8
 71
3
 72
8
 73
4
 74
0
 40
0
 40
0
 40
0
 40
0
 40
1
 40
1
 40
1
 40
1
 10
5.969381
 20
5.010026
 30
0.0
 10
5.969381
 20
5.044231
 30
0.0
 10
5.914253
 20
5.069718
 30
0.0
 10
5.846874
 20
5.066660
 30
0.0
  0
SPLINE
  5
1d7
100
AcDbEntity
  8
Layer_1
 62
7
100
AcDbSpline
 70
8
 71
3
 72
8
 73
4
 74
0
 40
0
 40
0
 40
0
 40
0
 40
1
 40
1
 40
1
 40
1
 10
5.846874
 20
5.066660
 30
0.0
 10
5.631122
 20
5.056870
 30
0.0
 10
5.677646
 20
5.200261
 30
0.0
 10
5.897613
 20
5.223047
 30
0.0
  0
SPLINE
  5
1d8
100
AcDbEntity
  8
Layer_1
 62
7
100
AcDbSpline
 70
8
 71
3
 72
8
 73
4
 74
0
 40
0
 40
0
 40
0
 40
0
 40
1
 40
1
 40
1
 40
1
 10
5.897613
 20
5.223047
 30
0.0
 10
6.049183
 20
5.238737
 30
0.0
 10
6.109390
 20
5.215030
 30
0.0
 10
6.109390
 20
5.139674
 30
0.0
  0
SPLINE
  5
1d9
100
AcDbEntity
  8
Layer_1
 62
7
100
AcDbSpline
 70
8
 71
3
 72
8
 73
4
 74
0
 40
0
 40
0
 40
0
 40
0
 40
1
 40
1
 40
1
 40
1
 10
6.109390
 20
5.139674
 30
0.0
 10
6.109390
 20
5.081752
 30
0.0
 10
6.077888
 20
5.014894
 30
0.0
 10
6.039386
 20
4.991097
 30
0.0
  0
SPLINE
  5
1da
100
AcDbEntity
  8
Layer_1
 62
7
100
AcDbSpline
 70
8
 71
3
 72
8
 73
4
 74
0
 40
0
 40
0
 40
0
 40
0
 40
1
 40
1
 40
1
 40
1
 10
6.039386
 20
4.991097
 30
0.0
 10
6.000883
 20
4.967311
 30
0.0
 10
5.969381
 20
4.975831
 30
0.0
 10
5.969381
 20
5.010015
 30
0.0
  0
LINE
  5
1db
100
AcDbEntity
  8
Layer_1
 62
7
100
AcDbLine
 10
5.969381
 20
5.010015
 30
0.0
 11
5.969381
 21
5.010026
 31
0.0
  0
SPLINE
  5
1dc
100
AcDbEntity
  8
Layer_1
 62
7
100
AcDbSpline
 70
8
 71
3
 72
8
 73
4
 74
0
 40
0
 40
0
 40
0
 40
0
 40
1
 40
1
 40
1
 40
1
 10
3.589234
 20
5.124990
 30
0.0
 10
3.651693
 20
5.204629
 30
0.0
 10
3.665276
 20
5.268651
 30
0.0
 10
3.622755
 20
5.282994
 30
0.0
  0
SPLINE
  5
1dd
100
AcDbEntity
  8
Layer_1
 62
7
100
AcDbSpline
 70
8
 71
3
 72
8
 73
4
 74
0
 40
0
 40
0
 40
0
 40
0
 40
1
 40
1
 40
1
 40
1
 10
3.622755
 20
5.282994
 30
0.0
 10
3.552603
 20
5.306647
 30
0.0
 10
3.606518
 20
6.662695
 30
0.0
 10
3.693257
 20
7.056226
 30
0.0
  0
SPLINE
  5
1de
100
AcDbEntity
  8
Layer_1
 62
7
100
AcDbSpline
 70
8
 71
3
 72
8
 73
4
 74
0
 40
0
 40
0
 40
0
 40
0
 40
1
 40
1
 40
1
 40
1
 10
3.693257
 20
7.056226
 30
0.0
 10
3.714474
 20
7.152481
 30
0.0
 10
3.748828
 20
7.325744
 30
0.0
 10
3.769601
 20
7.441250
 30
0.0
  0
SPLINE
  5
1df
100
AcDbEntity
  8
Layer_1
 62
7
100
AcDbSpline
 70
8
 71
3
 72
8
 73
4
 74
0
 40
0
 40
0
 40
0
 40
0
 40
1
 40
1
 40
1
 40
1
 10
3.769601
 20
7.441250
 30
0.0
 10
3.835696
 20
7.808767
 30
0.0
 10
4.164402
 20
8.381235
 30
0.0
 10
4.422266
 20
8.577916
 30
0.0
  0
SPLINE
  5
1e0
100
AcDbEntity
  8
Layer_1
 62
7
100
AcDbSpline
 70
8
 71
3
 72
8
 73
4
 74
0
 40
0
 40
0
 40
0
 40
0
 40
1
 40
1
 40
1
 40
1
 10
4.422266
 20
8.577916
 30
0.0
 10
4.721757
 20
8.806349
 30
0.0
 10
5.512710
 20
8.967155
 30
0.0
 10
5.854565
 20
8.869114
 30
0.0
  0
SPLINE
  5
1e1
100
AcDbEntity
  8
Layer_1
 62
7
100
AcDbSpline
 70
8
 71
3
 72
8
 73
4
 74
0
 40
0
 40
0
 40
0
 40
0
 40
1
 40
1
 40
1
 40
1
 10
5.854565
 20
8.869114
 30
0.0
 10
6.126490
 20
8.791125
 30
0.0
 10
6.127040
 20
8.791144
 30
0.0
 10
6.074388
 20
8.876337
 30
0.0
  0
SPLINE
  5
1e2
100
AcDbEntity
  8
Layer_1
 62
7
100
AcDbSpline
 70
8
 71
3
 72
8
 73
4
 74
0
 40
0
 40
0
 40
0
 40
0
 40
1
 40
1
 40
1
 40
1
 10
6.074388
 20
8.876337
 30
0.0
 10
6.007964
 20
8.983813
 30
0.0
 10
6.184671
 20
8.957109
 30
0.0
 10
6.494414
 20
8.812863
 30
0.0
  0
SPLINE
  5
1e3
100
AcDbEntity
  8
Layer_1
 62
7
100
AcDbSpline
 70
8
 71
3
 72
8
 73
4
 74
0
 40
0
 40
0
 40
0
 40
0
 40
1
 40
1
 40
1
 40
1
 10
6.494414
 20
8.812863
 30
0.0
 10
6.648423
 20
8.741140
 30
0.0
 10
6.921947
 20
8.529196
 30
0.0
 10
7.102245
 20
8.341871
 30
0.0
  0
SPLINE
  5
1e4
100
AcDbEntity
  8
Layer_1
 62
7
100
AcDbSpline
 70
8
 71
3
 72
8
 73
4
 74
0
 40
0
 40
0
 40
0
 40
0
 40
1
 40
1
 40
1
 40
1
 10
7.102245
 20
8.341871
 30
0.0
 10
7.397369
 20
8.035245
 30
0.0
 10
7.433345
 20
7.961940
 30
0.0
 10
7.463027
 20
7.606750
 30
0.0
  0
SPLINE
  5
1e5
100
AcDbEntity
  8
Layer_1
 62
7
100
AcDbSpline
 70
8
 71
3
 72
8
 73
4
 74
0
 40
0
 40
0
 40
0
 40
0
 40
1
 40
1
 40
1
 40
1
 10
7.463027
 20
7.606750
 30
0.0
 10
7.481159
 20
7.389754
 30
0.0
 10
7.533512
 20
7.142115
 30
0.0
 10
7.579366
 20
7.056438
 30
0.0
  0
SPLINE
  5
1e6
100
AcDbEntity
  8
Layer_1
 62
7
100
AcDbSpline
 70
8
 71
3
 72
8
 73
4
 74
0
 40
0
 40
0
 40
0
 40
0
 40
1
 40
1
 40
1
 40
1
 10
7.579366
 20
7.056438
 30
0.0
 10
7.690398
 20
6.848972
 30
0.0
 10
7.628179
 20
5.631201
 30
0.0
 10
7.489904
 20
5.305494
 30
0.0
  0
SPLINE
  5
1e7
100
AcDbEntity
  8
Layer_1
 62
7
100
AcDbSpline
 70
8
 71
3
 72
8
 73
4
 74
0
 40
0
 40
0
 40
0
 40
0
 40
1
 40
1
 40
1
 40
1
 10
7.489904
 20
5.305494
 30
0.0
 10
7.392664
 20
5.076444
 30
0.0
 10
7.387736
 20
5.120799
 30
0.0
 10
7.411412
 20
6.011960
 30
0.0
  0
SPLINE
  5
1e8
100
AcDbEntity
  8
Layer_1
 62
7
100
AcDbSpline
 70
8
 71
3
 72
8
 73
4
 74
0
 40
0
 40
0
 40
0
 40
0
 40
1
 40
1
 40
1
 40
1
 10
7.411412
 20
6.011960
 30
0.0
 10
7.435008
 20
6.900085
 30
0.0
 10
7.426972
 20
6.973234
 30
0.0
 10
7.289623
 20
7.120662
 30
0.0
  0
SPLINE
  5
1e9
100
AcDbEntity
  8
Layer_1
 62
7
100
AcDbSpline
 70
8
 71
3
 72
8
 73
4
 74
0
 40
0
 40
0
 40
0
 40
0
 40
1
 40
1
 40
1
 40
1
 10
7.289623
 20
7.120662
 30
0.0
 10
7.173623
 20
7.245175
 30
0.0
 10
7.157163
 20
7.310530
 30
0.0
 10
7.211673
 20
7.430167
 30
0.0
  0
SPLINE
  5
1ea
100
AcDbEntity
  8
Layer_1
 62
7
100
AcDbSpline
 70
8
 71
3
 72
8
 73
4
 74
0
 40
0
 40
0
 40
0
 40
0
 40
1
 40
1
 40
1
 40
1
 10
7.211673
 20
7.430167
 30
0.0
 10
7.295673
 20
7.614526
 30
0.0
 10
7.139532
 20
7.939685
 30
0.0
 10
6.794622
 20
8.298664
 30
0.0
  0
SPLINE
  5
1eb
100
AcDbEntity
  8
Layer_1
 62
7
100
AcDbSpline
 70
8
 71
3
 72
8
 73
4
 74
0
 40
0
 40
0
 40
0
 40
0
 40
1
 40
1
 40
1
 40
1
 10
6.794622
 20
8.298664
 30
0.0
 10
6.503776
 20
8.601377
 30
0.0
 10
6.016541
 20
8.873188
 30
0.0
 10
6.149027
 20
8.658823
 30
0.0
  0
SPLINE
  5
1ec
100
AcDbEntity
  8
Layer_1
 62
7
100
AcDbSpline
 70
8
 71
3
 72
8
 73
4
 74
0
 40
0
 40
0
 40
0
 40
0
 40
1
 40
1
 40
1
 40
1
 10
6.149027
 20
8.658823
 30
0.0
 10
6.182066
 20
8.605367
 30
0.0
 10
6.145339
 20
8.597919
 30
0.0
 10
6.030651
 20
8.634825
 30
0.0
  0
SPLINE
  5
1ed
100
AcDbEntity
  8
Layer_1
 62
7
100
AcDbSpline
 70
8
 71
3
 72
8
 73
4
 74
0
 40
0
 40
0
 40
0
 40
0
 40
1
 40
1
 40
1
 40
1
 10
6.030651
 20
8.634825
 30
0.0
 10
5.939199
 20
8.664252
 30
0.0
 10
5.832873
 20
8.684112
 30
0.0
 10
5.794370
 20
8.678955
 30
0.0
  0
SPLINE
  5
1ee
100
AcDbEntity
  8
Layer_1
 62
7
100
AcDbSpline
 70
8
 71
3
 72
8
 73
4
 74
0
 40
0
 40
0
 40
0
 40
0
 40
1
 40
1
 40
1
 40
1
 10
5.794370
 20
8.678955
 30
0.0
 10
5.755868
 20
8.673796
 30
0.0
 10
5.566856
 20
8.656942
 30
0.0
 10
5.374344
 20
8.641519
 30
0.0
  0
SPLINE
  5
1ef
100
AcDbEntity
  8
Layer_1
 62
7
100
AcDbSpline
 70
8
 71
3
 72
8
 73
4
 74
0
 40
0
 40
0
 40
0
 40
0
 40
1
 40
1
 40
1
 40
1
 10
5.374344
 20
8.641519
 30
0.0
 10
5.181832
 20
8.626094
 30
0.0
 10
4.985036
 20
8.609603
 30
0.0
 10
4.937019
 20
8.604890
 30
0.0
  0
SPLINE
  5
1f0
100
AcDbEntity
  8
Layer_1
 62
7
100
AcDbSpline
 70
8
 71
3
 72
8
 73
4
 74
0
 40
0
 40
0
 40
0
 40
0
 40
1
 40
1
 40
1
 40
1
 10
4.937019
 20
8.604890
 30
0.0
 10
4.822527
 20
8.593645
 30
0.0
 10
4.289277
 20
8.110789
 30
0.0
 10
4.289277
 20
8.018354
 30
0.0
  0
SPLINE
  5
1f1
100
AcDbEntity
  8
Layer_1
 62
7
100
AcDbSpline
 70
8
 71
3
 72
8
 73
4
 74
0
 40
0
 40
0
 40
0
 40
0
 40
1
 40
1
 40
1
 40
1
 10
4.289277
 20
8.018354
 30
0.0
 10
4.289277
 20
7.978952
 30
0.0
 10
4.237985
 20
7.909205
 30
0.0
 10
4.175294
 20
7.863366
 30
0.0
  0
SPLINE
  5
1f2
100
AcDbEntity
  8
Layer_1
 62
7
100
AcDbSpline
 70
8
 71
3
 72
8
 73
4
 74
0
 40
0
 40
0
 40
0
 40
0
 40
1
 40
1
 40
1
 40
1
 10
4.175294
 20
7.863366
 30
0.0
 10
4.111305
 20
7.816575
 30
0.0
 10
4.052700
 20
7.659127
 30
0.0
 10
4.041679
 20
7.504388
 30
0.0
  0
LINE
  5
1f3
100
AcDbEntity
  8
Layer_1
 62
7
100
AcDbLine
 10
4.041679
 20
7.504388
 30
0.0
 11
4.022047
 21
7.228753
 31
0.0
  0
LINE
  5
1f4
100
AcDbEntity
  8
Layer_1
 62
7
100
AcDbLine
 10
4.022047
 20
7.228753
 30
0.0
 11
4.298099
 21
7.255079
 31
0.0
  0
SPLINE
  5
1f5
100
AcDbEntity
  8
Layer_1
 62
7
100
AcDbSpline
 70
8
 71
3
 72
8
 73
4
 74
0
 40
0
 40
0
 40
0
 40
0
 40
1
 40
1
 40
1
 40
1
 10
4.298099
 20
7.255079
 30
0.0
 10
4.732978
 20
7.296552
 30
0.0
 10
5.199334
 20
7.205668
 30
0.0
 10
5.199334
 20
7.079446
 30
0.0
  0
SPLINE
  5
1f6
100
AcDbEntity
  8
Layer_1
 62
7
100
AcDbSpline
 70
8
 71
3
 72
8
 73
4
 74
0
 40
0
 40
0
 40
0
 40
0
 40
1
 40
1
 40
1
 40
1
 10
5.199334
 20
7.079446
 30
0.0
 10
5.199334
 20
7.010413
 30
0.0
 10
5.160002
 20
6.986333
 30
0.0
 10
5.090692
 20
7.012929
 30
0.0
  0
SPLINE
  5
1f7
100
AcDbEntity
  8
Layer_1
 62
7
100
AcDbSpline
 70
8
 71
3
 72
8
 73
4
 74
0
 40
0
 40
0
 40
0
 40
0
 40
1
 40
1
 40
1
 40
1
 10
5.090692
 20
7.012929
 30
0.0
 10
5.028393
 20
7.036848
 30
0.0
 10
5.000294
 20
7.025100
 30
0.0
 10
5.024819
 20
6.985418
 30
0.0
  0
SPLINE
  5
1f8
100
AcDbEntity
  8
Layer_1
 62
7
100
AcDbSpline
 70
8
 71
3
 72
8
 73
4
 74
0
 40
0
 40
0
 40
0
 40
0
 40
1
 40
1
 40
1
 40
1
 10
5.024819
 20
6.985418
 30
0.0
 10
5.048343
 20
6.947355
 30
0.0
 10
5.016617
 20
6.916214
 30
0.0
 10
4.954319
 20
6.916214
 30
0.0
  0
SPLINE
  5
1f9
100
AcDbEntity
  8
Layer_1
 62
7
100
AcDbSpline
 70
8
 71
3
 72
8
 73
4
 74
0
 40
0
 40
0
 40
0
 40
0
 40
1
 40
1
 40
1
 40
1
 10
4.954319
 20
6.916214
 30
0.0
 10
4.892021
 20
6.916214
 30
0.0
 10
4.860519
 20
6.947718
 30
0.0
 10
4.884315
 20
6.986220
 30
0.0
  0
SPLINE
  5
1fa
100
AcDbEntity
  8
Layer_1
 62
7
100
AcDbSpline
 70
8
 71
3
 72
8
 73
4
 74
0
 40
0
 40
0
 40
0
 40
0
 40
1
 40
1
 40
1
 40
1
 10
4.884315
 20
6.986220
 30
0.0
 10
4.908439
 20
7.025254
 30
0.0
 10
4.856074
 20
7.055750
 30
0.0
 10
4.765939
 20
7.055152
 30
0.0
  0
SPLINE
  5
1fb
100
AcDbEntity
  8
Layer_1
 62
7
100
AcDbSpline
 70
8
 71
3
 72
8
 73
4
 74
0
 40
0
 40
0
 40
0
 40
0
 40
1
 40
1
 40
1
 40
1
 10
4.765939
 20
7.055152
 30
0.0
 10
4.635896
 20
7.054358
 30
0.0
 10
4.624825
 20
7.040811
 30
0.0
 10
4.709304
 20
6.986220
 30
0.0
  0
SPLINE
  5
1fc
100
AcDbEntity
  8
Layer_1
 62
7
100
AcDbSpline
 70
8
 71
3
 72
8
 73
4
 74
0
 40
0
 40
0
 40
0
 40
0
 40
1
 40
1
 40
1
 40
1
 10
4.709304
 20
6.986220
 30
0.0
 10
4.783975
 20
6.937962
 30
0.0
 10
4.700353
 20
6.918050
 30
0.0
 10
4.419837
 20
6.917285
 30
0.0
  0
SPLINE
  5
1fd
100
AcDbEntity
  8
Layer_1
 62
7
100
AcDbSpline
 70
8
 71
3
 72
8
 73
4
 74
0
 40
0
 40
0
 40
0
 40
0
 40
1
 40
1
 40
1
 40
1
 10
4.419837
 20
6.917285
 30
0.0
 10
4.078433
 20
6.916491
 30
0.0
 10
4.010153
 20
6.892996
 30
0.0
 10
3.912305
 20
6.743666
 30
0.0
  0
SPLINE
  5
1fe
100
AcDbEntity
  8
Layer_1
 62
7
100
AcDbSpline
 70
8
 71
3
 72
8
 73
4
 74
0
 40
0
 40
0
 40
0
 40
0
 40
1
 40
1
 40
1
 40
1
 10
3.912305
 20
6.743666
 30
0.0
 10
3.774486
 20
6.533327
 30
0.0
 10
3.754221
 20
6.040152
 30
0.0
 10
3.886752
 20
6.121826
 30
0.0
  0
SPLINE
  5
1ff
100
AcDbEntity
  8
Layer_1
 62
7
100
AcDbSpline
 70
8
 71
3
 72
8
 73
4
 74
0
 40
0
 40
0
 40
0
 40
0
 40
1
 40
1
 40
1
 40
1
 10
3.886752
 20
6.121826
 30
0.0
 10
3.934880
 20
6.151486
 30
0.0
 10
3.919129
 20
6.091449
 30
0.0
 10
3.851750
 20
5.988412
 30
0.0
  0
SPLINE
  5
200
100
AcDbEntity
  8
Layer_1
 62
7
100
AcDbSpline
 70
8
 71
3
 72
8
 73
4
 74
0
 40
0
 40
0
 40
0
 40
0
 40
1
 40
1
 40
1
 40
1
 10
3.851750
 20
5.988412
 30
0.0
 10
3.781887
 20
5.881576
 30
0.0
 10
3.729242
 20
5.668322
 30
0.0
 10
3.729242
 20
5.492160
 30
0.0
  0
SPLINE
  5
201
100
AcDbEntity
  8
Layer_1
 62
7
100
AcDbSpline
 70
8
 71
3
 72
8
 73
4
 74
0
 40
0
 40
0
 40
0
 40
0
 40
1
 40
1
 40
1
 40
1
 10
3.729242
 20
5.492160
 30
0.0
 10
3.729242
 20
5.281229
 30
0.0
 10
3.690385
 20
5.152776
 30
0.0
 10
3.606734
 20
5.087173
 30
0.0
  0
SPLINE
  5
202
100
AcDbEntity
  8
Layer_1
 62
7
100
AcDbSpline
 70
8
 71
3
 72
8
 73
4
 74
0
 40
0
 40
0
 40
0
 40
0
 40
1
 40
1
 40
1
 40
1
 10
3.606734
 20
5.087173
 30
0.0
 10
3.493479
 20
4.998352
 30
0.0
 10
3.492158
 20
5.001207
 30
0.0
 10
3.589232
 20
5.124987
 30
0.0
  0
LINE
  5
203
100
AcDbEntity
  8
Layer_1
 62
7
100
AcDbLine
 10
3.589232
 20
5.124987
 30
0.0
 11
3.589234
 21
5.124990
 31
0.0
  0
SPLINE
  5
204
100
AcDbEntity
  8
Layer_1
 62
7
100
AcDbSpline
 70
8
 71
3
 72
8
 73
4
 74
0
 40
0
 40
0
 40
0
 40
0
 40
1
 40
1
 40
1
 40
1
 10
3.869251
 20
6.994485
 30
0.0
 10
3.869251
 20
7.032987
 30
0.0
 10
3.837749
 20
7.045021
 30
0.0
 10
3.799247
 20
7.021224
 30
0.0
  0
SPLINE
  5
205
100
AcDbEntity
  8
Layer_1
 62
7
100
AcDbSpline
 70
8
 71
3
 72
8
 73
4
 74
0
 40
0
 40
0
 40
0
 40
0
 40
1
 40
1
 40
1
 40
1
 10
3.799247
 20
7.021224
 30
0.0
 10
3.760744
 20
6.997438
 30
0.0
 10
3.729242
 20
6.946455
 30
0.0
 10
3.729242
 20
6.907953
 30
0.0
  0
SPLINE
  5
206
100
AcDbEntity
  8
Layer_1
 62
7
100
AcDbSpline
 70
8
 71
3
 72
8
 73
4
 74
0
 40
0
 40
0
 40
0
 40
0
 40
1
 40
1
 40
1
 40
1
 10
3.729242
 20
6.907953
 30
0.0
 10
3.729242
 20
6.869451
 30
0.0
 10
3.760744
 20
6.857418
 30
0.0
 10
3.799247
 20
6.881215
 30
0.0
  0
SPLINE
  5
207
100
AcDbEntity
  8
Layer_1
 62
7
100
AcDbSpline
 70
8
 71
3
 72
8
 73
4
 74
0
 40
0
 40
0
 40
0
 40
0
 40
1
 40
1
 40
1
 40
1
 10
3.799247
 20
6.881215
 30
0.0
 10
3.837749
 20
6.905001
 30
0.0
 10
3.869251
 20
6.955983
 30
0.0
 10
3.869251
 20
6.994485
 30
0.0
  0
LINE
  5
208
100
AcDbEntity
  8
Layer_1
 62
7
100
AcDbLine
 10
3.869251
 20
6.994485
 30
0.0
 11
3.869251
 21
6.994485
 31
0.0
  0
SPLINE
  5
209
100
AcDbEntity
  8
Layer_1
 62
7
100
AcDbSpline
 70
8
 71
3
 72
8
 73
4
 74
0
 40
0
 40
0
 40
0
 40
0
 40
1
 40
1
 40
1
 40
1
 10
2.571292
 20
5.520788
 30
0.0
 10
2.545913
 20
5.561851
 30
0.0
 10
2.540162
 20
5.610463
 30
0.0
 10
2.558513
 20
5.628815
 30
0.0
  0
SPLINE
  5
20a
100
AcDbEntity
  8
Layer_1
 62
7
100
AcDbSpline
 70
8
 71
3
 72
8
 73
4
 74
0
 40
0
 40
0
 40
0
 40
0
 40
1
 40
1
 40
1
 40
1
 10
2.558513
 20
5.628815
 30
0.0
 10
2.576863
 20
5.647150
 30
0.0
 10
2.610530
 20
5.613575
 30
0.0
 10
2.633330
 20
5.554152
 30
0.0
  0
SPLINE
  5
20b
100
AcDbEntity
  8
Layer_1
 62
7
100
AcDbSpline
 70
8
 71
3
 72
8
 73
4
 74
0
 40
0
 40
0
 40
0
 40
0
 40
1
 40
1
 40
1
 40
1
 10
2.633330
 20
5.554152
 30
0.0
 10
2.680665
 20
5.430795
 30
0.0
 10
2.640320
 20
5.409099
 30
0.0
 10
2.571292
 20
5.520788
 30
0.0
  0
LINE
  5
20c
100
AcDbEntity
  8
Layer_1
 62
7
100
AcDbLine
 10
2.571292
 20
5.520788
 30
0.0
 11
2.571292
 21
5.520788
 31
0.0
  0
SPLINE
  5
20d
100
AcDbEntity
  8
Layer_1
 62
7
100
AcDbSpline
 70
8
 71
3
 72
8
 73
4
 74
0
 40
0
 40
0
 40
0
 40
0
 40
1
 40
1
 40
1
 40
1
 10
2.591672
 20
5.766168
 30
0.0
 10
2.463105
 20
5.896724
 30
0.0
 10
2.616992
 20
6.351971
 30
0.0
 10
2.791901
 20
6.358512
 30
0.0
  0
SPLINE
  5
20e
100
AcDbEntity
  8
Layer_1
 62
7
100
AcDbSpline
 70
8
 71
3
 72
8
 73
4
 74
0
 40
0
 40
0
 40
0
 40
0
 40
1
 40
1
 40
1
 40
1
 10
2.791901
 20
6.358512
 30
0.0
 10
2.908308
 20
6.362877
 30
0.0
 10
3.169207
 20
6.623148
 30
0.0
 10
3.169207
 20
6.734926
 30
0.0
  0
SPLINE
  5
20f
100
AcDbEntity
  8
Layer_1
 62
7
100
AcDbSpline
 70
8
 71
3
 72
8
 73
4
 74
0
 40
0
 40
0
 40
0
 40
0
 40
1
 40
1
 40
1
 40
1
 10
3.169207
 20
6.734926
 30
0.0
 10
3.169207
 20
6.875841
 30
0.0
 10
3.057181
 20
6.880095
 30
0.0
 10
3.003883
 20
6.741197
 30
0.0
  0
SPLINE
  5
210
100
AcDbEntity
  8
Layer_1
 62
7
100
AcDbSpline
 70
8
 71
3
 72
8
 73
4
 74
0
 40
0
 40
0
 40
0
 40
0
 40
1
 40
1
 40
1
 40
1
 10
3.003883
 20
6.741197
 30
0.0
 10
2.981722
 20
6.683444
 30
0.0
 10
2.927241
 20
6.636192
 30
0.0
 10
2.882816
 20
6.636192
 30
0.0
  0
SPLINE
  5
211
100
AcDbEntity
  8
Layer_1
 62
7
100
AcDbSpline
 70
8
 71
3
 72
8
 73
4
 74
0
 40
0
 40
0
 40
0
 40
0
 40
1
 40
1
 40
1
 40
1
 10
2.882816
 20
6.636192
 30
0.0
 10
2.824314
 20
6.636192
 30
0.0
 10
2.825867
 20
6.664899
 30
0.0
 10
2.888451
 20
6.740308
 30
0.0
  0
SPLINE
  5
212
100
AcDbEntity
  8
Layer_1
 62
7
100
AcDbSpline
 70
8
 71
3
 72
8
 73
4
 74
0
 40
0
 40
0
 40
0
 40
0
 40
1
 40
1
 40
1
 40
1
 10
2.888451
 20
6.740308
 30
0.0
 10
2.935976
 20
6.797569
 30
0.0
 10
2.956572
 20
6.892076
 30
0.0
 10
2.934222
 20
6.950321
 30
0.0
  0
SPLINE
  5
213
100
AcDbEntity
  8
Layer_1
 62
7
100
AcDbSpline
 70
8
 71
3
 72
8
 73
4
 74
0
 40
0
 40
0
 40
0
 40
0
 40
1
 40
1
 40
1
 40
1
 10
2.934222
 20
6.950321
 30
0.0
 10
2.908878
 20
7.016366
 30
0.0
 10
2.933825
 20
7.056218
 30
0.0
 10
3.000526
 20
7.056218
 30
0.0
  0
SPLINE
  5
214
100
AcDbEntity
  8
Layer_1
 62
7
100
AcDbSpline
 70
8
 71
3
 72
8
 73
4
 74
0
 40
0
 40
0
 40
0
 40
0
 40
1
 40
1
 40
1
 40
1
 10
3.000526
 20
7.056218
 30
0.0
 10
3.059344
 20
7.056218
 30
0.0
 10
3.087998
 20
7.024717
 30
0.0
 10
3.064202
 20
6.986214
 30
0.0
  0
SPLINE
  5
215
100
AcDbEntity
  8
Layer_1
 62
7
100
AcDbSpline
 70
8
 71
3
 72
8
 73
4
 74
0
 40
0
 40
0
 40
0
 40
0
 40
1
 40
1
 40
1
 40
1
 10
3.064202
 20
6.986214
 30
0.0
 10
3.040405
 20
6.947712
 30
0.0
 10
3.054299
 20
6.916208
 30
0.0
 10
3.095073
 20
6.916208
 30
0.0
  0
SPLINE
  5
216
100
AcDbEntity
  8
Layer_1
 62
7
100
AcDbSpline
 70
8
 71
3
 72
8
 73
4
 74
0
 40
0
 40
0
 40
0
 40
0
 40
1
 40
1
 40
1
 40
1
 10
3.095073
 20
6.916208
 30
0.0
 10
3.135847
 20
6.916208
 30
0.0
 10
3.169209
 20
6.952962
 30
0.0
 10
3.169209
 20
6.997880
 30
0.0
  0
SPLINE
  5
217
100
AcDbEntity
  8
Layer_1
 62
7
100
AcDbSpline
 70
8
 71
3
 72
8
 73
4
 74
0
 40
0
 40
0
 40
0
 40
0
 40
1
 40
1
 40
1
 40
1
 10
3.169209
 20
6.997880
 30
0.0
 10
3.169209
 20
7.167234
 30
0.0
 10
3.260363
 20
6.980285
 30
0.0
 10
3.267133
 20
6.797040
 30
0.0
  0
SPLINE
  5
218
100
AcDbEntity
  8
Layer_1
 62
7
100
AcDbSpline
 70
8
 71
3
 72
8
 73
4
 74
0
 40
0
 40
0
 40
0
 40
0
 40
1
 40
1
 40
1
 40
1
 10
3.267133
 20
6.797040
 30
0.0
 10
3.271171
 20
6.687794
 30
0.0
 10
3.207047
 20
6.532954
 30
0.0
 10
3.118017
 20
6.436963
 30
0.0
  0
SPLINE
  5
219
100
AcDbEntity
  8
Layer_1
 62
7
100
AcDbSpline
 70
8
 71
3
 72
8
 73
4
 74
0
 40
0
 40
0
 40
0
 40
0
 40
1
 40
1
 40
1
 40
1
 10
3.118017
 20
6.436963
 30
0.0
 10
3.032108
 20
6.344341
 30
0.0
 10
2.977493
 20
6.243193
 30
0.0
 10
2.996651
 20
6.212197
 30
0.0
  0
SPLINE
  5
21a
100
AcDbEntity
  8
Layer_1
 62
7
100
AcDbSpline
 70
8
 71
3
 72
8
 73
4
 74
0
 40
0
 40
0
 40
0
 40
0
 40
1
 40
1
 40
1
 40
1
 10
2.996651
 20
6.212197
 30
0.0
 10
3.015810
 20
6.181198
 30
0.0
 10
2.994614
 20
6.133042
 30
0.0
 10
2.949521
 20
6.105181
 30
0.0
  0
SPLINE
  5
21b
100
AcDbEntity
  8
Layer_1
 62
7
100
AcDbSpline
 70
8
 71
3
 72
8
 73
4
 74
0
 40
0
 40
0
 40
0
 40
0
 40
1
 40
1
 40
1
 40
1
 10
2.949521
 20
6.105181
 30
0.0
 10
2.898332
 20
6.073545
 30
0.0
 10
2.886313
 20
6.084861
 30
0.0
 10
2.917509
 20
6.135346
 30
0.0
  0
SPLINE
  5
21c
100
AcDbEntity
  8
Layer_1
 62
7
100
AcDbSpline
 70
8
 71
3
 72
8
 73
4
 74
0
 40
0
 40
0
 40
0
 40
0
 40
1
 40
1
 40
1
 40
1
 10
2.917509
 20
6.135346
 30
0.0
 10
2.984908
 20
6.244399
 30
0.0
 10
2.854854
 20
6.238719
 30
0.0
 10
2.764462
 20
6.128652
 30
0.0
  0
SPLINE
  5
21d
100
AcDbEntity
  8
Layer_1
 62
7
100
AcDbSpline
 70
8
 71
3
 72
8
 73
4
 74
0
 40
0
 40
0
 40
0
 40
0
 40
1
 40
1
 40
1
 40
1
 10
2.764462
 20
6.128652
 30
0.0
 10
2.724934
 20
6.080525
 30
0.0
 10
2.681700
 20
5.967278
 30
0.0
 10
2.668385
 20
5.876991
 30
0.0
  0
SPLINE
  5
21e
100
AcDbEntity
  8
Layer_1
 62
7
100
AcDbSpline
 70
8
 71
3
 72
8
 73
4
 74
0
 40
0
 40
0
 40
0
 40
0
 40
1
 40
1
 40
1
 40
1
 10
2.668385
 20
5.876991
 30
0.0
 10
2.655071
 20
5.786705
 30
0.0
 10
2.620550
 20
5.736828
 30
0.0
 10
2.591673
 20
5.766152
 30
0.0
  0
LINE
  5
21f
100
AcDbEntity
  8
Layer_1
 62
7
100
AcDbLine
 10
2.591673
 20
5.766152
 30
0.0
 11
2.591672
 21
5.766168
 31
0.0
  0
SPLINE
  5
220
100
AcDbEntity
  8
Layer_1
 62
7
100
AcDbSpline
 70
8
 71
3
 72
8
 73
4
 74
0
 40
0
 40
0
 40
0
 40
0
 40
1
 40
1
 40
1
 40
1
 10
3.061411
 20
5.824532
 30
0.0
 10
2.935552
 20
5.916565
 30
0.0
 10
2.939212
 20
5.920560
 30
0.0
 10
3.118035
 20
5.886376
 30
0.0
  0
SPLINE
  5
221
100
AcDbEntity
  8
Layer_1
 62
7
100
AcDbSpline
 70
8
 71
3
 72
8
 73
4
 74
0
 40
0
 40
0
 40
0
 40
0
 40
1
 40
1
 40
1
 40
1
 10
3.118035
 20
5.886376
 30
0.0
 10
3.223185
 20
5.866268
 30
0.0
 10
3.309216
 20
5.822000
 30
0.0
 10
3.309216
 20
5.787988
 30
0.0
  0
SPLINE
  5
222
100
AcDbEntity
  8
Layer_1
 62
7
100
AcDbSpline
 70
8
 71
3
 72
8
 73
4
 74
0
 40
0
 40
0
 40
0
 40
0
 40
1
 40
1
 40
1
 40
1
 10
3.309216
 20
5.787988
 30
0.0
 10
3.309216
 20
5.698186
 30
0.0
 10
3.215250
 20
5.712045
 30
0.0
 10
3.061411
 20
5.824532
 30
0.0
  0
LINE
  5
223
100
AcDbEntity
  8
Layer_1
 62
7
100
AcDbLine
 10
3.061411
 20
5.824532
 30
0.0
 11
3.061411
 21
5.824532
 31
0.0
  0
SPLINE
  5
224
100
AcDbEntity
  8
Layer_1
 62
7
100
AcDbSpline
 70
8
 71
3
 72
8
 73
4
 74
0
 40
0
 40
0
 40
0
 40
0
 40
1
 40
1
 40
1
 40
1
 10
4.315478
 20
5.982012
 30
0.0
 10
4.157533
 20
6.015559
 30
0.0
 10
3.794625
 20
6.356183
 30
0.0
 10
3.916830
 20
6.356183
 30
0.0
  0
SPLINE
  5
225
100
AcDbEntity
  8
Layer_1
 62
7
100
AcDbSpline
 70
8
 71
3
 72
8
 73
4
 74
0
 40
0
 40
0
 40
0
 40
0
 40
1
 40
1
 40
1
 40
1
 10
3.916830
 20
6.356183
 30
0.0
 10
3.956422
 20
6.356183
 30
0.0
 10
4.073793
 20
6.434937
 30
0.0
 10
4.177655
 20
6.531192
 30
0.0
  0
SPLINE
  5
226
100
AcDbEntity
  8
Layer_1
 62
7
100
AcDbSpline
 70
8
 71
3
 72
8
 73
4
 74
0
 40
0
 40
0
 40
0
 40
0
 40
1
 40
1
 40
1
 40
1
 10
4.177655
 20
6.531192
 30
0.0
 10
4.281517
 20
6.627450
 30
0.0
 10
4.404249
 20
6.705722
 30
0.0
 10
4.450394
 20
6.705132
 30
0.0
  0
SPLINE
  5
227
100
AcDbEntity
  8
Layer_1
 62
7
100
AcDbSpline
 70
8
 71
3
 72
8
 73
4
 74
0
 40
0
 40
0
 40
0
 40
0
 40
1
 40
1
 40
1
 40
1
 10
4.450394
 20
6.705132
 30
0.0
 10
4.501536
 20
6.704603
 30
0.0
 10
4.493295
 20
6.677565
 30
0.0
 10
4.429285
 20
6.636200
 30
0.0
  0
SPLINE
  5
228
100
AcDbEntity
  8
Layer_1
 62
7
100
AcDbSpline
 70
8
 71
3
 72
8
 73
4
 74
0
 40
0
 40
0
 40
0
 40
0
 40
1
 40
1
 40
1
 40
1
 10
4.429285
 20
6.636200
 30
0.0
 10
4.349602
 20
6.584704
 30
0.0
 10
4.379146
 20
6.568080
 30
0.0
 10
4.551793
 20
6.567268
 30
0.0
  0
SPLINE
  5
229
100
AcDbEntity
  8
Layer_1
 62
7
100
AcDbSpline
 70
8
 71
3
 72
8
 73
4
 74
0
 40
0
 40
0
 40
0
 40
0
 40
1
 40
1
 40
1
 40
1
 10
4.551793
 20
6.567268
 30
0.0
 10
4.682674
 20
6.566739
 30
0.0
 10
4.779307
 20
6.601875
 30
0.0
 10
4.779307
 20
6.650202
 30
0.0
  0
SPLINE
  5
22a
100
AcDbEntity
  8
Layer_1
 62
7
100
AcDbSpline
 70
8
 71
3
 72
8
 73
4
 74
0
 40
0
 40
0
 40
0
 40
0
 40
1
 40
1
 40
1
 40
1
 10
4.779307
 20
6.650202
 30
0.0
 10
4.779307
 20
6.777625
 30
0.0
 10
4.925032
 20
6.611657
 30
0.0
 10
4.947487
 20
6.458656
 30
0.0
  0
SPLINE
  5
22b
100
AcDbEntity
  8
Layer_1
 62
7
100
AcDbSpline
 70
8
 71
3
 72
8
 73
4
 74
0
 40
0
 40
0
 40
0
 40
0
 40
1
 40
1
 40
1
 40
1
 10
4.947487
 20
6.458656
 30
0.0
 10
4.970215
 20
6.303806
 30
0.0
 10
5.175193
 20
6.262306
 30
0.0
 10
5.228693
 20
6.401726
 30
0.0
  0
SPLINE
  5
22c
100
AcDbEntity
  8
Layer_1
 62
7
100
AcDbSpline
 70
8
 71
3
 72
8
 73
4
 74
0
 40
0
 40
0
 40
0
 40
0
 40
1
 40
1
 40
1
 40
1
 10
5.228693
 20
6.401726
 30
0.0
 10
5.250510
 20
6.458580
 30
0.0
 10
5.237205
 20
6.484594
 30
0.0
 10
5.198531
 20
6.460694
 30
0.0
  0
SPLINE
  5
22d
100
AcDbEntity
  8
Layer_1
 62
7
100
AcDbSpline
 70
8
 71
3
 72
8
 73
4
 74
0
 40
0
 40
0
 40
0
 40
0
 40
1
 40
1
 40
1
 40
1
 10
5.198531
 20
6.460694
 30
0.0
 10
5.160470
 20
6.437172
 30
0.0
 10
5.129328
 20
6.467044
 30
0.0
 10
5.129328
 20
6.527062
 30
0.0
  0
SPLINE
  5
22e
100
AcDbEntity
  8
Layer_1
 62
7
100
AcDbSpline
 70
8
 71
3
 72
8
 73
4
 74
0
 40
0
 40
0
 40
0
 40
0
 40
1
 40
1
 40
1
 40
1
 10
5.129328
 20
6.527062
 30
0.0
 10
5.129328
 20
6.587088
 30
0.0
 10
5.158971
 20
6.636200
 30
0.0
 10
5.195201
 20
6.636200
 30
0.0
  0
SPLINE
  5
22f
100
AcDbEntity
  8
Layer_1
 62
7
100
AcDbSpline
 70
8
 71
3
 72
8
 73
4
 74
0
 40
0
 40
0
 40
0
 40
0
 40
1
 40
1
 40
1
 40
1
 10
5.195201
 20
6.636200
 30
0.0
 10
5.351389
 20
6.636200
 30
0.0
 10
5.437836
 20
6.260203
 30
0.0
 10
5.328584
 20
6.056064
 30
0.0
  0
SPLINE
  5
230
100
AcDbEntity
  8
Layer_1
 62
7
100
AcDbSpline
 70
8
 71
3
 72
8
 73
4
 74
0
 40
0
 40
0
 40
0
 40
0
 40
1
 40
1
 40
1
 40
1
 10
5.328584
 20
6.056064
 30
0.0
 10
5.259887
 20
5.927701
 30
0.0
 10
5.246062
 20
5.925148
 30
0.0
 10
5.187400
 20
6.029976
 30
0.0
  0
SPLINE
  5
231
100
AcDbEntity
  8
Layer_1
 62
7
100
AcDbSpline
 70
8
 71
3
 72
8
 73
4
 74
0
 40
0
 40
0
 40
0
 40
0
 40
1
 40
1
 40
1
 40
1
 10
5.187400
 20
6.029976
 30
0.0
 10
5.141261
 20
6.112423
 30
0.0
 10
5.036960
 20
6.143292
 30
0.0
 10
4.828332
 20
6.136243
 30
0.0
  0
LINE
  5
232
100
AcDbEntity
  8
Layer_1
 62
7
100
AcDbLine
 10
4.828332
 20
6.136243
 30
0.0
 11
4.534292
 21
6.126295
 31
0.0
  0
LINE
  5
233
100
AcDbEntity
  8
Layer_1
 62
7
100
AcDbLine
 10
4.534292
 20
6.126295
 30
0.0
 11
4.814309
 21
6.076159
 31
0.0
  0
SPLINE
  5
234
100
AcDbEntity
  8
Layer_1
 62
7
100
AcDbSpline
 70
8
 71
3
 72
8
 73
4
 74
0
 40
0
 40
0
 40
0
 40
0
 40
1
 40
1
 40
1
 40
1
 10
4.814309
 20
6.076159
 30
0.0
 10
4.968319
 20
6.048584
 30
0.0
 10
5.043136
 20
6.021554
 30
0.0
 10
4.980569
 20
6.016091
 30
0.0
  0
SPLINE
  5
235
100
AcDbEntity
  8
Layer_1
 62
7
100
AcDbSpline
 70
8
 71
3
 72
8
 73
4
 74
0
 40
0
 40
0
 40
0
 40
0
 40
1
 40
1
 40
1
 40
1
 10
4.980569
 20
6.016091
 30
0.0
 10
4.918003
 20
6.010614
 30
0.0
 10
4.776244
 20
5.993601
 30
0.0
 10
4.665550
 20
5.978279
 30
0.0
  0
SPLINE
  5
236
100
AcDbEntity
  8
Layer_1
 62
7
100
AcDbSpline
 70
8
 71
3
 72
8
 73
4
 74
0
 40
0
 40
0
 40
0
 40
0
 40
1
 40
1
 40
1
 40
1
 10
4.665550
 20
5.978279
 30
0.0
 10
4.554855
 20
5.962933
 30
0.0
 10
4.397323
 20
5.964626
 30
0.0
 10
4.315477
 20
5.982010
 30
0.0
  0
LINE
  5
237
100
AcDbEntity
  8
Layer_1
 62
7
100
AcDbLine
 10
4.315477
 20
5.982010
 30
0.0
 11
4.315478
 21
5.982012
 31
0.0
  0
SPLINE
  5
238
100
AcDbEntity
  8
Layer_1
 62
7
100
AcDbSpline
 70
8
 71
3
 72
8
 73
4
 74
0
 40
0
 40
0
 40
0
 40
0
 40
1
 40
1
 40
1
 40
1
 10
4.779307
 20
6.394323
 30
0.0
 10
4.779307
 20
6.407049
 30
0.0
 10
4.718486
 20
6.412897
 30
0.0
 10
4.644148
 20
6.407314
 30
0.0
  0
SPLINE
  5
239
100
AcDbEntity
  8
Layer_1
 62
7
100
AcDbSpline
 70
8
 71
3
 72
8
 73
4
 74
0
 40
0
 40
0
 40
0
 40
0
 40
1
 40
1
 40
1
 40
1
 10
4.644148
 20
6.407314
 30
0.0
 10
4.569811
 20
6.401705
 30
0.0
 10
4.523567
 20
6.373548
 30
0.0
 10
4.541384
 20
6.344719
 30
0.0
  0
SPLINE
  5
23a
100
AcDbEntity
  8
Layer_1
 62
7
100
AcDbSpline
 70
8
 71
3
 72
8
 73
4
 74
0
 40
0
 40
0
 40
0
 40
0
 40
1
 40
1
 40
1
 40
1
 10
4.541384
 20
6.344719
 30
0.0
 10
4.570956
 20
6.296869
 30
0.0
 10
4.779307
 20
6.340327
 30
0.0
 10
4.779307
 20
6.394334
 30
0.0
  0
LINE
  5
23b
100
AcDbEntity
  8
Layer_1
 62
7
100
AcDbLine
 10
4.779307
 20
6.394334
 30
0.0
 11
4.779307
 21
6.394323
 31
0.0
  0
SPLINE
  5
23c
100
AcDbEntity
  8
Layer_1
 62
7
100
AcDbSpline
 70
8
 71
3
 72
8
 73
4
 74
0
 40
0
 40
0
 40
0
 40
0
 40
1
 40
1
 40
1
 40
1
 10
6.028316
 20
6.146170
 30
0.0
 10
5.942918
 20
6.261677
 30
0.0
 10
5.823843
 20
6.356665
 30
0.0
 10
5.763704
 20
6.357255
 30
0.0
  0
SPLINE
  5
23d
100
AcDbEntity
  8
Layer_1
 62
7
100
AcDbSpline
 70
8
 71
3
 72
8
 73
4
 74
0
 40
0
 40
0
 40
0
 40
0
 40
1
 40
1
 40
1
 40
1
 10
5.763704
 20
6.357255
 30
0.0
 10
5.677258
 20
6.358049
 30
0.0
 10
5.673879
 20
6.370696
 30
0.0
 10
5.747567
 20
6.417413
 30
0.0
  0
SPLINE
  5
23e
100
AcDbEntity
  8
Layer_1
 62
7
100
AcDbSpline
 70
8
 71
3
 72
8
 73
4
 74
0
 40
0
 40
0
 40
0
 40
0
 40
1
 40
1
 40
1
 40
1
 10
5.747567
 20
6.417413
 30
0.0
 10
5.798831
 20
6.449909
 30
0.0
 10
5.937960
 20
6.465184
 30
0.0
 10
6.056743
 20
6.451351
 30
0.0
  0
SPLINE
  5
23f
100
AcDbEntity
  8
Layer_1
 62
7
100
AcDbSpline
 70
8
 71
3
 72
8
 73
4
 74
0
 40
0
 40
0
 40
0
 40
0
 40
1
 40
1
 40
1
 40
1
 10
6.056743
 20
6.451351
 30
0.0
 10
6.175527
 20
6.437514
 30
0.0
 10
6.252193
 20
6.446721
 30
0.0
 10
6.227113
 20
6.471804
 30
0.0
  0
SPLINE
  5
240
100
AcDbEntity
  8
Layer_1
 62
7
100
AcDbSpline
 70
8
 71
3
 72
8
 73
4
 74
0
 40
0
 40
0
 40
0
 40
0
 40
1
 40
1
 40
1
 40
1
 10
6.227113
 20
6.471804
 30
0.0
 10
6.202033
 20
6.496886
 30
0.0
 10
6.263392
 20
6.559883
 30
0.0
 10
6.363466
 20
6.611803
 30
0.0
  0
SPLINE
  5
241
100
AcDbEntity
  8
Layer_1
 62
7
100
AcDbSpline
 70
8
 71
3
 72
8
 73
4
 74
0
 40
0
 40
0
 40
0
 40
0
 40
1
 40
1
 40
1
 40
1
 10
6.363466
 20
6.611803
 30
0.0
 10
6.586054
 20
6.727283
 30
0.0
 10
6.622252
 20
6.729775
 30
0.0
 10
6.557602
 20
6.625164
 30
0.0
  0
SPLINE
  5
242
100
AcDbEntity
  8
Layer_1
 62
7
100
AcDbSpline
 70
8
 71
3
 72
8
 73
4
 74
0
 40
0
 40
0
 40
0
 40
0
 40
1
 40
1
 40
1
 40
1
 10
6.557602
 20
6.625164
 30
0.0
 10
6.523738
 20
6.570371
 30
0.0
 10
6.553477
 20
6.556150
 30
0.0
 10
6.649449
 20
6.581248
 30
0.0
  0
SPLINE
  5
243
100
AcDbEntity
  8
Layer_1
 62
7
100
AcDbSpline
 70
8
 71
3
 72
8
 73
4
 74
0
 40
0
 40
0
 40
0
 40
0
 40
1
 40
1
 40
1
 40
1
 10
6.649449
 20
6.581248
 30
0.0
 10
6.738115
 20
6.604426
 30
0.0
 10
6.825111
 20
6.571565
 30
0.0
 10
6.881274
 20
6.493634
 30
0.0
  0
SPLINE
  5
244
100
AcDbEntity
  8
Layer_1
 62
7
100
AcDbSpline
 70
8
 71
3
 72
8
 73
4
 74
0
 40
0
 40
0
 40
0
 40
0
 40
1
 40
1
 40
1
 40
1
 10
6.881274
 20
6.493634
 30
0.0
 10
6.930718
 20
6.425036
 30
0.0
 10
7.010349
 20
6.383941
 30
0.0
 10
7.058232
 20
6.402316
 30
0.0
  0
SPLINE
  5
245
100
AcDbEntity
  8
Layer_1
 62
7
100
AcDbSpline
 70
8
 71
3
 72
8
 73
4
 74
0
 40
0
 40
0
 40
0
 40
0
 40
1
 40
1
 40
1
 40
1
 10
7.058232
 20
6.402316
 30
0.0
 10
7.259503
 20
6.479551
 30
0.0
 10
7.217632
 20
6.276814
 30
0.0
 10
7.005410
 20
6.146551
 30
0.0
  0
SPLINE
  5
246
100
AcDbEntity
  8
Layer_1
 62
7
100
AcDbSpline
 70
8
 71
3
 72
8
 73
4
 74
0
 40
0
 40
0
 40
0
 40
0
 40
1
 40
1
 40
1
 40
1
 10
7.005410
 20
6.146551
 30
0.0
 10
6.826473
 20
6.036720
 30
0.0
 10
6.703453
 20
6.013942
 30
0.0
 10
6.459411
 20
6.045457
 30
0.0
  0
SPLINE
  5
247
100
AcDbEntity
  8
Layer_1
 62
7
100
AcDbSpline
 70
8
 71
3
 72
8
 73
4
 74
0
 40
0
 40
0
 40
0
 40
0
 40
1
 40
1
 40
1
 40
1
 10
6.459411
 20
6.045457
 30
0.0
 10
6.227457
 20
6.075413
 30
0.0
 10
6.172080
 20
6.066650
 30
0.0
 10
6.249398
 20
6.012217
 30
0.0
  0
SPLINE
  5
248
100
AcDbEntity
  8
Layer_1
 62
7
100
AcDbSpline
 70
8
 71
3
 72
8
 73
4
 74
0
 40
0
 40
0
 40
0
 40
0
 40
1
 40
1
 40
1
 40
1
 10
6.249398
 20
6.012217
 30
0.0
 10
6.317272
 20
5.964433
 30
0.0
 10
6.324202
 20
5.937914
 30
0.0
 10
6.268996
 20
5.937221
 30
0.0
  0
SPLINE
  5
249
100
AcDbEntity
  8
Layer_1
 62
7
100
AcDbSpline
 70
8
 71
3
 72
8
 73
4
 74
0
 40
0
 40
0
 40
0
 40
0
 40
1
 40
1
 40
1
 40
1
 10
6.268996
 20
5.937221
 30
0.0
 10
6.222021
 20
5.936692
 30
0.0
 10
6.113715
 20
6.030653
 30
0.0
 10
6.028317
 20
6.146162
 30
0.0
  0
LINE
  5
24a
100
AcDbEntity
  8
Layer_1
 62
7
100
AcDbLine
 10
6.028317
 20
6.146162
 30
0.0
 11
6.028316
 21
6.146170
 31
0.0
  0
SPLINE
  5
24b
100
AcDbEntity
  8
Layer_1
 62
7
100
AcDbSpline
 70
8
 71
3
 72
8
 73
4
 74
0
 40
0
 40
0
 40
0
 40
0
 40
1
 40
1
 40
1
 40
1
 10
6.249399
 20
6.286177
 30
0.0
 10
6.249399
 20
6.324679
 30
0.0
 10
6.235505
 20
6.356183
 30
0.0
 10
6.218528
 20
6.356183
 30
0.0
  0
SPLINE
  5
24c
100
AcDbEntity
  8
Layer_1
 62
7
100
AcDbSpline
 70
8
 71
3
 72
8
 73
4
 74
0
 40
0
 40
0
 40
0
 40
0
 40
1
 40
1
 40
1
 40
1
 10
6.218528
 20
6.356183
 30
0.0
 10
6.201549
 20
6.356183
 30
0.0
 10
6.168188
 20
6.324679
 30
0.0
 10
6.144392
 20
6.286177
 30
0.0
  0
SPLINE
  5
24d
100
AcDbEntity
  8
Layer_1
 62
7
100
AcDbSpline
 70
8
 71
3
 72
8
 73
4
 74
0
 40
0
 40
0
 40
0
 40
0
 40
1
 40
1
 40
1
 40
1
 10
6.144392
 20
6.286177
 30
0.0
 10
6.120595
 20
6.247675
 30
0.0
 10
6.134489
 20
6.216174
 30
0.0
 10
6.175263
 20
6.216174
 30
0.0
  0
SPLINE
  5
24e
100
AcDbEntity
  8
Layer_1
 62
7
100
AcDbSpline
 70
8
 71
3
 72
8
 73
4
 74
0
 40
0
 40
0
 40
0
 40
0
 40
1
 40
1
 40
1
 40
1
 10
6.175263
 20
6.216174
 30
0.0
 10
6.216037
 20
6.216174
 30
0.0
 10
6.249399
 20
6.247675
 30
0.0
 10
6.249399
 20
6.286177
 30
0.0
  0
LINE
  5
24f
100
AcDbEntity
  8
Layer_1
 62
7
100
AcDbLine
 10
6.249399
 20
6.286177
 30
0.0
 11
6.249399
 21
6.286177
 31
0.0
  0
SPLINE
  5
250
100
AcDbEntity
  8
Layer_1
 62
7
100
AcDbSpline
 70
8
 71
3
 72
8
 73
4
 74
0
 40
0
 40
0
 40
0
 40
0
 40
1
 40
1
 40
1
 40
1
 10
7.770826
 20
6.084850
 30
0.0
 10
7.818313
 20
6.132695
 30
0.0
 10
7.874799
 20
6.154203
 30
0.0
 10
7.896353
 20
6.132650
 30
0.0
  0
SPLINE
  5
251
100
AcDbEntity
  8
Layer_1
 62
7
100
AcDbSpline
 70
8
 71
3
 72
8
 73
4
 74
0
 40
0
 40
0
 40
0
 40
0
 40
1
 40
1
 40
1
 40
1
 10
7.896353
 20
6.132650
 30
0.0
 10
7.917906
 20
6.111087
 30
0.0
 10
7.879054
 20
6.071952
 30
0.0
 10
7.810014
 20
6.045663
 30
0.0
  0
SPLINE
  5
252
100
AcDbEntity
  8
Layer_1
 62
7
100
AcDbSpline
 70
8
 71
3
 72
8
 73
4
 74
0
 40
0
 40
0
 40
0
 40
0
 40
1
 40
1
 40
1
 40
1
 10
7.810014
 20
6.045663
 30
0.0
 10
7.710244
 20
6.007674
 30
0.0
 10
7.702203
 20
6.015715
 30
0.0
 10
7.770826
 20
6.084850
 30
0.0
  0
LINE
  5
253
100
AcDbEntity
  8
Layer_1
 62
7
100
AcDbLine
 10
7.770826
 20
6.084850
 30
0.0
 11
7.770826
 21
6.084850
 31
0.0
  0
SPLINE
  5
254
100
AcDbEntity
  8
Layer_1
 62
7
100
AcDbSpline
 70
8
 71
3
 72
8
 73
4
 74
0
 40
0
 40
0
 40
0
 40
0
 40
1
 40
1
 40
1
 40
1
 10
8.699550
 20
6.076172
 30
0.0
 10
8.699550
 20
6.114674
 30
0.0
 10
8.731052
 20
6.146178
 30
0.0
 10
8.769555
 20
6.146178
 30
0.0
  0
SPLINE
  5
255
100
AcDbEntity
  8
Layer_1
 62
7
100
AcDbSpline
 70
8
 71
3
 72
8
 73
4
 74
0
 40
0
 40
0
 40
0
 40
0
 40
1
 40
1
 40
1
 40
1
 10
8.769555
 20
6.146178
 30
0.0
 10
8.808057
 20
6.146178
 30
0.0
 10
8.839559
 20
6.114674
 30
0.0
 10
8.839559
 20
6.076172
 30
0.0
  0
SPLINE
  5
256
100
AcDbEntity
  8
Layer_1
 62
7
100
AcDbSpline
 70
8
 71
3
 72
8
 73
4
 74
0
 40
0
 40
0
 40
0
 40
0
 40
1
 40
1
 40
1
 40
1
 10
8.839559
 20
6.076172
 30
0.0
 10
8.839559
 20
6.037670
 30
0.0
 10
8.808057
 20
6.006169
 30
0.0
 10
8.769555
 20
6.006169
 30
0.0
  0
SPLINE
  5
257
100
AcDbEntity
  8
Layer_1
 62
7
100
AcDbSpline
 70
8
 71
3
 72
8
 73
4
 74
0
 40
0
 40
0
 40
0
 40
0
 40
1
 40
1
 40
1
 40
1
 10
8.769555
 20
6.006169
 30
0.0
 10
8.731052
 20
6.006169
 30
0.0
 10
8.699550
 20
6.037670
 30
0.0
 10
8.699550
 20
6.076172
 30
0.0
  0
LINE
  5
258
100
AcDbEntity
  8
Layer_1
 62
7
100
AcDbLine
 10
8.699550
 20
6.076172
 30
0.0
 11
8.699550
 21
6.076172
 31
0.0
  0
SPLINE
  5
259
100
AcDbEntity
  8
Layer_1
 62
7
100
AcDbSpline
 70
8
 71
3
 72
8
 73
4
 74
0
 40
0
 40
0
 40
0
 40
0
 40
1
 40
1
 40
1
 40
1
 10
3.384747
 20
6.537034
 30
0.0
 10
3.388107
 20
6.618586
 30
0.0
 10
3.404694
 20
6.635173
 30
0.0
 10
3.427042
 20
6.579330
 30
0.0
  0
SPLINE
  5
25a
100
AcDbEntity
  8
Layer_1
 62
7
100
AcDbSpline
 70
8
 71
3
 72
8
 73
4
 74
0
 40
0
 40
0
 40
0
 40
0
 40
1
 40
1
 40
1
 40
1
 10
3.427042
 20
6.579330
 30
0.0
 10
3.447264
 20
6.528795
 30
0.0
 10
3.444777
 20
6.468417
 30
0.0
 10
3.421514
 20
6.445155
 30
0.0
  0
SPLINE
  5
25b
100
AcDbEntity
  8
Layer_1
 62
7
100
AcDbSpline
 70
8
 71
3
 72
8
 73
4
 74
0
 40
0
 40
0
 40
0
 40
0
 40
1
 40
1
 40
1
 40
1
 10
3.421514
 20
6.445155
 30
0.0
 10
3.398252
 20
6.421898
 30
0.0
 10
3.381707
 20
6.463252
 30
0.0
 10
3.384747
 20
6.537034
 30
0.0
  0
LINE
  5
25c
100
AcDbEntity
  8
Layer_1
 62
7
100
AcDbLine
 10
3.384747
 20
6.537034
 30
0.0
 11
3.384747
 21
6.537034
 31
0.0
  0
SPLINE
  5
25d
100
AcDbEntity
  8
Layer_1
 62
7
100
AcDbSpline
 70
8
 71
3
 72
8
 73
4
 74
0
 40
0
 40
0
 40
0
 40
0
 40
1
 40
1
 40
1
 40
1
 10
3.978269
 20
6.595483
 30
0.0
 10
4.124897
 20
6.702700
 30
0.0
 10
4.191344
 20
6.690918
 30
0.0
 10
4.117145
 20
6.570850
 30
0.0
  0
SPLINE
  5
25e
100
AcDbEntity
  8
Layer_1
 62
7
100
AcDbSpline
 70
8
 71
3
 72
8
 73
4
 74
0
 40
0
 40
0
 40
0
 40
0
 40
1
 40
1
 40
1
 40
1
 10
4.117145
 20
6.570850
 30
0.0
 10
4.091766
 20
6.529787
 30
0.0
 10
4.019586
 20
6.496188
 30
0.0
 10
3.956746
 20
6.496188
 30
0.0
  0
SPLINE
  5
25f
100
AcDbEntity
  8
Layer_1
 62
7
100
AcDbSpline
 70
8
 71
3
 72
8
 73
4
 74
0
 40
0
 40
0
 40
0
 40
0
 40
1
 40
1
 40
1
 40
1
 10
3.956746
 20
6.496188
 30
0.0
 10
3.861193
 20
6.496188
 30
0.0
 10
3.864716
 20
6.512433
 30
0.0
 10
3.978270
 20
6.595472
 30
0.0
  0
LINE
  5
260
100
AcDbEntity
  8
Layer_1
 62
7
100
AcDbLine
 10
3.978270
 20
6.595472
 30
0.0
 11
3.978269
 21
6.595483
 31
0.0
  0
SPLINE
  5
261
100
AcDbEntity
  8
Layer_1
 62
7
100
AcDbSpline
 70
8
 71
3
 72
8
 73
4
 74
0
 40
0
 40
0
 40
0
 40
0
 40
1
 40
1
 40
1
 40
1
 10
5.760772
 20
6.602891
 30
0.0
 10
5.809476
 20
6.661576
 30
0.0
 10
5.863740
 20
6.695173
 30
0.0
 10
5.881360
 20
6.677554
 30
0.0
  0
SPLINE
  5
262
100
AcDbEntity
  8
Layer_1
 62
7
100
AcDbSpline
 70
8
 71
3
 72
8
 73
4
 74
0
 40
0
 40
0
 40
0
 40
0
 40
1
 40
1
 40
1
 40
1
 10
5.881360
 20
6.677554
 30
0.0
 10
5.929908
 20
6.629006
 30
0.0
 10
5.831269
 20
6.496193
 30
0.0
 10
5.746665
 20
6.496193
 30
0.0
  0
SPLINE
  5
263
100
AcDbEntity
  8
Layer_1
 62
7
100
AcDbSpline
 70
8
 71
3
 72
8
 73
4
 74
0
 40
0
 40
0
 40
0
 40
0
 40
1
 40
1
 40
1
 40
1
 10
5.746665
 20
6.496193
 30
0.0
 10
5.700246
 20
6.496193
 30
0.0
 10
5.705556
 20
6.536362
 30
0.0
 10
5.760773
 20
6.602891
 30
0.0
  0
LINE
  5
264
100
AcDbEntity
  8
Layer_1
 62
7
100
AcDbLine
 10
5.760773
 20
6.602891
 30
0.0
 11
5.760772
 21
6.602891
 31
0.0
  0
SPLINE
  5
265
100
AcDbEntity
  8
Layer_1
 62
7
100
AcDbSpline
 70
8
 71
3
 72
8
 73
4
 74
0
 40
0
 40
0
 40
0
 40
0
 40
1
 40
1
 40
1
 40
1
 10
6.949442
 20
6.601304
 30
0.0
 10
6.876703
 20
6.688950
 30
0.0
 10
6.886496
 20
6.706309
 30
0.0
 10
7.008677
 20
6.706309
 30
0.0
  0
SPLINE
  5
266
100
AcDbEntity
  8
Layer_1
 62
7
100
AcDbSpline
 70
8
 71
3
 72
8
 73
4
 74
0
 40
0
 40
0
 40
0
 40
0
 40
1
 40
1
 40
1
 40
1
 10
7.008677
 20
6.706309
 30
0.0
 10
7.110035
 20
6.706309
 30
0.0
 10
7.142667
 20
6.674011
 30
0.0
 10
7.114766
 20
6.601304
 30
0.0
  0
SPLINE
  5
267
100
AcDbEntity
  8
Layer_1
 62
7
100
AcDbSpline
 70
8
 71
3
 72
8
 73
4
 74
0
 40
0
 40
0
 40
0
 40
0
 40
1
 40
1
 40
1
 40
1
 10
7.114766
 20
6.601304
 30
0.0
 10
7.092604
 20
6.543551
 30
0.0
 10
7.065948
 20
6.496296
 30
0.0
 10
7.055530
 20
6.496296
 30
0.0
  0
SPLINE
  5
268
100
AcDbEntity
  8
Layer_1
 62
7
100
AcDbSpline
 70
8
 71
3
 72
8
 73
4
 74
0
 40
0
 40
0
 40
0
 40
0
 40
1
 40
1
 40
1
 40
1
 10
7.055530
 20
6.496296
 30
0.0
 10
7.045114
 20
6.496296
 30
0.0
 10
6.997373
 20
6.543551
 30
0.0
 10
6.949442
 20
6.601304
 30
0.0
  0
LINE
  5
269
100
AcDbEntity
  8
Layer_1
 62
7
100
AcDbLine
 10
6.949442
 20
6.601304
 30
0.0
 11
6.949442
 21
6.601304
 31
0.0
  0
SPLINE
  5
26a
100
AcDbEntity
  8
Layer_1
 62
7
100
AcDbSpline
 70
8
 71
3
 72
8
 73
4
 74
0
 40
0
 40
0
 40
0
 40
0
 40
1
 40
1
 40
1
 40
1
 10
7.191767
 20
6.775114
 30
0.0
 10
7.095371
 20
6.871512
 30
0.0
 10
6.946236
 20
6.917804
 30
0.0
 10
6.703681
 20
6.926617
 30
0.0
  0
SPLINE
  5
26b
100
AcDbEntity
  8
Layer_1
 62
7
100
AcDbSpline
 70
8
 71
3
 72
8
 73
4
 74
0
 40
0
 40
0
 40
0
 40
0
 40
1
 40
1
 40
1
 40
1
 10
6.703681
 20
6.926617
 30
0.0
 10
6.511579
 20
6.933602
 30
0.0
 10
6.259899
 20
6.977298
 30
0.0
 10
6.144392
 20
7.023730
 30
0.0
  0
SPLINE
  5
26c
100
AcDbEntity
  8
Layer_1
 62
7
100
AcDbSpline
 70
8
 71
3
 72
8
 73
4
 74
0
 40
0
 40
0
 40
0
 40
0
 40
1
 40
1
 40
1
 40
1
 10
6.144392
 20
7.023730
 30
0.0
 10
6.028885
 20
7.070159
 30
0.0
 10
5.895002
 20
7.093865
 30
0.0
 10
5.846874
 20
7.076406
 30
0.0
  0
SPLINE
  5
26d
100
AcDbEntity
  8
Layer_1
 62
7
100
AcDbSpline
 70
8
 71
3
 72
8
 73
4
 74
0
 40
0
 40
0
 40
0
 40
0
 40
1
 40
1
 40
1
 40
1
 10
5.846874
 20
7.076406
 30
0.0
 10
5.798745
 20
7.058943
 30
0.0
 10
5.759368
 20
7.076141
 30
0.0
 10
5.759368
 20
7.114350
 30
0.0
  0
SPLINE
  5
26e
100
AcDbEntity
  8
Layer_1
 62
7
100
AcDbSpline
 70
8
 71
3
 72
8
 73
4
 74
0
 40
0
 40
0
 40
0
 40
0
 40
1
 40
1
 40
1
 40
1
 10
5.759368
 20
7.114350
 30
0.0
 10
5.759368
 20
7.203212
 30
0.0
 10
6.260492
 20
7.291528
 30
0.0
 10
6.669425
 20
7.274729
 30
0.0
  0
SPLINE
  5
26f
100
AcDbEntity
  8
Layer_1
 62
7
100
AcDbSpline
 70
8
 71
3
 72
8
 73
4
 74
0
 40
0
 40
0
 40
0
 40
0
 40
1
 40
1
 40
1
 40
1
 10
6.669425
 20
7.274729
 30
0.0
 10
7.047819
 20
7.259172
 30
0.0
 10
7.314459
 20
7.082835
 30
0.0
 10
7.348948
 20
6.825305
 30
0.0
  0
SPLINE
  5
270
100
AcDbEntity
  8
Layer_1
 62
7
100
AcDbSpline
 70
8
 71
3
 72
8
 73
4
 74
0
 40
0
 40
0
 40
0
 40
0
 40
1
 40
1
 40
1
 40
1
 10
7.348948
 20
6.825305
 30
0.0
 10
7.379207
 20
6.599349
 30
0.0
 10
7.370360
 20
6.596523
 30
0.0
 10
7.191767
 20
6.775114
 30
0.0
  0
LINE
  5
271
100
AcDbEntity
  8
Layer_1
 62
7
100
AcDbLine
 10
7.191767
 20
6.775114
 30
0.0
 11
7.191767
 21
6.775114
 31
0.0
  0
SPLINE
  5
272
100
AcDbEntity
  8
Layer_1
 62
7
100
AcDbSpline
 70
8
 71
3
 72
8
 73
4
 74
0
 40
0
 40
0
 40
0
 40
0
 40
1
 40
1
 40
1
 40
1
 10
7.264461
 20
6.986328
 30
0.0
 10
7.240665
 20
7.024830
 30
0.0
 10
7.183678
 20
7.055850
 30
0.0
 10
7.137822
 20
7.055260
 30
0.0
  0
SPLINE
  5
273
100
AcDbEntity
  8
Layer_1
 62
7
100
AcDbSpline
 70
8
 71
3
 72
8
 73
4
 74
0
 40
0
 40
0
 40
0
 40
0
 40
1
 40
1
 40
1
 40
1
 10
7.137822
 20
7.055260
 30
0.0
 10
7.087726
 20
7.054731
 30
0.0
 10
7.096360
 20
7.027103
 30
0.0
 10
7.159455
 20
6.986328
 30
0.0
  0
SPLINE
  5
274
100
AcDbEntity
  8
Layer_1
 62
7
100
AcDbSpline
 70
8
 71
3
 72
8
 73
4
 74
0
 40
0
 40
0
 40
0
 40
0
 40
1
 40
1
 40
1
 40
1
 10
7.159455
 20
6.986328
 30
0.0
 10
7.293941
 20
6.899415
 30
0.0
 10
7.318176
 20
6.899415
 30
0.0
 10
7.264461
 20
6.986328
 30
0.0
  0
LINE
  5
275
100
AcDbEntity
  8
Layer_1
 62
7
100
AcDbLine
 10
7.264461
 20
6.986328
 30
0.0
 11
7.264461
 21
6.986328
 31
0.0
  0
SPLINE
  5
276
100
AcDbEntity
  8
Layer_1
 62
7
100
AcDbSpline
 70
8
 71
3
 72
8
 73
4
 74
0
 40
0
 40
0
 40
0
 40
0
 40
1
 40
1
 40
1
 40
1
 10
6.826934
 20
7.106973
 30
0.0
 10
6.701801
 20
7.122504
 30
0.0
 10
6.497039
 20
7.122504
 30
0.0
 10
6.371906
 20
7.106973
 30
0.0
  0
SPLINE
  5
277
100
AcDbEntity
  8
Layer_1
 62
7
100
AcDbSpline
 70
8
 71
3
 72
8
 73
4
 74
0
 40
0
 40
0
 40
0
 40
0
 40
1
 40
1
 40
1
 40
1
 10
6.371906
 20
7.106973
 30
0.0
 10
6.246773
 20
7.091442
 30
0.0
 10
6.349154
 20
7.078739
 30
0.0
 10
6.599420
 20
7.078739
 30
0.0
  0
SPLINE
  5
278
100
AcDbEntity
  8
Layer_1
 62
7
100
AcDbSpline
 70
8
 71
3
 72
8
 73
4
 74
0
 40
0
 40
0
 40
0
 40
0
 40
1
 40
1
 40
1
 40
1
 10
6.599420
 20
7.078739
 30
0.0
 10
6.849686
 20
7.078739
 30
0.0
 10
6.952067
 20
7.091439
 30
0.0
 10
6.826934
 20
7.106973
 30
0.0
  0
LINE
  5
279
100
AcDbEntity
  8
Layer_1
 62
7
100
AcDbLine
 10
6.826934
 20
7.106973
 30
0.0
 11
6.826934
 21
7.106973
 31
0.0
  0
SPLINE
  5
27a
100
AcDbEntity
  8
Layer_1
 62
7
100
AcDbSpline
 70
8
 71
3
 72
8
 73
4
 74
0
 40
0
 40
0
 40
0
 40
0
 40
1
 40
1
 40
1
 40
1
 10
2.940527
 20
7.905070
 30
0.0
 10
2.988013
 20
7.952912
 30
0.0
 10
3.044500
 20
7.974423
 30
0.0
 10
3.066053
 20
7.952867
 30
0.0
  0
SPLINE
  5
27b
100
AcDbEntity
  8
Layer_1
 62
7
100
AcDbSpline
 70
8
 71
3
 72
8
 73
4
 74
0
 40
0
 40
0
 40
0
 40
0
 40
1
 40
1
 40
1
 40
1
 10
3.066053
 20
7.952867
 30
0.0
 10
3.087606
 20
7.931303
 30
0.0
 10
3.048755
 20
7.892172
 30
0.0
 10
2.979715
 20
7.865883
 30
0.0
  0
SPLINE
  5
27c
100
AcDbEntity
  8
Layer_1
 62
7
100
AcDbSpline
 70
8
 71
3
 72
8
 73
4
 74
0
 40
0
 40
0
 40
0
 40
0
 40
1
 40
1
 40
1
 40
1
 10
2.979715
 20
7.865883
 30
0.0
 10
2.879945
 20
7.827891
 30
0.0
 10
2.871904
 20
7.835932
 30
0.0
 10
2.940527
 20
7.905070
 30
0.0
  0
LINE
  5
27d
100
AcDbEntity
  8
Layer_1
 62
7
100
AcDbLine
 10
2.940527
 20
7.905070
 30
0.0
 11
2.940527
 21
7.905070
 31
0.0
  0
SPLINE
  5
27e
100
AcDbEntity
  8
Layer_1
 62
7
100
AcDbSpline
 70
8
 71
3
 72
8
 73
4
 74
0
 40
0
 40
0
 40
0
 40
0
 40
1
 40
1
 40
1
 40
1
 10
2.965027
 20
8.196210
 30
0.0
 10
2.981069
 20
8.207110
 30
0.0
 10
3.049324
 20
8.258215
 30
0.0
 10
3.116703
 20
8.309787
 30
0.0
  0
SPLINE
  5
27f
100
AcDbEntity
  8
Layer_1
 62
7
100
AcDbSpline
 70
8
 71
3
 72
8
 73
4
 74
0
 40
0
 40
0
 40
0
 40
0
 40
1
 40
1
 40
1
 40
1
 10
3.116703
 20
8.309787
 30
0.0
 10
3.221569
 20
8.390054
 30
0.0
 10
3.239211
 20
8.387202
 30
0.0
 10
3.239211
 20
8.289970
 30
0.0
  0
SPLINE
  5
280
100
AcDbEntity
  8
Layer_1
 62
7
100
AcDbSpline
 70
8
 71
3
 72
8
 73
4
 74
0
 40
0
 40
0
 40
0
 40
0
 40
1
 40
1
 40
1
 40
1
 10
3.239211
 20
8.289970
 30
0.0
 10
3.239211
 20
8.220149
 30
0.0
 10
3.180776
 20
8.176390
 30
0.0
 10
3.087535
 20
8.176390
 30
0.0
  0
SPLINE
  5
281
100
AcDbEntity
  8
Layer_1
 62
7
100
AcDbSpline
 70
8
 71
3
 72
8
 73
4
 74
0
 40
0
 40
0
 40
0
 40
0
 40
1
 40
1
 40
1
 40
1
 10
3.087535
 20
8.176390
 30
0.0
 10
3.004113
 20
8.176390
 30
0.0
 10
2.948984
 20
8.185306
 30
0.0
 10
2.965027
 20
8.196207
 30
0.0
  0
LINE
  5
282
100
AcDbEntity
  8
Layer_1
 62
7
100
AcDbLine
 10
2.965027
 20
8.196207
 30
0.0
 11
2.965027
 21
8.196210
 31
0.0
  0
ENDSEC
  0
SECTION
  2
OBJECTS
  0
DICTIONARY
  5
C
330
0
100
AcDbDictionary
  3
ACAD_GROUP
350
D
  3
ACAD_MLINESTYLE
350
17
  0
DICTIONARY
  5
D
330
C
100
AcDbDictionary
  0
DICTIONARY
  5
1A
330
C
100
AcDbDictionary
  0
DICTIONARY
  5
17
330
C
100
AcDbDictionary
  3
STANDARD
350
18
  0
DICTIONARY
  5
19
330
C
100
AcDbDictionary
  0
ENDSEC
  0
EOF
