; NON-PLATED HOLES START AT T1
; THROUGH (PLATED) HOLES START AT T100
M48
INCH
T1C0.118110
T100C0.015748
T101C0.040000
T102C0.038000
T103C0.035000
T104C0.036000
%
T1
X001770Y001257
X034770Y001257
X001770Y018757
X034770Y018757
T100
X025270Y012757
T101
X002770Y009757
X012270Y003257
X033270Y007757
X033270Y009757
X033270Y011757
X002770Y013757
X010270Y003257
X002770Y011757
X033270Y013757
X002770Y007757
T102
X009770Y017707
X008770Y017807
X010770Y017807
T103
X009770Y007257
X023770Y009257
X012770Y012257
X009770Y010257
X009770Y013257
X009770Y014257
X023770Y012257
X023770Y010257
X026770Y011257
X009770Y008257
X009770Y012257
X012770Y011257
X026770Y009257
X012770Y010257
X012770Y014257
X026770Y012257
X023770Y007257
X023770Y008257
X023770Y013257
X012770Y013257
X009770Y009257
X012770Y007257
X026770Y010257
X023770Y011257
X009770Y011257
X026770Y013257
X023770Y014257
X012770Y008257
X026770Y008257
X026770Y007257
X012770Y009257
X026770Y014257
T104
X015270Y005257
X019274Y018212
X021270Y014257
X021270Y008257
X021270Y012257
X015270Y015257
X021270Y015257
X021270Y006257
X017272Y018212
X021270Y016257
X015270Y007257
X015270Y012257
X015270Y016257
X015270Y011257
X021270Y007257
X021270Y017257
X017272Y017213
X021270Y005257
X021270Y011257
X015270Y008257
X019274Y017213
X021270Y010257
X021270Y013257
X015270Y003257
X015270Y009257
X015270Y013257
X018273Y017213
X015270Y014257
X021270Y003257
X018273Y018212
X015270Y006257
X015270Y010257
X015270Y004257
X021270Y004257
X021270Y009257
X015270Y017257
T00
M30
