solid Untitled-5b6e1798
facet normal 0.0 0.0 -1.0
  outer loop
    vertex 0.004890240293612735 1.1163866523412003 0.0
    vertex 0.0510462600062781 1.070230632628535 0.0
    vertex 0.004890240293612735 0.02407461291587215 0.0
  endloop
endfacet
facet normal 0.0 0.0 -1.0
  outer loop
    vertex 0.0510462600062781 1.070230632628535 0.0
    vertex 0.004890240293612735 1.1163866523412003 0.0
    vertex 1.097202279718945 1.1163866523412003 0.0
  endloop
endfacet
facet normal 0.0 0.0 -1.0
  outer loop
    vertex 0.0510462600062781 1.070230632628535 0.0
    vertex 1.097202279718945 1.1163866523412003 0.0
    vertex 1.0510462600062795 1.070230632628535 0.0
  endloop
endfacet
facet normal 0.0 0.0 -1.0
  outer loop
    vertex 1.0510462600062795 1.070230632628535 0.0
    vertex 1.097202279718945 1.1163866523412003 0.0
    vertex 1.0510462600062795 0.07023063262853751 0.0
  endloop
endfacet
facet normal 0.0 0.0 -1.0
  outer loop
    vertex 0.004890240293612735 0.02407461291587215 0.0
    vertex 0.0510462600062781 0.07023063262853751 0.0
    vertex 1.097202279718945 0.02407461291587215 0.0
  endloop
endfacet
facet normal 0.0 0.0 -1.0
  outer loop
    vertex 0.0510462600062781 0.07023063262853751 0.0
    vertex 0.004890240293612735 0.02407461291587215 0.0
    vertex 0.0510462600062781 1.070230632628535 0.0
  endloop
endfacet
facet normal 0.0 0.0 -1.0
  outer loop
    vertex 1.097202279718945 0.02407461291587215 0.0
    vertex 0.0510462600062781 0.07023063262853751 0.0
    vertex 1.0510462600062795 0.07023063262853751 0.0
  endloop
endfacet
facet normal 0.0 0.0 -1.0
  outer loop
    vertex 1.097202279718945 0.02407461291587215 0.0
    vertex 1.0510462600062795 0.07023063262853751 0.0
    vertex 1.097202279718945 1.1163866523412003 0.0
  endloop
endfacet
facet normal 0.0 0.0 -1.0
  outer loop
    vertex 1.0510462600062795 1.070230632628535 0.04547299999999999
    vertex 0.0510462600062781 0.07023063262853751 0.04547299999999999
    vertex 0.0510462600062781 1.070230632628535 0.04547299999999999
  endloop
endfacet
facet normal 0.0 0.0 -1.0
  outer loop
    vertex 0.0510462600062781 0.07023063262853751 0.04547299999999999
    vertex 1.0510462600062795 1.070230632628535 0.04547299999999999
    vertex 1.0510462600062795 0.07023063262853751 0.04547299999999999
  endloop
endfacet
facet normal -0.0 1.0 0.0
  outer loop
    vertex 0.004890240293612735 1.1163866523412003 0.19735399999999992
    vertex 1.097202279718945 1.1163866523412003 0.0
    vertex 0.004890240293612735 1.1163866523412003 0.0
  endloop
endfacet
facet normal -0.0 1.0 0.0
  outer loop
    vertex 1.097202279718945 1.1163866523412003 0.0
    vertex 0.004890240293612735 1.1163866523412003 0.19735399999999992
    vertex 1.097202279718945 1.1163866523412003 0.19735399999999992
  endloop
endfacet
facet normal 1.0 0.0 0.0
  outer loop
    vertex 1.097202279718945 1.1163866523412003 0.0
    vertex 1.097202279718945 0.02407461291587215 0.19735399999999992
    vertex 1.097202279718945 0.02407461291587215 0.0
  endloop
endfacet
facet normal 1.0 0.0 0.0
  outer loop
    vertex 1.097202279718945 0.02407461291587215 0.19735399999999992
    vertex 1.097202279718945 1.1163866523412003 0.0
    vertex 1.097202279718945 1.1163866523412003 0.19735399999999992
  endloop
endfacet
facet normal -0.0 -1.0 -0.0
  outer loop
    vertex 1.097202279718945 0.02407461291587215 0.19735399999999992
    vertex 0.004890240293612735 0.02407461291587215 0.0
    vertex 1.097202279718945 0.02407461291587215 0.0
  endloop
endfacet
facet normal -0.0 -1.0 -0.0
  outer loop
    vertex 0.004890240293612735 0.02407461291587215 0.0
    vertex 1.097202279718945 0.02407461291587215 0.19735399999999992
    vertex 0.004890240293612735 0.02407461291587215 0.19735399999999992
  endloop
endfacet
facet normal -1.0 0.0 0.0
  outer loop
    vertex 0.004890240293612735 1.1163866523412003 0.19735399999999992
    vertex 0.004890240293612735 0.02407461291587215 0.0
    vertex 0.004890240293612735 0.02407461291587215 0.19735399999999992
  endloop
endfacet
facet normal -1.0 0.0 0.0
  outer loop
    vertex 0.004890240293612735 0.02407461291587215 0.0
    vertex 0.004890240293612735 1.1163866523412003 0.19735399999999992
    vertex 0.004890240293612735 1.1163866523412003 0.0
  endloop
endfacet
facet normal 0.0 0.0 1.0
  outer loop
    vertex 0.004890240293612735 0.02407461291587215 0.19735399999999992
    vertex 0.0510462600062781 0.07023063262853751 0.19735399999999992
    vertex 0.004890240293612735 1.1163866523412003 0.19735399999999992
  endloop
endfacet
facet normal 0.0 0.0 1.0
  outer loop
    vertex 0.0510462600062781 0.07023063262853751 0.19735399999999992
    vertex 0.004890240293612735 0.02407461291587215 0.19735399999999992
    vertex 1.097202279718945 0.02407461291587215 0.19735399999999992
  endloop
endfacet
facet normal 0.0 0.0 1.0
  outer loop
    vertex 0.0510462600062781 0.07023063262853751 0.19735399999999992
    vertex 1.097202279718945 0.02407461291587215 0.19735399999999992
    vertex 1.0510462600062795 0.07023063262853751 0.19735399999999992
  endloop
endfacet
facet normal 0.0 0.0 1.0
  outer loop
    vertex 1.0510462600062795 0.07023063262853751 0.19735399999999992
    vertex 1.097202279718945 0.02407461291587215 0.19735399999999992
    vertex 1.0510462600062795 1.070230632628535 0.19735399999999992
  endloop
endfacet
facet normal 0.0 0.0 1.0
  outer loop
    vertex 0.004890240293612735 1.1163866523412003 0.19735399999999992
    vertex 0.0510462600062781 1.070230632628535 0.19735399999999992
    vertex 1.097202279718945 1.1163866523412003 0.19735399999999992
  endloop
endfacet
facet normal 0.0 0.0 1.0
  outer loop
    vertex 0.0510462600062781 1.070230632628535 0.19735399999999992
    vertex 0.004890240293612735 1.1163866523412003 0.19735399999999992
    vertex 0.0510462600062781 0.07023063262853751 0.19735399999999992
  endloop
endfacet
facet normal 0.0 0.0 1.0
  outer loop
    vertex 1.097202279718945 1.1163866523412003 0.19735399999999992
    vertex 0.0510462600062781 1.070230632628535 0.19735399999999992
    vertex 1.0510462600062795 1.070230632628535 0.19735399999999992
  endloop
endfacet
facet normal 0.0 0.0 1.0
  outer loop
    vertex 1.097202279718945 1.1163866523412003 0.19735399999999992
    vertex 1.0510462600062795 1.070230632628535 0.19735399999999992
    vertex 1.097202279718945 0.02407461291587215 0.19735399999999992
  endloop
endfacet
facet normal 0.0 -1.0 0.0
  outer loop
    vertex 1.0510462600062795 1.070230632628535 0.19735399999999992
    vertex 0.0510462600062781 1.070230632628535 0.04547299999999999
    vertex 1.0510462600062795 1.070230632628535 0.04547299999999999
  endloop
endfacet
facet normal 0.0 -1.0 0.0
  outer loop
    vertex 0.0510462600062781 1.070230632628535 0.04547299999999999
    vertex 1.0510462600062795 1.070230632628535 0.19735399999999992
    vertex 0.0510462600062781 1.070230632628535 0.19735399999999992
  endloop
endfacet
facet normal -1.0 0.0 0.0
  outer loop
    vertex 1.0510462600062795 1.070230632628535 0.19735399999999992
    vertex 1.0510462600062795 0.07023063262853751 0.04547299999999999
    vertex 1.0510462600062795 0.07023063262853751 0.19735399999999992
  endloop
endfacet
facet normal -1.0 0.0 0.0
  outer loop
    vertex 1.0510462600062795 0.07023063262853751 0.04547299999999999
    vertex 1.0510462600062795 1.070230632628535 0.19735399999999992
    vertex 1.0510462600062795 1.070230632628535 0.04547299999999999
  endloop
endfacet
facet normal -0.0 1.0 -0.0
  outer loop
    vertex 0.0510462600062781 0.07023063262853751 0.19735399999999992
    vertex 1.0510462600062795 0.07023063262853751 0.04547299999999999
    vertex 0.0510462600062781 0.07023063262853751 0.04547299999999999
  endloop
endfacet
facet normal -0.0 1.0 -0.0
  outer loop
    vertex 1.0510462600062795 0.07023063262853751 0.04547299999999999
    vertex 0.0510462600062781 0.07023063262853751 0.19735399999999992
    vertex 1.0510462600062795 0.07023063262853751 0.19735399999999992
  endloop
endfacet
facet normal 1.0 -0.0 -0.0
  outer loop
    vertex 0.0510462600062781 1.070230632628535 0.04547299999999999
    vertex 0.0510462600062781 0.07023063262853751 0.19735399999999992
    vertex 0.0510462600062781 0.07023063262853751 0.04547299999999999
  endloop
endfacet
facet normal 1.0 -0.0 -0.0
  outer loop
    vertex 0.0510462600062781 0.07023063262853751 0.19735399999999992
    vertex 0.0510462600062781 1.070230632628535 0.04547299999999999
    vertex 0.0510462600062781 1.070230632628535 0.19735399999999992
  endloop
endfacet
endsolid Untitled-5b6e1798
