solid Stageholder
facet normal 0.0 0.0 -1.0
  outer loop
    vertex 0.12421210345776347 28.356220969466484 0.0
    vertex 1.2965750041594637 27.183858068764785 0.0
    vertex 0.12421210345776347 0.6114951680631526 0.0
  endloop
endfacet
facet normal 0.0 0.0 -1.0
  outer loop
    vertex 1.2965750041594637 27.183858068764785 0.0
    vertex 0.12421210345776347 28.356220969466484 0.0
    vertex 27.8689379048612 28.356220969466484 0.0
  endloop
endfacet
facet normal 0.0 0.0 -1.0
  outer loop
    vertex 1.2965750041594637 27.183858068764785 0.0
    vertex 27.8689379048612 28.356220969466484 0.0
    vertex 26.6965750041595 27.183858068764785 0.0
  endloop
endfacet
facet normal 0.0 0.0 -1.0
  outer loop
    vertex 26.6965750041595 27.183858068764785 0.0
    vertex 27.8689379048612 28.356220969466484 0.0
    vertex 26.6965750041595 1.7838580687648529 0.0
  endloop
endfacet
facet normal 0.0 0.0 -1.0
  outer loop
    vertex 0.12421210345776347 0.6114951680631526 0.0
    vertex 1.2965750041594637 1.7838580687648529 0.0
    vertex 27.8689379048612 0.6114951680631526 0.0
  endloop
endfacet
facet normal 0.0 0.0 -1.0
  outer loop
    vertex 1.2965750041594637 1.7838580687648529 0.0
    vertex 0.12421210345776347 0.6114951680631526 0.0
    vertex 1.2965750041594637 27.183858068764785 0.0
  endloop
endfacet
facet normal 0.0 0.0 -1.0
  outer loop
    vertex 27.8689379048612 0.6114951680631526 0.0
    vertex 1.2965750041594637 1.7838580687648529 0.0
    vertex 26.6965750041595 1.7838580687648529 0.0
  endloop
endfacet
facet normal 0.0 0.0 -1.0
  outer loop
    vertex 27.8689379048612 0.6114951680631526 0.0
    vertex 26.6965750041595 1.7838580687648529 0.0
    vertex 27.8689379048612 28.356220969466484 0.0
  endloop
endfacet
facet normal 0.0 0.0 -1.0
  outer loop
    vertex 26.6965750041595 27.183858068764785 1.1550141999999997
    vertex 1.2965750041594637 1.7838580687648529 1.1550141999999997
    vertex 1.2965750041594637 27.183858068764785 1.1550141999999997
  endloop
endfacet
facet normal 0.0 0.0 -1.0
  outer loop
    vertex 1.2965750041594637 1.7838580687648529 1.1550141999999997
    vertex 26.6965750041595 27.183858068764785 1.1550141999999997
    vertex 26.6965750041595 1.7838580687648529 1.1550141999999997
  endloop
endfacet
facet normal -0.0 1.0 0.0
  outer loop
    vertex 0.12421210345776347 28.356220969466484 5.012791599999997
    vertex 27.8689379048612 28.356220969466484 0.0
    vertex 0.12421210345776347 28.356220969466484 0.0
  endloop
endfacet
facet normal -0.0 1.0 0.0
  outer loop
    vertex 27.8689379048612 28.356220969466484 0.0
    vertex 0.12421210345776347 28.356220969466484 5.012791599999997
    vertex 27.8689379048612 28.356220969466484 5.012791599999997
  endloop
endfacet
facet normal 1.0 0.0 0.0
  outer loop
    vertex 27.8689379048612 28.356220969466484 0.0
    vertex 27.8689379048612 0.6114951680631526 5.012791599999997
    vertex 27.8689379048612 0.6114951680631526 0.0
  endloop
endfacet
facet normal 1.0 0.0 0.0
  outer loop
    vertex 27.8689379048612 0.6114951680631526 5.012791599999997
    vertex 27.8689379048612 28.356220969466484 0.0
    vertex 27.8689379048612 28.356220969466484 5.012791599999997
  endloop
endfacet
facet normal -0.0 -1.0 -0.0
  outer loop
    vertex 27.8689379048612 0.6114951680631526 5.012791599999997
    vertex 0.12421210345776347 0.6114951680631526 0.0
    vertex 27.8689379048612 0.6114951680631526 0.0
  endloop
endfacet
facet normal -0.0 -1.0 -0.0
  outer loop
    vertex 0.12421210345776347 0.6114951680631526 0.0
    vertex 27.8689379048612 0.6114951680631526 5.012791599999997
    vertex 0.12421210345776347 0.6114951680631526 5.012791599999997
  endloop
endfacet
facet normal -1.0 0.0 0.0
  outer loop
    vertex 0.12421210345776347 28.356220969466484 5.012791599999997
    vertex 0.12421210345776347 0.6114951680631526 0.0
    vertex 0.12421210345776347 0.6114951680631526 5.012791599999997
  endloop
endfacet
facet normal -1.0 0.0 0.0
  outer loop
    vertex 0.12421210345776347 0.6114951680631526 0.0
    vertex 0.12421210345776347 28.356220969466484 5.012791599999997
    vertex 0.12421210345776347 28.356220969466484 0.0
  endloop
endfacet
facet normal 0.0 0.0 1.0
  outer loop
    vertex 0.12421210345776347 0.6114951680631526 5.012791599999997
    vertex 1.2965750041594637 1.7838580687648529 5.012791599999997
    vertex 0.12421210345776347 28.356220969466484 5.012791599999997
  endloop
endfacet
facet normal 0.0 0.0 1.0
  outer loop
    vertex 1.2965750041594637 1.7838580687648529 5.012791599999997
    vertex 0.12421210345776347 0.6114951680631526 5.012791599999997
    vertex 27.8689379048612 0.6114951680631526 5.012791599999997
  endloop
endfacet
facet normal 0.0 0.0 1.0
  outer loop
    vertex 1.2965750041594637 1.7838580687648529 5.012791599999997
    vertex 27.8689379048612 0.6114951680631526 5.012791599999997
    vertex 26.6965750041595 1.7838580687648529 5.012791599999997
  endloop
endfacet
facet normal 0.0 0.0 1.0
  outer loop
    vertex 26.6965750041595 1.7838580687648529 5.012791599999997
    vertex 27.8689379048612 0.6114951680631526 5.012791599999997
    vertex 26.6965750041595 27.183858068764785 5.012791599999997
  endloop
endfacet
facet normal 0.0 0.0 1.0
  outer loop
    vertex 0.12421210345776347 28.356220969466484 5.012791599999997
    vertex 1.2965750041594637 27.183858068764785 5.012791599999997
    vertex 27.8689379048612 28.356220969466484 5.012791599999997
  endloop
endfacet
facet normal 0.0 0.0 1.0
  outer loop
    vertex 1.2965750041594637 27.183858068764785 5.012791599999997
    vertex 0.12421210345776347 28.356220969466484 5.012791599999997
    vertex 1.2965750041594637 1.7838580687648529 5.012791599999997
  endloop
endfacet
facet normal 0.0 0.0 1.0
  outer loop
    vertex 27.8689379048612 28.356220969466484 5.012791599999997
    vertex 1.2965750041594637 27.183858068764785 5.012791599999997
    vertex 26.6965750041595 27.183858068764785 5.012791599999997
  endloop
endfacet
facet normal 0.0 0.0 1.0
  outer loop
    vertex 27.8689379048612 28.356220969466484 5.012791599999997
    vertex 26.6965750041595 27.183858068764785 5.012791599999997
    vertex 27.8689379048612 0.6114951680631526 5.012791599999997
  endloop
endfacet
facet normal 0.0 -1.0 0.0
  outer loop
    vertex 26.6965750041595 27.183858068764785 5.012791599999997
    vertex 1.2965750041594637 27.183858068764785 1.1550141999999997
    vertex 26.6965750041595 27.183858068764785 1.1550141999999997
  endloop
endfacet
facet normal 0.0 -1.0 0.0
  outer loop
    vertex 1.2965750041594637 27.183858068764785 1.1550141999999997
    vertex 26.6965750041595 27.183858068764785 5.012791599999997
    vertex 1.2965750041594637 27.183858068764785 5.012791599999997
  endloop
endfacet
facet normal -1.0 0.0 0.0
  outer loop
    vertex 26.6965750041595 27.183858068764785 5.012791599999997
    vertex 26.6965750041595 1.7838580687648529 1.1550141999999997
    vertex 26.6965750041595 1.7838580687648529 5.012791599999997
  endloop
endfacet
facet normal -1.0 0.0 0.0
  outer loop
    vertex 26.6965750041595 1.7838580687648529 1.1550141999999997
    vertex 26.6965750041595 27.183858068764785 5.012791599999997
    vertex 26.6965750041595 27.183858068764785 1.1550141999999997
  endloop
endfacet
facet normal -0.0 1.0 -0.0
  outer loop
    vertex 1.2965750041594637 1.7838580687648529 5.012791599999997
    vertex 26.6965750041595 1.7838580687648529 1.1550141999999997
    vertex 1.2965750041594637 1.7838580687648529 1.1550141999999997
  endloop
endfacet
facet normal -0.0 1.0 -0.0
  outer loop
    vertex 26.6965750041595 1.7838580687648529 1.1550141999999997
    vertex 1.2965750041594637 1.7838580687648529 5.012791599999997
    vertex 26.6965750041595 1.7838580687648529 5.012791599999997
  endloop
endfacet
facet normal 1.0 -0.0 -0.0
  outer loop
    vertex 1.2965750041594637 27.183858068764785 1.1550141999999997
    vertex 1.2965750041594637 1.7838580687648529 5.012791599999997
    vertex 1.2965750041594637 1.7838580687648529 1.1550141999999997
  endloop
endfacet
facet normal 1.0 -0.0 -0.0
  outer loop
    vertex 1.2965750041594637 1.7838580687648529 5.012791599999997
    vertex 1.2965750041594637 27.183858068764785 1.1550141999999997
    vertex 1.2965750041594637 27.183858068764785 5.012791599999997
  endloop
endfacet
endsolid Stageholder
