G04 MADE WITH FRITZING*
G04 WWW.FRITZING.ORG*
G04 DOUBLE SIDED*
G04 HOLES PLATED*
G04 CONTOUR ON CENTER OF CONTOUR VECTOR*
%ASAXBY*%
%FSLAX23Y23*%
%MOIN*%
%OFA0B0*%
%SFA1.0B1.0*%
%ADD10C,0.078000*%
%ADD11C,0.075000*%
%ADD12C,0.070000*%
%ADD13C,0.080000*%
%ADD14C,0.039370*%
%ADD15R,0.075000X0.075000*%
%ADD16R,0.069958X0.070000*%
%ADD17R,0.080000X0.080000*%
%ADD18C,0.016000*%
%LNCOPPER0*%
G90*
G70*
G54D10*
X877Y1781D03*
X977Y1771D03*
X1077Y1781D03*
G54D11*
X977Y1426D03*
X1277Y1426D03*
X977Y1326D03*
X1277Y1326D03*
X977Y1226D03*
X1277Y1226D03*
X977Y1126D03*
X1277Y1126D03*
X977Y1026D03*
X1277Y1026D03*
X977Y926D03*
X1277Y926D03*
X977Y826D03*
X1277Y826D03*
X977Y726D03*
X1277Y726D03*
X2377Y1426D03*
X2677Y1426D03*
X2377Y1326D03*
X2677Y1326D03*
X2377Y1226D03*
X2677Y1226D03*
X2377Y1126D03*
X2677Y1126D03*
X2377Y1026D03*
X2677Y1026D03*
X2377Y926D03*
X2677Y926D03*
X2377Y826D03*
X2677Y826D03*
X2377Y726D03*
X2677Y726D03*
G54D12*
X1527Y1726D03*
X1527Y1626D03*
X1527Y1526D03*
X1527Y1426D03*
X1527Y1326D03*
X1527Y1226D03*
X1527Y1126D03*
X1527Y1026D03*
X1527Y926D03*
X1527Y826D03*
X1527Y726D03*
X1527Y626D03*
X1527Y526D03*
X1527Y426D03*
X1527Y326D03*
X2127Y1726D03*
X2127Y1626D03*
X2127Y1526D03*
X2127Y1426D03*
X2127Y1326D03*
X2127Y1226D03*
X2127Y1126D03*
X2127Y1026D03*
X2127Y926D03*
X2127Y826D03*
X2127Y726D03*
X2127Y626D03*
X2127Y526D03*
X2127Y426D03*
X2127Y326D03*
X1727Y1821D03*
X1727Y1721D03*
X1827Y1821D03*
X1827Y1721D03*
X1927Y1821D03*
X1927Y1721D03*
G54D13*
X1027Y326D03*
X1227Y326D03*
X3327Y1376D03*
X3327Y1176D03*
X277Y976D03*
X277Y776D03*
X277Y1376D03*
X277Y1176D03*
G54D14*
X2527Y1276D03*
G54D13*
X3327Y976D03*
X3327Y776D03*
G54D15*
X977Y1426D03*
X2377Y1426D03*
G54D16*
X1527Y1726D03*
G54D17*
X1027Y326D03*
X3327Y1376D03*
X277Y976D03*
X277Y1376D03*
X3327Y976D03*
G54D18*
X2027Y1825D02*
X2027Y1576D01*
D02*
X2276Y1825D02*
X2027Y1825D01*
D02*
X2276Y1326D02*
X2276Y1825D01*
D02*
X2027Y1576D02*
X1728Y1576D01*
D02*
X1728Y1576D02*
X1728Y726D01*
D02*
X1728Y726D02*
X1551Y726D01*
D02*
X2354Y1326D02*
X2276Y1326D01*
D02*
X1176Y1176D02*
X1176Y1327D01*
D02*
X1177Y1175D02*
X1176Y1176D01*
D02*
X1177Y725D02*
X1177Y1175D01*
D02*
X1176Y1327D02*
X1261Y1410D01*
D02*
X1254Y726D02*
X1177Y725D01*
D02*
X1254Y1426D02*
X1000Y1426D01*
D02*
X2654Y1426D02*
X2400Y1426D01*
D02*
X2576Y724D02*
X2576Y1427D01*
D02*
X2576Y1427D02*
X2654Y1426D01*
D02*
X2654Y725D02*
X2576Y724D01*
D02*
X876Y25D02*
X877Y626D01*
D02*
X877Y626D02*
X961Y709D01*
D02*
X2377Y25D02*
X1828Y25D01*
D02*
X2377Y703D02*
X2377Y25D01*
D02*
X303Y976D02*
X726Y975D01*
D02*
X726Y975D02*
X726Y1226D01*
D02*
X726Y1226D02*
X954Y1226D01*
D02*
X2514Y1271D02*
X2399Y1233D01*
D02*
X2476Y925D02*
X2377Y927D01*
D02*
X3477Y1174D02*
X3477Y523D01*
D02*
X2377Y927D02*
X2370Y948D01*
D02*
X2476Y526D02*
X2476Y925D01*
D02*
X3477Y523D02*
X2476Y526D01*
D02*
X3326Y1174D02*
X3477Y1174D01*
D02*
X3317Y1152D02*
X3326Y1174D01*
D02*
X2828Y925D02*
X2700Y926D01*
D02*
X2828Y777D02*
X2828Y925D01*
D02*
X3301Y776D02*
X2828Y777D01*
D02*
X2878Y1226D02*
X2700Y1226D01*
D02*
X2878Y974D02*
X2878Y1226D01*
D02*
X3301Y976D02*
X2878Y974D01*
D02*
X2278Y1025D02*
X2276Y77D01*
D02*
X2276Y77D02*
X1228Y77D01*
D02*
X1228Y77D02*
X1227Y300D01*
D02*
X2354Y1026D02*
X2278Y1025D01*
D02*
X1228Y527D02*
X1128Y527D01*
D02*
X1128Y527D02*
X1128Y875D01*
D02*
X1128Y875D02*
X993Y1009D01*
D02*
X1227Y351D02*
X1228Y527D01*
D02*
X1327Y577D02*
X1278Y577D01*
D02*
X1327Y225D02*
X1327Y577D01*
D02*
X1278Y577D02*
X1277Y703D01*
D02*
X1877Y225D02*
X1327Y225D01*
D02*
X1877Y1426D02*
X1877Y225D01*
D02*
X2103Y1426D02*
X1877Y1426D01*
D02*
X1378Y1026D02*
X1293Y942D01*
D02*
X1378Y1226D02*
X1378Y1076D01*
D02*
X128Y1575D02*
X1428Y1576D01*
D02*
X128Y1174D02*
X128Y1575D01*
D02*
X1428Y1576D02*
X1427Y1275D01*
D02*
X1427Y1275D02*
X1378Y1226D01*
D02*
X1378Y1076D02*
X1378Y1026D01*
D02*
X251Y1175D02*
X128Y1174D01*
D02*
X1378Y1326D02*
X1293Y1242D01*
D02*
X678Y1526D02*
X1378Y1526D01*
D02*
X678Y1375D02*
X678Y1526D01*
D02*
X1378Y1526D02*
X1378Y1376D01*
D02*
X1378Y1376D02*
X1378Y1326D01*
D02*
X303Y1376D02*
X678Y1375D01*
D02*
X1828Y25D02*
X876Y25D01*
G04 End of Copper0*
M02*